<?xml version="1.0" encoding="UTF-8"?>
<svg id="Layer_1" data-name="Layer 1" xmlns="http://www.w3.org/2000/svg" viewBox="0 0 1080 988.84">
  <defs>
    <style>
      .cls-1 {
        fill: #fbeebf;
      }
    </style>
  </defs>
  <g>
    <path class="cls-1" d="M1079.68,838.64h0v-30.2h0v-119.97h-39.9c-.96,0-1.83.38-2.47,1.06-.6.64-.94,1.5-.94,2.37s.32,1.65.92,2.3c2.43,2.6,3.71,5.66,3.71,8.83,0,8.63-9.56,15.65-21.3,15.65s-21.3-7.02-21.3-15.65c0-3.17,1.28-6.22,3.71-8.83.6-.65.92-1.44.92-2.3s-.34-1.74-.94-2.37c-.64-.68-1.52-1.06-2.47-1.06h-39.9v39.9c0,.96-.38,1.83-1.06,2.47-.64.6-1.5.94-2.37.94s-1.65-.32-2.3-.92c-2.6-2.43-5.66-3.71-8.83-3.71-8.63,0-15.65,9.56-15.65,21.3s7.02,21.3,15.65,21.3c3.17,0,6.22-1.28,8.83-3.71.65-.6,1.44-.92,2.3-.92s1.74.34,2.37.94c.68.64,1.06,1.51,1.06,2.47v39.9h-39.9c-.96,0-1.83-.38-2.47-1.06-.6-.64-.94-1.5-.94-2.37s.32-1.65.92-2.3c2.43-2.6,3.71-5.66,3.71-8.83,0-8.63-9.56-15.65-21.3-15.65s-21.3,7.02-21.3,15.65c0,3.17,1.28,6.22,3.71,8.83.6.65.92,1.44.92,2.3s-.34,1.74-.94,2.37c-.64.68-1.51,1.06-2.47,1.06h-39.9v-39.9c0-.96-.38-1.83-1.05-2.47-.64-.6-1.5-.94-2.37-.94s-1.65.32-2.3.92c-2.6,2.43-5.66,3.71-8.83,3.71-8.63,0-15.65-9.56-15.65-21.3s7.02-21.3,15.65-21.3c3.17,0,6.22,1.28,8.83,3.71.65.6,1.44.92,2.3.92s1.74-.34,2.37-.94c.68-.64,1.05-1.52,1.05-2.47v-39.9h-39.9c-.96,0-1.83.38-2.47,1.06-.6.64-.94,1.5-.94,2.37s.32,1.65.92,2.3c2.43,2.6,3.71,5.66,3.71,8.83,0,8.63-9.56,15.65-21.3,15.65s-21.3-7.02-21.3-15.65c0-3.17,1.28-6.22,3.71-8.83.6-.65.92-1.44.92-2.3s-.34-1.74-.94-2.37c-.64-.68-1.51-1.06-2.47-1.06h-39.9v39.9c0,.96-.38,1.83-1.06,2.47-.64.6-1.5.94-2.37.94s-1.65-.32-2.3-.92c-2.6-2.43-5.66-3.71-8.83-3.71-8.63,0-15.65,9.56-15.65,21.3s7.02,21.3,15.65,21.3c3.17,0,6.22-1.28,8.83-3.71.65-.6,1.44-.92,2.3-.92s1.74.34,2.37.94c.68.64,1.06,1.51,1.06,2.47v39.9h-39.9c-.96,0-1.83.38-2.47,1.06-.6.64-.94,1.5-.94,2.37s.32,1.65.92,2.3c2.43,2.6,3.71,5.66,3.71,8.83,0,8.63-9.56,15.65-21.3,15.65s-21.3-7.02-21.3-15.65c0-3.17,1.28-6.22,3.71-8.83.6-.65.92-1.44.92-2.3s-.34-1.74-.94-2.37c-.64-.68-1.51-1.06-2.47-1.06h-39.9v-39.9c0-.96-.38-1.83-1.05-2.47-.64-.6-1.5-.94-2.37-.94s-1.65.32-2.3.92c-2.6,2.43-5.66,3.71-8.83,3.71-8.63,0-15.65-9.56-15.65-21.3s7.02-21.3,15.65-21.3c3.17,0,6.22,1.28,8.83,3.71.65.6,1.44.92,2.3.92s1.74-.34,2.37-.94c.68-.64,1.05-1.51,1.05-2.47v-39.9h-39.9c-.96,0-1.83-.38-2.47-1.06-.6-.64-.94-1.5-.94-2.37s.32-1.65.92-2.3c2.43-2.6,3.71-5.66,3.71-8.83h0c0-8.63-9.56-15.65-21.3-15.65s-21.3,7.02-21.3,15.65c0,3.17,1.28,6.22,3.71,8.83.6.65.92,1.44.92,2.3s-.34,1.74-.94,2.37c-.64.68-1.51,1.06-2.47,1.06h-39.9v39.9c0,.96-.38,1.83-1.06,2.47-.64.6-1.5.94-2.37.94s-1.65-.32-2.3-.92c-2.6-2.43-5.66-3.71-8.83-3.71-8.63,0-15.65,9.56-15.65,21.3s7.02,21.3,15.65,21.3c3.17,0,6.22-1.28,8.83-3.71.65-.6,1.44-.92,2.3-.92s1.74.34,2.37.94c.68.64,1.06,1.51,1.06,2.47v39.9h-39.9c-.96,0-1.83.38-2.47,1.06-.6.64-.94,1.5-.94,2.37s.32,1.65.92,2.3c2.43,2.6,3.71,5.66,3.71,8.83,0,8.63-9.56,15.65-21.3,15.65s-21.3-7.02-21.3-15.65c0-3.17,1.28-6.22,3.71-8.83.6-.65.92-1.44.92-2.3s-.34-1.74-.94-2.37c-.64-.68-1.51-1.06-2.47-1.06h-79.8c-.96,0-1.83.38-2.47,1.06-.6.64-.94,1.5-.94,2.37s.32,1.65.92,2.3c2.43,2.6,3.71,5.66,3.71,8.83,0,8.63-9.56,15.65-21.3,15.65s-21.3-7.02-21.3-15.65c0-3.17,1.28-6.22,3.71-8.83.6-.65.92-1.44.92-2.3s-.34-1.74-.94-2.37c-.64-.68-1.51-1.06-2.47-1.06h-39.9v39.9c0,.96.38,1.83,1.05,2.47.64.6,1.5.94,2.37.94s1.65-.32,2.3-.92c2.6-2.43,5.66-3.71,8.83-3.71,8.63,0,15.65,9.56,15.65,21.3s-7.02,21.3-15.65,21.3c-3.17,0-6.22-1.28-8.83-3.71-.65-.6-1.44-.92-2.3-.92s-1.74.34-2.37.94c-.68.64-1.05,1.51-1.05,2.47v39.9h-39.9c-.96,0-1.83-.38-2.47-1.06-.6-.64-.94-1.5-.94-2.37s.32-1.65.92-2.3c2.43-2.6,3.71-5.66,3.71-8.83,0-8.63-9.56-15.65-21.3-15.65s-21.3,7.02-21.3,15.65c0,3.17,1.28,6.22,3.71,8.83.6.65.92,1.44.92,2.3s-.34,1.74-.94,2.37c-.64.68-1.51,1.06-2.47,1.06h-39.9v-39.9c0-.96.38-1.83,1.06-2.47.64-.6,1.5-.94,2.37-.94s1.65.32,2.3.92c2.6,2.43,5.66,3.71,8.83,3.71,8.63,0,15.65-9.56,15.65-21.3s-7.02-21.3-15.65-21.3c-3.17,0-6.22,1.28-8.83,3.71-.65.6-1.44.92-2.3.92s-1.74-.34-2.37-.94c-.68-.64-1.06-1.51-1.06-2.47v-39.9h39.9c.96,0,1.83-.38,2.47-1.06.6-.64.94-1.5.94-2.37s-.32-1.65-.92-2.3c-2.43-2.6-3.71-5.66-3.71-8.83,0-8.63,9.56-15.65,21.3-15.65s21.3,7.02,21.3,15.65c0,3.17-1.28,6.22-3.71,8.83-.6.65-.92,1.44-.92,2.3s.34,1.74.94,2.37c.64.68,1.51,1.06,2.47,1.06h39.9v-39.9c0-.96-.38-1.83-1.05-2.47-.64-.6-1.5-.94-2.37-.94s-1.65.32-2.3.92c-2.6,2.43-5.66,3.71-8.83,3.71-8.63,0-15.65-9.56-15.65-21.3s7.02-21.3,15.65-21.3c3.17,0,6.22,1.28,8.83,3.71.65.6,1.44.92,2.3.92s1.74-.34,2.37-.94c.68-.64,1.05-1.51,1.05-2.47v-39.9h-39.9c-.96,0-1.83-.38-2.47-1.06-.6-.64-.94-1.5-.94-2.37s.32-1.65.92-2.3c2.43-2.6,3.71-5.66,3.71-8.83,0-8.63-9.56-15.65-21.3-15.65s-21.3,7.02-21.3,15.65c0,3.17,1.28,6.22,3.71,8.83.6.65.92,1.44.92,2.3s-.34,1.74-.94,2.37c-.64.68-1.51,1.06-2.47,1.06h-79.8c-.96,0-1.83.38-2.47,1.06-.6.64-.94,1.5-.94,2.37s.32,1.65.92,2.3c2.43,2.6,3.71,5.66,3.71,8.83,0,8.63-9.56,15.65-21.3,15.65s-21.3-7.02-21.3-15.65c0-3.17,1.28-6.22,3.71-8.83.6-.65.92-1.44.92-2.3s-.34-1.74-.94-2.37c-.64-.68-1.51-1.06-2.47-1.06H0v300.07h1079.68v-149.9ZM1041,823c0-.23-.02-.46-.03-.68.01.23.03.45.03.68h0ZM1079.68,768.54h0c0-.08-.02-.16-.02-.24,0,.08.02.16.02.24Z"/>
    <path class="cls-1" d="M345.31,488.36c3.17,0,6.22,1.28,8.83,3.71.65.6,1.44.92,2.3.92s1.74-.34,2.37-.94c.68-.64,1.05-1.52,1.05-2.47v-39.9h-39.9c-.96,0-1.83.38-2.47,1.06-.6.64-.94,1.5-.94,2.37s.32,1.65.92,2.3c2.43,2.6,3.71,5.66,3.71,8.83,0,8.63-9.56,15.65-21.3,15.65s-21.3-7.02-21.3-15.65c0-3.17,1.28-6.22,3.71-8.83.6-.65.92-1.44.92-2.3s-.34-1.74-.94-2.37c-.64-.68-1.51-1.06-2.47-1.06h-39.9v39.9c0,.96-.38,1.83-1.06,2.47-.64.6-1.5.94-2.37.94s-1.65-.32-2.3-.92c-2.6-2.43-5.66-3.71-8.83-3.71-8.63,0-15.65,9.56-15.65,21.3s7.02,21.3,15.65,21.3c3.17,0,6.22-1.28,8.83-3.71.65-.6,1.44-.92,2.3-.92s1.74.34,2.37.94c.68.64,1.06,1.51,1.06,2.47v39.9h39.9c.96,0,1.83.38,2.47,1.06.6.64.94,1.5.94,2.37s-.32,1.65-.92,2.3c-2.43,2.6-3.71,5.66-3.71,8.83,0,8.63,9.56,15.65,21.3,15.65s21.3-7.02,21.3-15.65c0-3.17-1.28-6.22-3.71-8.83-.6-.65-.92-1.44-.92-2.3s.34-1.74.94-2.37c.64-.68,1.51-1.06,2.47-1.06h39.9v-39.9c0-.96-.38-1.83-1.05-2.47-.64-.6-1.5-.94-2.37-.94s-1.65.32-2.3.92c-2.6,2.43-5.66,3.71-8.83,3.71-8.63,0-15.65-9.56-15.65-21.3s7.02-21.3,15.65-21.3Z"/>
    <path class="cls-1" d="M225.3,488.36c3.17,0,6.22,1.28,8.83,3.71.65.6,1.44.92,2.3.92s1.74-.34,2.37-.94c.68-.64,1.05-1.52,1.05-2.47v-39.9h-39.9c-.96,0-1.83.38-2.47,1.06-.6.64-.94,1.5-.94,2.37s.32,1.65.92,2.3c2.43,2.6,3.71,5.66,3.71,8.83,0,8.63-9.56,15.65-21.3,15.65s-21.3-7.02-21.3-15.65c0-3.17,1.28-6.22,3.71-8.83.6-.65.92-1.44.92-2.3s-.34-1.74-.94-2.37c-.64-.68-1.51-1.06-2.47-1.06h-39.9v39.9c0,.96-.38,1.83-1.06,2.47-.64.6-1.5.94-2.37.94s-1.65-.32-2.3-.92c-2.6-2.43-5.66-3.71-8.83-3.71-8.63,0-15.65,9.56-15.65,21.3s7.02,21.3,15.65,21.3c3.17,0,6.22-1.28,8.83-3.71.65-.6,1.44-.92,2.3-.92s1.74.34,2.37.94c.68.64,1.06,1.51,1.06,2.47v39.9h39.9c.96,0,1.83.38,2.47,1.06.6.64.94,1.5.94,2.37s-.32,1.65-.92,2.3c-2.43,2.6-3.71,5.66-3.71,8.83,0,8.63,9.56,15.65,21.3,15.65s21.3-7.02,21.3-15.65c0-3.17-1.28-6.22-3.71-8.83-.6-.65-.92-1.44-.92-2.3s.34-1.74.94-2.37c.64-.68,1.51-1.06,2.47-1.06h39.9v-39.9c0-.96-.38-1.83-1.05-2.47-.64-.6-1.5-.94-2.37-.94s-1.65.32-2.3.92c-2.6,2.43-5.66,3.71-8.83,3.71-8.63,0-15.65-9.56-15.65-21.3s7.02-21.3,15.65-21.3Z"/>
    <path class="cls-1" d="M134.44,889.74c-3.17,0-6.22-1.28-8.83-3.71-.65-.6-1.44-.92-2.3-.92s-1.74.34-2.37.94c-.68.64-1.05,1.52-1.05,2.47v39.9h39.9c.96,0,1.83-.38,2.47-1.06.6-.64.94-1.5.94-2.37s-.32-1.65-.92-2.3c-2.43-2.6-3.71-5.66-3.71-8.83,0-8.63,9.56-15.65,21.3-15.65s21.3,7.02,21.3,15.65c0,3.17-1.28,6.22-3.71,8.83-.6.65-.92,1.44-.92,2.3s.34,1.74.94,2.37c.64.68,1.51,1.06,2.47,1.06h39.9v-39.9c0-.96.38-1.83,1.06-2.47.64-.6,1.5-.94,2.37-.94s1.65.32,2.3.92c2.6,2.43,5.66,3.71,8.83,3.71,8.63,0,15.65-9.56,15.65-21.3s-7.02-21.3-15.65-21.3c-3.17,0-6.22,1.28-8.83,3.71-.65.6-1.44.92-2.3.92s-1.74-.34-2.37-.94c-.68-.64-1.06-1.51-1.06-2.47v-39.9h-39.9c-.96,0-1.83-.38-2.47-1.06-.6-.64-.94-1.5-.94-2.37s.32-1.65.92-2.3c2.43-2.6,3.71-5.66,3.71-8.83,0-8.63-9.56-15.65-21.3-15.65s-21.3,7.02-21.3,15.65c0,3.17,1.28,6.22,3.71,8.83.6.65.92,1.44.92,2.3s-.34,1.74-.94,2.37c-.64.68-1.51,1.06-2.47,1.06h-39.9v39.9c0,.96.38,1.83,1.05,2.47.64.6,1.5.94,2.37.94s1.65-.32,2.3-.92c2.6-2.43,5.66-3.71,8.83-3.71,8.63,0,15.65,9.56,15.65,21.3s-7.02,21.3-15.65,21.3Z"/>
    <path class="cls-1" d="M465.27,368.4c3.17,0,6.22,1.28,8.83,3.71.65.6,1.44.92,2.3.92s1.74-.34,2.37-.94c.68-.64,1.05-1.52,1.05-2.47v-39.9h-39.9c-.96,0-1.83.38-2.47,1.06-.6.64-.94,1.5-.94,2.37s.32,1.65.92,2.3c2.43,2.6,3.71,5.66,3.71,8.83,0,8.63-9.56,15.65-21.3,15.65s-21.3-7.02-21.3-15.65c0-3.17,1.28-6.22,3.71-8.83.6-.65.92-1.44.92-2.3s-.34-1.74-.94-2.37c-.64-.68-1.51-1.06-2.47-1.06h-39.9v39.9c0,.96-.38,1.83-1.06,2.47-.64.6-1.5.94-2.37.94s-1.65-.32-2.3-.92c-2.6-2.43-5.66-3.71-8.83-3.71-8.63,0-15.65,9.56-15.65,21.3s7.02,21.3,15.65,21.3c3.17,0,6.22-1.28,8.83-3.71.65-.6,1.44-.92,2.3-.92s1.74.34,2.37.94c.68.64,1.06,1.51,1.06,2.47v39.9h39.9c.96,0,1.83.38,2.47,1.06.6.64.94,1.5.94,2.37s-.32,1.65-.92,2.3c-2.43,2.6-3.71,5.66-3.71,8.83,0,8.63,9.56,15.65,21.3,15.65s21.3-7.02,21.3-15.65c0-3.17-1.28-6.22-3.71-8.83-.6-.65-.92-1.44-.92-2.3s.34-1.74.94-2.37c.64-.68,1.51-1.06,2.47-1.06h39.9v-39.9c0-.96-.38-1.83-1.05-2.47-.64-.6-1.5-.94-2.37-.94s-1.65.32-2.3.92c-2.6,2.43-5.66,3.71-8.83,3.71-8.63,0-15.65-9.56-15.65-21.3s7.02-21.3,15.65-21.3Z"/>
    <path class="cls-1" d="M345.31,368.4c3.17,0,6.22,1.28,8.83,3.71.65.6,1.44.92,2.3.92s1.74-.34,2.37-.94c.68-.64,1.05-1.52,1.05-2.47v-39.9h-39.9c-.96,0-1.83.38-2.47,1.06-.6.64-.94,1.5-.94,2.37s.32,1.65.92,2.3c2.43,2.6,3.71,5.66,3.71,8.83,0,8.63-9.56,15.65-21.3,15.65s-21.3-7.02-21.3-15.65c0-3.17,1.28-6.22,3.71-8.83.6-.65.92-1.44.92-2.3s-.34-1.74-.94-2.37c-.64-.68-1.51-1.06-2.47-1.06h-39.9v39.9c0,.96-.38,1.83-1.06,2.47-.64.6-1.5.94-2.37.94s-1.65-.32-2.3-.92c-2.6-2.43-5.66-3.71-8.83-3.71-8.63,0-15.65,9.56-15.65,21.3s7.02,21.3,15.65,21.3c3.17,0,6.22-1.28,8.83-3.71.65-.6,1.44-.92,2.3-.92s1.74.34,2.37.94c.68.64,1.06,1.51,1.06,2.47v39.9h39.9c.96,0,1.83.38,2.47,1.06.6.64.94,1.5.94,2.37s-.32,1.65-.92,2.3c-2.43,2.6-3.71,5.66-3.71,8.83,0,8.63,9.56,15.65,21.3,15.65s21.3-7.02,21.3-15.65c0-3.17-1.28-6.22-3.71-8.83-.6-.65-.92-1.44-.92-2.3s.34-1.74.94-2.37c.64-.68,1.51-1.06,2.47-1.06h39.9v-39.9c0-.96-.38-1.83-1.05-2.47-.64-.6-1.5-.94-2.37-.94s-1.65.32-2.3.92c-2.6,2.43-5.66,3.71-8.83,3.71-8.63,0-15.65-9.56-15.65-21.3s7.02-21.3,15.65-21.3Z"/>
    <path class="cls-1" d="M705.34,488.37c3.17,0,6.22,1.28,8.83,3.71.65.6,1.44.92,2.3.92s1.74-.34,2.37-.94c.68-.64,1.05-1.52,1.05-2.47v-39.9h-39.9c-.96,0-1.83.38-2.47,1.06-.6.64-.94,1.5-.94,2.37s.32,1.65.92,2.3c2.43,2.6,3.71,5.66,3.71,8.83,0,8.63-9.56,15.65-21.3,15.65s-21.3-7.02-21.3-15.65c0-3.17,1.28-6.22,3.71-8.83.6-.65.92-1.44.92-2.3s-.34-1.74-.94-2.37c-.64-.68-1.51-1.06-2.47-1.06h-39.9v39.9c0,.96-.38,1.83-1.06,2.47-.64.6-1.5.94-2.37.94s-1.65-.32-2.3-.92c-2.6-2.43-5.66-3.71-8.83-3.71-8.63,0-15.65,9.56-15.65,21.3s7.02,21.3,15.65,21.3c3.17,0,6.22-1.28,8.83-3.71.65-.6,1.44-.92,2.3-.92s1.74.34,2.37.94c.68.64,1.06,1.51,1.06,2.47v39.9h39.9c.96,0,1.83.38,2.47,1.06.6.64.94,1.5.94,2.37s-.32,1.65-.92,2.3c-2.43,2.6-3.71,5.66-3.71,8.83,0,8.63,9.56,15.65,21.3,15.65s21.3-7.02,21.3-15.65c0-3.17-1.28-6.22-3.71-8.83-.6-.65-.92-1.44-.92-2.3s.34-1.74.94-2.37c.64-.68,1.51-1.06,2.47-1.06h39.9v-39.9c0-.96-.38-1.83-1.05-2.47-.64-.6-1.5-.94-2.37-.94s-1.65.32-2.3.92c-2.6,2.43-5.66,3.71-8.83,3.71-8.63,0-15.65-9.56-15.65-21.3s7.02-21.3,15.65-21.3Z"/>
    <path class="cls-1" d="M825.47,488.37c3.17,0,6.22,1.28,8.83,3.71.65.6,1.44.92,2.3.92s1.74-.34,2.37-.94c.68-.64,1.05-1.52,1.05-2.47v-39.9h-39.9c-.96,0-1.83.38-2.47,1.06-.6.64-.94,1.5-.94,2.37s.32,1.65.92,2.3c2.43,2.6,3.71,5.66,3.71,8.83,0,8.63-9.56,15.65-21.3,15.65s-21.3-7.02-21.3-15.65c0-3.17,1.28-6.22,3.71-8.83.6-.65.92-1.44.92-2.3s-.34-1.74-.94-2.37c-.64-.68-1.51-1.06-2.47-1.06h-39.9v39.9c0,.96-.38,1.83-1.06,2.47-.64.6-1.5.94-2.37.94s-1.65-.32-2.3-.92c-2.6-2.43-5.66-3.71-8.83-3.71-8.63,0-15.65,9.56-15.65,21.3s7.02,21.3,15.65,21.3c3.17,0,6.22-1.28,8.83-3.71.65-.6,1.44-.92,2.3-.92s1.74.34,2.37.94c.68.64,1.06,1.51,1.06,2.47v39.9h39.9c.96,0,1.83.38,2.47,1.06.6.64.94,1.5.94,2.37s-.32,1.65-.92,2.3c-2.43,2.6-3.71,5.66-3.71,8.83,0,8.63,9.56,15.65,21.3,15.65s21.3-7.02,21.3-15.65c0-3.17-1.28-6.22-3.71-8.83-.6-.65-.92-1.44-.92-2.3s.34-1.74.94-2.37c.64-.68,1.51-1.06,2.47-1.06h39.9v-39.9c0-.96-.38-1.83-1.05-2.47-.64-.6-1.5-.94-2.37-.94s-1.65.32-2.3.92c-2.6,2.43-5.66,3.71-8.83,3.71-8.63,0-15.65-9.56-15.65-21.3s7.02-21.3,15.65-21.3Z"/>
    <path class="cls-1" d="M225.3,368.4c3.17,0,6.22,1.28,8.83,3.71.65.6,1.44.92,2.3.92s1.74-.34,2.37-.94c.68-.64,1.05-1.52,1.05-2.47v-39.9h-39.9c-.96,0-1.83.38-2.47,1.06-.6.64-.94,1.5-.94,2.37s.32,1.65.92,2.3c2.43,2.6,3.71,5.66,3.71,8.83,0,8.63-9.56,15.65-21.3,15.65s-21.3-7.02-21.3-15.65c0-3.17,1.28-6.22,3.71-8.83.6-.65.92-1.44.92-2.3s-.34-1.74-.94-2.37c-.64-.68-1.51-1.06-2.47-1.06h-39.9v39.9c0,.96-.38,1.83-1.06,2.47-.64.6-1.5.94-2.37.94s-1.65-.32-2.3-.92c-2.6-2.43-5.66-3.71-8.83-3.71-8.63,0-15.65,9.56-15.65,21.3s7.02,21.3,15.65,21.3c3.17,0,6.22-1.28,8.83-3.71.65-.6,1.44-.92,2.3-.92s1.74.34,2.37.94c.68.64,1.06,1.51,1.06,2.47v39.9h39.9c.96,0,1.83.38,2.47,1.06.6.64.94,1.5.94,2.37s-.32,1.65-.92,2.3c-2.43,2.6-3.71,5.66-3.71,8.83,0,8.63,9.56,15.65,21.3,15.65s21.3-7.02,21.3-15.65c0-3.17-1.28-6.22-3.71-8.83-.6-.65-.92-1.44-.92-2.3s.34-1.74.94-2.37c.64-.68,1.51-1.06,2.47-1.06h39.9v-39.9c0-.96-.38-1.83-1.05-2.47-.64-.6-1.5-.94-2.37-.94s-1.65.32-2.3.92c-2.6,2.43-5.66,3.71-8.83,3.71-8.63,0-15.65-9.56-15.65-21.3s7.02-21.3,15.65-21.3Z"/>
    <path class="cls-1" d="M105.33,368.4c3.17,0,6.22,1.28,8.83,3.71.65.6,1.44.92,2.3.92s1.74-.34,2.37-.94c.68-.64,1.05-1.52,1.05-2.47v-39.9h-39.9c-.96,0-1.83.38-2.47,1.06-.6.64-.94,1.5-.94,2.37s.32,1.65.92,2.3c2.43,2.6,3.71,5.66,3.71,8.83,0,8.63-9.56,15.65-21.3,15.65s-21.3-7.02-21.3-15.65c0-3.17,1.28-6.22,3.71-8.83.6-.65.92-1.44.92-2.3s-.34-1.74-.94-2.37c-.64-.68-1.51-1.06-2.47-1.06H-.08v119.97h39.9c.96,0,1.83.38,2.47,1.06.6.64.94,1.5.94,2.37s-.32,1.65-.92,2.3c-2.43,2.6-3.71,5.66-3.71,8.83,0,8.63,9.56,15.65,21.3,15.65s21.3-7.02,21.3-15.65c0-3.17-1.28-6.22-3.71-8.83-.6-.65-.92-1.44-.92-2.3s.34-1.74.94-2.37c.64-.68,1.51-1.06,2.47-1.06h39.9v-39.9c0-.96-.38-1.83-1.05-2.47-.64-.6-1.5-.94-2.37-.94s-1.65.32-2.3.92c-2.6,2.43-5.66,3.71-8.83,3.71-8.63,0-15.65-9.56-15.65-21.3s7.02-21.3,15.65-21.3Z"/>
    <path class="cls-1" d="M105.33,488.36c3.17,0,6.22,1.28,8.83,3.71.65.6,1.44.92,2.3.92s1.74-.34,2.37-.94c.68-.64,1.05-1.52,1.05-2.47v-39.9h-39.9c-.96,0-1.83.38-2.47,1.06-.6.64-.94,1.5-.94,2.37s.32,1.65.92,2.3c2.43,2.6,3.71,5.66,3.71,8.83,0,8.63-9.56,15.65-21.3,15.65s-21.3-7.02-21.3-15.65c0-3.17,1.28-6.22,3.71-8.83.6-.65.92-1.44.92-2.3s-.34-1.74-.94-2.37c-.64-.68-1.51-1.06-2.47-1.06H-.08v119.97h39.9c.96,0,1.83.38,2.47,1.06.6.64.94,1.5.94,2.37s-.32,1.65-.92,2.3c-2.43,2.6-3.71,5.66-3.71,8.83,0,8.63,9.56,15.65,21.3,15.65s21.3-7.02,21.3-15.65c0-3.17-1.28-6.22-3.71-8.83-.6-.65-.92-1.44-.92-2.3s.34-1.74.94-2.37c.64-.68,1.51-1.06,2.47-1.06h39.9v-39.9c0-.96-.38-1.83-1.05-2.47-.64-.6-1.5-.94-2.37-.94s-1.65.32-2.3.92c-2.6,2.43-5.66,3.71-8.83,3.71-8.63,0-15.65-9.56-15.65-21.3s7.02-21.3,15.65-21.3Z"/>
    <path class="cls-1" d="M105.33,608.33c3.17,0,6.22,1.28,8.83,3.71.65.6,1.44.92,2.3.92s1.74-.34,2.37-.94c.68-.64,1.05-1.52,1.05-2.47v-39.9h-39.9c-.96,0-1.83.38-2.47,1.06-.6.64-.94,1.5-.94,2.37s.32,1.65.92,2.3c2.43,2.6,3.71,5.66,3.71,8.83,0,8.63-9.56,15.65-21.3,15.65s-21.3-7.02-21.3-15.65c0-3.17,1.28-6.22,3.71-8.83.6-.65.92-1.44.92-2.3s-.34-1.74-.94-2.37c-.64-.68-1.51-1.06-2.47-1.06H-.08v119.97h39.9c.96,0,1.83.38,2.47,1.06.6.64.94,1.5.94,2.37s-.32,1.65-.92,2.3c-2.43,2.6-3.71,5.66-3.71,8.83,0,8.63,9.56,15.65,21.3,15.65s21.3-7.02,21.3-15.65c0-3.17-1.28-6.22-3.71-8.83-.6-.65-.92-1.44-.92-2.3s.34-1.74.94-2.37c.64-.68,1.51-1.06,2.47-1.06h39.9v-39.9c0-.96-.38-1.83-1.05-2.47-.64-.6-1.5-.94-2.37-.94s-1.65.32-2.3.92c-2.6,2.43-5.66,3.71-8.83,3.71-8.63,0-15.65-9.56-15.65-21.3s7.02-21.3,15.65-21.3Z"/>
    <path class="cls-1" d="M39.85,329.71c.96,0,1.83.38,2.47,1.06.6.64.94,1.5.94,2.37s-.32,1.65-.92,2.3c-2.43,2.6-3.71,5.66-3.71,8.83,0,8.63,9.56,15.65,21.3,15.65s21.3-7.02,21.3-15.65c0-3.17-1.28-6.22-3.71-8.83-.6-.65-.92-1.44-.92-2.3s.34-1.74.94-2.37c.64-.68,1.51-1.06,2.47-1.06h39.9v39.9c0,.96-.38,1.83-1.06,2.47-.64.6-1.5.94-2.37.94s-1.65-.32-2.3-.92c-2.6-2.43-5.66-3.71-8.83-3.71-8.63,0-15.65,9.56-15.65,21.3s7.02,21.3,15.65,21.3c3.17,0,6.22-1.28,8.83-3.71.65-.6,1.44-.92,2.3-.92s1.74.34,2.37.94c.68.64,1.06,1.51,1.06,2.47v39.9h39.9c.96,0,1.83-.38,2.47-1.06.6-.64.94-1.5.94-2.37s-.32-1.65-.92-2.3c-2.43-2.6-3.71-5.66-3.71-8.83,0-8.63,9.56-15.65,21.3-15.65s21.3,7.02,21.3,15.65c0,3.17-1.28,6.22-3.71,8.83-.6.65-.92,1.44-.92,2.3s.34,1.74.94,2.37c.64.68,1.51,1.06,2.47,1.06h39.9v-39.9c0-.96-.38-1.83-1.05-2.47-.64-.6-1.5-.94-2.37-.94s-1.65.32-2.3.92c-2.6,2.43-5.66,3.71-8.83,3.71-8.63,0-15.65-9.56-15.65-21.3s7.02-21.3,15.65-21.3c3.17,0,6.22,1.28,8.83,3.71.65.6,1.44.92,2.3.92s1.74-.34,2.37-.94c.68-.64,1.05-1.51,1.05-2.47v-39.9h39.9c.96,0,1.83.38,2.47,1.06.6.64.94,1.5.94,2.37s-.32,1.65-.92,2.3c-2.43,2.6-3.71,5.66-3.71,8.83,0,8.63,9.56,15.65,21.3,15.65s21.3-7.02,21.3-15.65c0-3.17-1.28-6.22-3.71-8.83-.6-.65-.92-1.44-.92-2.3s.34-1.74.94-2.37c.64-.68,1.51-1.06,2.47-1.06h79.8c.96,0,1.83.38,2.47,1.06.6.64.94,1.5.94,2.37s-.32,1.65-.92,2.3c-2.43,2.6-3.71,5.66-3.71,8.83,0,8.63,9.56,15.65,21.3,15.65s21.3-7.02,21.3-15.65c0-3.17-1.28-6.22-3.71-8.83-.6-.65-.92-1.44-.92-2.3s.34-1.74.94-2.37c.64-.68,1.51-1.06,2.47-1.06h39.9v39.9c0,.96-.38,1.83-1.06,2.47-.64.6-1.5.94-2.37.94s-1.65-.32-2.3-.92c-2.6-2.43-5.66-3.71-8.83-3.71-8.63,0-15.65,9.56-15.65,21.3s7.02,21.3,15.65,21.3c3.17,0,6.22-1.28,8.83-3.71.65-.6,1.44-.92,2.3-.92s1.74.34,2.37.94c.68.64,1.06,1.51,1.06,2.47v39.9h39.9c.96,0,1.83-.38,2.47-1.06.6-.64.94-1.5.94-2.37s-.32-1.65-.92-2.3c-2.43-2.6-3.71-5.66-3.71-8.83,0-8.63,9.56-15.65,21.3-15.65s21.3,7.02,21.3,15.65c0,3.17-1.28,6.22-3.71,8.83-.6.65-.92,1.44-.92,2.3s.34,1.74.94,2.37c.64.68,1.51,1.06,2.47,1.06h39.9v-39.9c0-.96-.38-1.83-1.05-2.47-.64-.6-1.5-.94-2.37-.94s-1.65.32-2.3.92c-2.6,2.43-5.66,3.71-8.83,3.71-8.63,0-15.65-9.56-15.65-21.3s7.02-21.3,15.65-21.3c3.17,0,6.22,1.28,8.83,3.71.65.6,1.44.92,2.3.92s1.74-.34,2.37-.94c.68-.64,1.05-1.51,1.05-2.47v-39.9h39.9c.96,0,1.83.38,2.47,1.06.6.64.94,1.5.94,2.37s-.32,1.65-.92,2.3c-2.43,2.6-3.71,5.66-3.71,8.83,0,8.63,9.56,15.65,21.3,15.65s21.3-7.02,21.3-15.65c0-3.17-1.28-6.22-3.71-8.83-.6-.65-.92-1.44-.92-2.3s.34-1.74.94-2.37c.64-.68,1.51-1.06,2.47-1.06h79.8c.96,0,1.83.38,2.47,1.06.6.64.94,1.5.94,2.37s-.32,1.65-.92,2.3c-2.43,2.6-3.71,5.66-3.71,8.83,0,8.63,9.56,15.65,21.3,15.65s21.3-7.02,21.3-15.65c0-3.17-1.28-6.22-3.71-8.83-.6-.65-.92-1.44-.92-2.3s.34-1.74.94-2.37c.64-.68,1.51-1.06,2.47-1.06h39.9v-39.9c0-.96.38-1.83,1.06-2.47.64-.6,1.5-.94,2.37-.94s1.65.32,2.3.92c2.6,2.43,5.66,3.71,8.83,3.71,8.63,0,15.65-9.56,15.65-21.3s-7.02-21.3-15.65-21.3c-3.17,0-6.22,1.28-8.83,3.71-.65.6-1.44.92-2.3.92s-1.74-.34-2.37-.94c-.68-.64-1.06-1.51-1.06-2.47v-39.9h39.9c.96,0,1.83-.38,2.47-1.06.6-.64.94-1.5.94-2.37s-.32-1.65-.92-2.3c-2.43-2.6-3.71-5.66-3.71-8.83,0-8.63,9.56-15.65,21.3-15.65s21.3,7.02,21.3,15.65c0,3.17-1.28,6.22-3.71,8.83-.6.65-.92,1.44-.92,2.3s.34,1.74.94,2.37c.64.68,1.51,1.06,2.47,1.06h39.9v-39.9c0-.96-.38-1.83-1.05-2.47-.64-.6-1.5-.94-2.37-.94s-1.65.32-2.3.92c-2.6,2.43-5.66,3.71-8.83,3.71-8.63,0-15.65-9.56-15.65-21.3s7.02-21.3,15.65-21.3c3.17,0,6.22,1.28,8.83,3.71.65.6,1.44.92,2.3.92s1.74-.34,2.37-.94c.68-.64,1.05-1.51,1.05-2.47v-39.9h39.9c.96,0,1.83.38,2.47,1.06.6.64.94,1.5.94,2.37s-.32,1.65-.92,2.3c-2.43,2.6-3.71,5.66-3.71,8.83h0c0,8.63,9.56,15.65,21.3,15.65s21.3-7.02,21.3-15.65c0-3.17-1.28-6.22-3.71-8.83-.6-.65-.92-1.44-.92-2.3s.34-1.74.94-2.37c.64-.68,1.51-1.06,2.47-1.06h39.9v39.9c0,.96-.38,1.83-1.06,2.47-.64.6-1.5.94-2.37.94s-1.65-.32-2.3-.92c-2.6-2.43-5.66-3.71-8.83-3.71-8.63,0-15.65,9.56-15.65,21.3s7.02,21.3,15.65,21.3c3.17,0,6.22-1.28,8.83-3.71.65-.6,1.44-.92,2.3-.92s1.74.34,2.37.94c.68.64,1.06,1.51,1.06,2.47v39.9h0V0H0v329.71h39.85Z"/>
    <path class="cls-1" d="M1037.31,210.79c-.6.64-.94,1.5-.94,2.37s.32,1.65.92,2.3c2.43,2.6,3.71,5.66,3.71,8.83,0,8.63-9.56,15.65-21.3,15.65s-21.3-7.02-21.3-15.65c0-3.17,1.28-6.22,3.71-8.83.6-.65.92-1.44.92-2.3s-.34-1.74-.94-2.37c-.64-.68-1.52-1.06-2.47-1.06h-39.9v39.9c0,.96.38,1.83,1.05,2.47.64.6,1.5.94,2.37.94s1.65-.32,2.3-.92c2.6-2.43,5.66-3.71,8.83-3.71,8.63,0,15.65,9.56,15.65,21.3s-7.02,21.3-15.65,21.3c-3.17,0-6.22-1.28-8.83-3.71-.65-.6-1.44-.92-2.3-.92s-1.74.34-2.37.94c-.68.64-1.05,1.51-1.05,2.47v39.9h39.9c.96,0,1.83.38,2.47,1.06.6.64.94,1.5.94,2.37s-.32,1.65-.92,2.3c-2.43,2.6-3.71,5.66-3.71,8.83h0c0,8.63,9.56,15.65,21.3,15.65s21.3-7.02,21.3-15.65c0-3.17-1.28-6.22-3.71-8.83-.6-.65-.92-1.44-.92-2.3s.34-1.74.94-2.37c.64-.68,1.51-1.06,2.47-1.06h39.9v-39.9s0,0,0-.01v-40.14s0,0,0-.01v-39.9h-39.9c-.96,0-1.83.38-2.47,1.06Z"/>
  </g>
  <path class="cls-1" d="M465.28,607.72c3.17,0,6.22,1.28,8.83,3.71.65.6,1.44.92,2.3.92s1.74-.34,2.37-.94c.68-.64,1.05-1.52,1.05-2.47v-39.9h-39.9c-.96,0-1.83.38-2.47,1.06-.6.64-.94,1.5-.94,2.37s.32,1.65.92,2.3c2.43,2.6,3.71,5.66,3.71,8.83,0,8.63-9.56,15.65-21.3,15.65s-21.3-7.02-21.3-15.65c0-3.17,1.28-6.22,3.71-8.83.6-.65.92-1.44.92-2.3s-.34-1.74-.94-2.37c-.64-.68-1.51-1.06-2.47-1.06h-39.9v39.9c0,.96-.38,1.83-1.06,2.47-.64.6-1.5.94-2.37.94s-1.65-.32-2.3-.92c-2.6-2.43-5.66-3.71-8.83-3.71-8.63,0-15.65,9.56-15.65,21.3s7.02,21.3,15.65,21.3c3.17,0,6.22-1.28,8.83-3.71.65-.6,1.44-.92,2.3-.92s1.74.34,2.37.94c.68.64,1.06,1.51,1.06,2.47v39.9h39.9c.96,0,1.83.38,2.47,1.06.6.64.94,1.5.94,2.37s-.32,1.65-.92,2.3c-2.43,2.6-3.71,5.66-3.71,8.83,0,8.63,9.56,15.65,21.3,15.65s21.3-7.02,21.3-15.65c0-3.17-1.28-6.22-3.71-8.83-.6-.65-.92-1.44-.92-2.3s.34-1.74.94-2.37c.64-.68,1.51-1.06,2.47-1.06h39.9v-39.9c0-.96-.38-1.83-1.05-2.47-.64-.6-1.5-.94-2.37-.94s-1.65.32-2.3.92c-2.6,2.43-5.66,3.71-8.83,3.71-8.63,0-15.65-9.56-15.65-21.3s7.02-21.3,15.65-21.3Z"/>
  <path class="cls-1" d="M224.95,607.72c3.17,0,6.22,1.28,8.83,3.71.65.6,1.44.92,2.3.92s1.74-.34,2.37-.94c.68-.64,1.05-1.52,1.05-2.47v-39.9h-39.9c-.96,0-1.83.38-2.47,1.06-.6.64-.94,1.5-.94,2.37s.32,1.65.92,2.3c2.43,2.6,3.71,5.66,3.71,8.83,0,8.63-9.56,15.65-21.3,15.65s-21.3-7.02-21.3-15.65c0-3.17,1.28-6.22,3.71-8.83.6-.65.92-1.44.92-2.3s-.34-1.74-.94-2.37c-.64-.68-1.51-1.06-2.47-1.06h-39.9v39.9c0,.96-.38,1.83-1.06,2.47-.64.6-1.5.94-2.37.94s-1.65-.32-2.3-.92c-2.6-2.43-5.66-3.71-8.83-3.71-8.63,0-15.65,9.56-15.65,21.3s7.02,21.3,15.65,21.3c3.17,0,6.22-1.28,8.83-3.71.65-.6,1.44-.92,2.3-.92s1.74.34,2.37.94c.68.64,1.06,1.51,1.06,2.47v39.9h39.9c.96,0,1.83.38,2.47,1.06.6.64.94,1.5.94,2.37s-.32,1.65-.92,2.3c-2.43,2.6-3.71,5.66-3.71,8.83,0,8.63,9.56,15.65,21.3,15.65s21.3-7.02,21.3-15.65c0-3.17-1.28-6.22-3.71-8.83-.6-.65-.92-1.44-.92-2.3s.34-1.74.94-2.37c.64-.68,1.51-1.06,2.47-1.06h39.9v-39.9c0-.96-.38-1.83-1.05-2.47-.64-.6-1.5-.94-2.37-.94s-1.65.32-2.3.92c-2.6,2.43-5.66,3.71-8.83,3.71-8.63,0-15.65-9.56-15.65-21.3s7.02-21.3,15.65-21.3Z"/>
  <path class="cls-1" d="M345.11,727.89c3.17,0,6.22,1.28,8.83,3.71.65.6,1.44.92,2.3.92s1.74-.34,2.37-.94c.68-.64,1.05-1.52,1.05-2.47v-39.9h-39.9c-.96,0-1.83.38-2.47,1.06-.6.64-.94,1.5-.94,2.37s.32,1.65.92,2.3c2.43,2.6,3.71,5.66,3.71,8.83,0,8.63-9.56,15.65-21.3,15.65s-21.3-7.02-21.3-15.65c0-3.17,1.28-6.22,3.71-8.83.6-.65.92-1.44.92-2.3s-.34-1.74-.94-2.37c-.64-.68-1.51-1.06-2.47-1.06h-39.9v39.9c0,.96-.38,1.83-1.06,2.47-.64.6-1.5.94-2.37.94s-1.65-.32-2.3-.92c-2.6-2.43-5.66-3.71-8.83-3.71-8.63,0-15.65,9.56-15.65,21.3s7.02,21.3,15.65,21.3c3.17,0,6.22-1.28,8.83-3.71.65-.6,1.44-.92,2.3-.92s1.74.34,2.37.94c.68.64,1.06,1.51,1.06,2.47v39.9h39.9c.96,0,1.83.38,2.47,1.06.6.64.94,1.5.94,2.37s-.32,1.65-.92,2.3c-2.43,2.6-3.71,5.66-3.71,8.83,0,8.63,9.56,15.65,21.3,15.65s21.3-7.02,21.3-15.65c0-3.17-1.28-6.22-3.71-8.83-.6-.65-.92-1.44-.92-2.3s.34-1.74.94-2.37c.64-.68,1.51-1.06,2.47-1.06h39.9v-39.9c0-.96-.38-1.83-1.05-2.47-.64-.6-1.5-.94-2.37-.94s-1.65.32-2.3.92c-2.6,2.43-5.66,3.71-8.83,3.71-8.63,0-15.65-9.56-15.65-21.3s7.02-21.3,15.65-21.3Z"/>
  <path class="cls-1" d="M705.34,727.89c3.17,0,6.22,1.28,8.83,3.71.65.6,1.44.92,2.3.92s1.74-.34,2.37-.94c.68-.64,1.05-1.52,1.05-2.47v-39.9h-39.9c-.96,0-1.83.38-2.47,1.06-.6.64-.94,1.5-.94,2.37s.32,1.65.92,2.3c2.43,2.6,3.71,5.66,3.71,8.83,0,8.63-9.56,15.65-21.3,15.65s-21.3-7.02-21.3-15.65c0-3.17,1.28-6.22,3.71-8.83.6-.65.92-1.44.92-2.3s-.34-1.74-.94-2.37c-.64-.68-1.51-1.06-2.47-1.06h-39.9v39.9c0,.96-.38,1.83-1.06,2.47-.64.6-1.5.94-2.37.94s-1.65-.32-2.3-.92c-2.6-2.43-5.66-3.71-8.83-3.71-8.63,0-15.65,9.56-15.65,21.3s7.02,21.3,15.65,21.3c3.17,0,6.22-1.28,8.83-3.71.65-.6,1.44-.92,2.3-.92s1.74.34,2.37.94c.68.64,1.06,1.51,1.06,2.47v39.9h39.9c.96,0,1.83.38,2.47,1.06.6.64.94,1.5.94,2.37s-.32,1.65-.92,2.3c-2.43,2.6-3.71,5.66-3.71,8.83,0,8.63,9.56,15.65,21.3,15.65s21.3-7.02,21.3-15.65c0-3.17-1.28-6.22-3.71-8.83-.6-.65-.92-1.44-.92-2.3s.34-1.74.94-2.37c.64-.68,1.51-1.06,2.47-1.06h39.9v-39.9c0-.96-.38-1.83-1.05-2.47-.64-.6-1.5-.94-2.37-.94s-1.65.32-2.3.92c-2.6,2.43-5.66,3.71-8.83,3.71-8.63,0-15.65-9.56-15.65-21.3s7.02-21.3,15.65-21.3Z"/>
  <path class="cls-1" d="M921.1,794.62c0,3.17-1.28,6.22-3.71,8.83-.6.65-.92,1.44-.92,2.3s.34,1.74.94,2.37c.64.68,1.52,1.05,2.47,1.05h39.9s0-39.9,0-39.9c0-.96-.38-1.83-1.06-2.47-.64-.6-1.5-.94-2.37-.94s-1.65.32-2.3.92c-2.6,2.43-5.66,3.71-8.83,3.71-8.63,0-15.65-9.56-15.65-21.3s7.02-21.3,15.65-21.3c3.17,0,6.22,1.28,8.83,3.71.65.6,1.44.92,2.3.92s1.74-.34,2.37-.94c.68-.64,1.06-1.51,1.06-2.47v-39.9s-39.9,0-39.9,0c-.96,0-1.83-.38-2.47-1.06-.6-.64-.94-1.5-.94-2.37,0-.86.32-1.65.92-2.3,2.43-2.6,3.71-5.66,3.71-8.83,0-8.63-9.56-15.65-21.3-15.65s-21.3,7.02-21.3,15.65c0,3.17,1.28,6.22,3.71,8.83.6.65.92,1.44.92,2.3,0,.87-.34,1.74-.94,2.37-.64.68-1.51,1.06-2.47,1.06h-39.9s0,39.9,0,39.9c0,.96-.38,1.83-1.06,2.47-.64.6-1.5.94-2.37.94s-1.65-.32-2.3-.92c-2.6-2.43-5.66-3.71-8.83-3.71-8.63,0-15.65,9.56-15.65,21.3s7.02,21.3,15.65,21.3c3.17,0,6.22-1.28,8.83-3.71.65-.6,1.44-.92,2.3-.92s1.74.34,2.37.94c.68.64,1.06,1.51,1.06,2.47v39.9s39.9,0,39.9,0c.96,0,1.83-.38,2.47-1.05.6-.64.94-1.5.94-2.37s-.32-1.65-.92-2.3c-2.43-2.6-3.71-5.66-3.71-8.83,0-8.63,9.56-15.65,21.3-15.65s21.3,7.02,21.3,15.65Z"/>
  <path class="cls-1" d="M1065.36,607.72c3.17,0,6.22,1.28,8.83,3.71.65.6,1.44.92,2.3.92s1.74-.34,2.37-.94c.68-.64,1.05-1.52,1.05-2.47v-39.9h-39.9c-.96,0-1.83.38-2.47,1.06-.6.64-.94,1.5-.94,2.37s.32,1.65.92,2.3c2.43,2.6,3.71,5.66,3.71,8.83,0,8.63-9.56,15.65-21.3,15.65s-21.3-7.02-21.3-15.65c0-3.17,1.28-6.22,3.71-8.83.6-.65.92-1.44.92-2.3s-.34-1.74-.94-2.37c-.64-.68-1.51-1.06-2.47-1.06h-39.9v39.9c0,.96-.38,1.83-1.06,2.47-.64.6-1.5.94-2.37.94s-1.65-.32-2.3-.92c-2.6-2.43-5.66-3.71-8.83-3.71-8.63,0-15.65,9.56-15.65,21.3s7.02,21.3,15.65,21.3c3.17,0,6.22-1.28,8.83-3.71.65-.6,1.44-.92,2.3-.92s1.74.34,2.37.94c.68.64,1.06,1.51,1.06,2.47v39.9h39.9c.96,0,1.83.38,2.47,1.06.6.64.94,1.5.94,2.37s-.32,1.65-.92,2.3c-2.43,2.6-3.71,5.66-3.71,8.83,0,8.63,9.56,15.65,21.3,15.65s21.3-7.02,21.3-15.65c0-3.17-1.28-6.22-3.71-8.83-.6-.65-.92-1.44-.92-2.3s.34-1.74.94-2.37c.64-.68,1.51-1.06,2.47-1.06h39.9v-39.9c0-.96-.38-1.83-1.05-2.47-.64-.6-1.5-.94-2.37-.94s-1.65.32-2.3.92c-2.6,2.43-5.66,3.71-8.83,3.71-8.63,0-15.65-9.56-15.65-21.3s7.02-21.3,15.65-21.3Z"/>
  <path class="cls-1" d="M825.47,607.72c3.17,0,6.22,1.28,8.83,3.71.65.6,1.44.92,2.3.92s1.74-.34,2.37-.94c.68-.64,1.05-1.52,1.05-2.47v-39.9h-39.9c-.96,0-1.83.38-2.47,1.06-.6.64-.94,1.5-.94,2.37s.32,1.65.92,2.3c2.43,2.6,3.71,5.66,3.71,8.83,0,8.63-9.56,15.65-21.3,15.65s-21.3-7.02-21.3-15.65c0-3.17,1.28-6.22,3.71-8.83.6-.65.92-1.44.92-2.3s-.34-1.74-.94-2.37c-.64-.68-1.51-1.06-2.47-1.06h-39.9v39.9c0,.96-.38,1.83-1.06,2.47-.64.6-1.5.94-2.37.94s-1.65-.32-2.3-.92c-2.6-2.43-5.66-3.71-8.83-3.71-8.63,0-15.65,9.56-15.65,21.3s7.02,21.3,15.65,21.3c3.17,0,6.22-1.28,8.83-3.71.65-.6,1.44-.92,2.3-.92s1.74.34,2.37.94c.68.64,1.06,1.51,1.06,2.47v39.9h39.9c.96,0,1.83.38,2.47,1.06.6.64.94,1.5.94,2.37s-.32,1.65-.92,2.3c-2.43,2.6-3.71,5.66-3.71,8.83,0,8.63,9.56,15.65,21.3,15.65s21.3-7.02,21.3-15.65c0-3.17-1.28-6.22-3.71-8.83-.6-.65-.92-1.44-.92-2.3s.34-1.74.94-2.37c.64-.68,1.51-1.06,2.47-1.06h39.9v-39.9c0-.96-.38-1.83-1.05-2.47-.64-.6-1.5-.94-2.37-.94s-1.65.32-2.3.92c-2.6,2.43-5.66,3.71-8.83,3.71-8.63,0-15.65-9.56-15.65-21.3s7.02-21.3,15.65-21.3Z"/>
  <path class="cls-1" d="M1079.6,648.66c0-.96-.38-1.83-1.05-2.47-.64-.6-1.5-.94-2.37-.94s-1.65.32-2.3.92c-2.6,2.43-5.66,3.71-8.83,3.71-8.63,0-15.65-9.56-15.65-21.3s7.02-21.3,15.65-21.3c3.17,0,6.22,1.28,8.83,3.71.65.6,1.44.92,2.3.92s1.74-.34,2.37-.94c.68-.64,1.05-1.52,1.05-2.47"/>
</svg>