<svg width="8" height="22" viewBox="0 0 8 22" fill="none" xmlns="http://www.w3.org/2000/svg">
<path d="M2.11084 1.5791C2.11084 1.18164 2.29883 0.821777 2.6748 0.499512C3.05078 0.166504 3.4375 0 3.83496 0C4.25391 0 4.61914 0.182617 4.93066 0.547852C5.25293 0.913086 5.41406 1.2998 5.41406 1.70801C5.41406 2.08398 5.23682 2.44385 4.88232 2.7876C4.53857 3.13135 4.14648 3.30322 3.70605 3.30322C3.30859 3.30322 2.94336 3.12061 2.61035 2.75537C2.27734 2.39014 2.11084 1.99805 2.11084 1.5791ZM5.12402 17.3218C5.12402 18.6431 5.25293 19.4595 5.51074 19.771C5.7793 20.0718 6.43994 20.2598 7.49268 20.335C7.6001 20.4424 7.65381 20.6304 7.65381 20.8989C7.65381 21.1567 7.6001 21.3286 7.49268 21.4145C6.04248 21.3716 4.82324 21.3501 3.83496 21.3501C2.8252 21.3501 1.58984 21.3716 0.128906 21.4145C0.0429688 21.3286 0 21.1567 0 20.8989C0 20.6304 0.0429688 20.4424 0.128906 20.335C1.18164 20.249 1.84229 20.0557 2.11084 19.7549C2.37939 19.4541 2.51367 18.6431 2.51367 17.3218V10.8926C2.51367 9.96875 2.38477 9.38867 2.12695 9.15234C1.87988 8.90527 1.29443 8.73877 0.370605 8.65283C0.241699 8.27686 0.220215 7.96533 0.306152 7.71826C2.34717 7.44971 3.85107 7.13281 4.81787 6.76758C5.10791 6.76758 5.25293 6.84277 5.25293 6.99316C5.16699 8.40039 5.12402 9.65185 5.12402 10.7476V17.3218Z" fill="white"/>
</svg>
