<svg xmlns="http://www.w3.org/2000/svg" width="83" height="83" viewBox="0 0 83 83" fill="currentColor">
  <path d="M61.6212 8.65166C61.6212 10.4099 60.9109 12.0867 59.5718 13.5306C59.2341 13.8916 59.0595 14.3224 59.0595 14.7998C59.0595 15.2772 59.2458 15.7546 59.5835 16.1156C59.9328 16.4882 60.4219 16.6978 60.9458 16.6978H83V38.752C83 39.276 82.7904 39.765 82.4178 40.1143C82.0685 40.4404 81.591 40.6383 81.102 40.6383C80.6129 40.6383 80.1937 40.4637 79.8328 40.126C78.3889 38.7869 76.7005 38.0766 74.9538 38.0766C70.1797 38.0766 66.3022 43.3631 66.3022 49.8489C66.3022 56.3347 70.1797 61.6212 74.9538 61.6212C79.728 61.6212 78.3889 60.9109 79.8328 59.5718C80.1937 59.2341 80.6246 59.0595 81.102 59.0595C81.5794 59.0595 82.0568 59.2458 82.4178 59.5835C82.7904 59.9328 83 60.4219 83 60.9459V83H60.9458C60.4219 83 59.9328 82.7904 59.5835 82.4178C59.2574 82.0685 59.0595 81.591 59.0595 81.102C59.0595 80.6129 59.2341 80.1937 59.5718 79.8328C60.9109 78.3889 61.6212 76.7005 61.6212 74.9538C61.6212 70.1797 56.3347 66.3022 49.8489 66.3022C43.3631 66.3022 38.0766 70.1797 38.0766 74.9538C38.0766 79.728 38.7869 78.3889 40.126 79.8328C40.4637 80.1937 40.6383 80.6246 40.6383 81.102C40.6383 81.5794 40.452 82.0568 40.1143 82.4178C39.765 82.7904 39.276 83 38.752 83H16.6978V60.9459C16.6978 60.4219 16.4882 59.9328 16.1156 59.5835C15.7663 59.2574 15.2889 59.0595 14.7998 59.0595C14.3107 59.0595 13.8916 59.2341 13.5306 59.5718C12.0867 60.9109 10.3983 61.6212 8.65165 61.6212C3.87752 61.6212 0 56.3347 0 49.8489C0 43.3631 3.87752 38.0766 8.65165 38.0766C13.4258 38.0766 12.0867 38.7869 13.5306 40.126C13.8916 40.4637 14.3224 40.6383 14.7998 40.6383C15.2772 40.6383 15.7546 40.452 16.1156 40.1143C16.4882 39.765 16.6978 39.276 16.6978 38.752V16.6978H38.752C39.276 16.6978 39.765 16.4882 40.1143 16.1156C40.4404 15.7663 40.6383 15.2889 40.6383 14.7998C40.6383 14.3107 40.4637 13.8916 40.126 13.5306C38.7869 12.0867 38.0766 10.3983 38.0766 8.65166C38.0766 3.87753 43.3631 0 49.8489 0C56.3347 0 61.6212 3.87753 61.6212 8.65166Z" fill="currentColor"/>
</svg>