<svg width="476" height="73" viewBox="0 0 476 73" fill="none" xmlns="http://www.w3.org/2000/svg">
<path d="M468.426 19.1083C466.914 19.1083 465.46 19.7196 464.206 20.875C463.892 21.1602 463.51 21.3098 463.103 21.3098C462.693 21.3098 462.271 21.1464 461.958 20.8612C461.634 20.5489 461.456 20.1412 461.456 19.6794V0.640625H442.385C441.937 0.640625 441.515 0.817166 441.202 1.14324C440.915 1.45548 440.753 1.86324 440.753 2.28483C440.753 2.70642 440.904 3.07333 441.186 3.38557C442.347 4.63585 442.958 6.07651 442.958 7.59819C442.958 11.7159 438.397 15.059 432.776 15.059C427.155 15.059 422.595 11.7159 422.595 7.59819C422.595 6.08969 423.206 4.63585 424.363 3.38557C424.65 3.07333 424.8 2.69259 424.8 2.28483C424.8 1.87707 424.634 1.45614 424.352 1.14324C424.038 0.817166 423.629 0.640625 423.164 0.640625H404.094V19.6794C404.094 20.128 404.272 20.5489 404.6 20.8612C404.914 21.1464 405.32 21.3098 405.741 21.3098C406.163 21.3098 406.53 21.1602 406.844 20.875C408.098 19.7196 409.54 19.1083 411.064 19.1083C415.188 19.1083 418.538 23.6608 418.538 29.2732C418.538 34.8856 415.188 39.4381 411.064 39.4381C409.552 39.4381 408.098 38.8268 406.844 37.6714C406.53 37.3862 406.152 37.2366 405.741 37.2366C405.335 37.2366 404.913 37.4 404.6 37.6852C404.272 37.9975 404.094 38.4059 404.094 38.867V57.9064H423.164C423.617 57.9064 424.038 58.083 424.352 58.4091C424.634 58.7213 424.8 59.1291 424.8 59.5507C424.8 59.9722 424.65 60.3391 424.363 60.6514C423.206 61.9017 422.595 63.3423 422.595 64.864C422.595 68.9818 427.152 72.3248 432.776 72.3248C438.401 72.3248 442.958 68.9818 442.958 64.864C442.958 63.3562 442.347 61.9017 441.186 60.6514C440.904 60.3391 440.753 59.9584 440.753 59.5507C440.753 59.1429 440.916 58.7213 441.202 58.4091C441.515 58.083 441.921 57.9064 442.385 57.9064H461.456V38.867C461.456 38.4191 461.634 37.9975 461.958 37.6852C462.272 37.4 462.682 37.2366 463.103 37.2366C463.525 37.2366 463.892 37.3862 464.206 37.6714C465.46 38.8262 466.902 39.4381 468.426 39.4381C472.55 39.4381 475.9 34.8856 475.9 29.2732C475.9 23.6608 472.55 19.1083 468.426 19.1083ZM422.638 43.8141L422.635 43.855L422.607 43.8141H422.638L422.743 42.7266C422.909 42.2108 423.369 41.558 424.131 40.7701C424.893 39.9816 426.445 38.6095 428.788 36.6662L432.204 33.8257C432.761 33.3501 433.252 32.8745 433.658 32.3989C434.068 31.9095 434.425 31.393 434.706 30.8225C434.981 30.2521 435.198 29.654 435.333 29.0018C435.469 28.3628 435.538 27.6567 435.538 26.8952C435.538 26.0797 435.333 25.3735 434.926 24.7892C434.517 24.1911 433.998 23.892 433.375 23.892C432.64 23.892 431.917 24.1232 431.251 24.585C430.582 25.0474 430.203 25.5092 430.107 25.9578C430.053 26.243 430.053 26.5421 430.107 26.8682C430.149 27.2351 430.149 27.4933 430.122 27.6428C430.037 27.9959 429.874 28.3226 429.63 28.594C429.387 28.8661 429.1 29.0835 428.771 29.233C428.447 29.3826 428.118 29.4504 427.804 29.4504C427.491 29.4504 427.178 29.3687 426.934 29.2192C426.69 29.0697 426.512 28.8661 426.389 28.6211C426.269 28.3767 426.226 28.1316 426.226 27.8602C426.226 27.4525 426.334 27.0315 426.528 26.5961C426.729 26.1752 427.003 25.7674 427.344 25.3735C427.696 24.9789 428.106 24.6127 428.566 24.2727C429.046 23.9328 429.549 23.6338 430.095 23.3624C431.425 22.7372 432.857 22.4112 434.423 22.4112C435.99 22.4112 437.196 22.7781 438.233 23.5251C439.254 24.2727 439.785 25.3458 439.785 26.7186C439.785 27.3168 439.731 27.8602 439.622 28.3628C439.514 28.8655 439.293 29.3687 438.969 29.8983C438.64 30.4148 438.326 30.8766 438.028 31.2573C437.731 31.6519 437.251 32.1407 436.574 32.7388C435.905 33.337 435.32 33.8396 434.818 34.2473C434.311 34.6551 433.564 35.2532 432.582 36.041L430.23 37.9026C429.128 38.7722 428.393 39.8189 428.026 41.0283H432.311C433.073 41.0283 433.754 40.7701 434.365 40.2537C434.748 39.9414 435.116 39.4922 435.483 38.9355C435.429 38.9764 437.088 39.7102 437.05 39.6964C436.434 41.4223 435.878 42.8082 435.359 43.8141H422.636H422.638ZM452.269 31.8146V31.7738C451.955 31.8008 451.546 31.8278 451.015 31.8686C450.497 31.9095 450.145 31.9365 449.967 31.9503C449.805 31.9641 449.562 31.9773 449.275 31.9911C448.973 32.005 448.687 32.005 448.401 32.005C446.374 32.005 444.796 31.9371 443.651 31.8146C443.423 32.3989 442.877 33.9482 442.034 36.462C442.455 36.3533 443.109 36.2584 443.964 36.1497C444.838 36.041 445.515 36.0002 446.022 36.0002C447.639 36.0002 448.907 36.4218 449.805 37.2775C450.702 38.1332 451.151 39.2478 451.151 40.6476C451.151 43.3523 449.994 45.7574 447.709 47.8502C445.995 49.3995 444.088 50.1742 442.018 50.1742C439.949 50.1742 438.398 49.8481 437.376 49.196C436.738 48.7882 436.409 48.2586 436.409 47.6196C436.409 47.117 436.614 46.6678 437.009 46.2745C437.403 45.8806 437.895 45.6764 438.479 45.6764C439.582 45.6764 440.316 46.125 440.684 47.0492C441.094 48.1091 441.581 48.6255 442.153 48.6255C443.109 48.6255 443.952 48.1229 444.699 47.1309C445.19 46.4649 445.639 45.5137 446.049 44.2634C446.455 43.0131 446.648 41.8445 446.648 40.7168C446.648 40.1054 446.536 39.5752 446.334 39.1542C446.13 38.7326 445.855 38.4204 445.541 38.2439C445.217 38.0673 444.864 37.9725 444.466 37.9725C443.676 37.9725 442.995 38.0403 442.439 38.1898C441.882 38.3394 439.375 38.8828 439.375 38.8828L442.93 28.4327C443.325 28.4735 443.99 28.5413 444.945 28.6362C445.897 28.7317 446.632 28.7857 447.162 28.7857C447.626 28.7857 448.118 28.7719 448.593 28.7449C449.081 28.7179 449.475 28.6902 449.788 28.6632C450.117 28.6362 450.608 28.5815 451.259 28.5137C451.928 28.4458 452.457 28.378 452.879 28.3503L453.532 28.7989L452.268 31.8159L452.269 31.8146Z" fill="black"/>
<path d="M91.1735 2.20084C91.1735 2.52691 91.0642 2.82598 90.8468 3.09803C90.6558 3.37009 90.4384 3.50578 90.1933 3.50578C88.1921 3.69616 86.5591 4.34831 85.2792 5.44906C84.0131 6.5228 82.693 8.61559 81.3452 11.6866L60.655 58.2308C60.5187 58.6656 60.1372 58.8837 59.5253 58.8837C59.0352 58.8837 58.6544 58.6656 58.3955 58.2308L46.7847 34.0006L33.4315 58.2308C33.1594 58.6656 32.778 58.8837 32.3017 58.8837C31.7029 58.8837 31.3084 58.6656 31.1312 58.2308L10.7947 11.6866C9.52861 8.79213 8.18149 6.78101 6.77904 5.6526C5.37725 4.49718 3.41686 3.77718 0.898514 3.50578C0.680472 3.50578 0.476269 3.39709 0.285895 3.17971C0.0955204 2.93532 0 2.66326 0 2.36419C0 1.60335 0.218044 1.23643 0.653468 1.23643C2.46367 1.23643 4.35622 1.31812 6.32979 1.48083C8.16766 1.64419 9.89618 1.72522 11.5298 1.72522C13.1635 1.72522 15.1232 1.64353 17.3695 1.48083C19.7245 1.31746 21.8068 1.23643 23.6176 1.23643C24.053 1.23643 24.2711 1.61719 24.2711 2.36419C24.2711 3.1112 24.1347 3.49195 23.8627 3.49195C22.0525 3.62765 20.623 4.09007 19.5611 4.86474C18.5269 5.65325 18.023 6.67232 18.023 7.94961C18.023 8.60176 18.241 9.40343 18.6765 10.3823L35.4735 48.2563L45.0153 30.2636L36.127 11.6734C34.5342 8.35736 33.2141 6.22439 32.193 5.27251C31.1588 4.29429 29.6068 3.71 27.5239 3.49261C27.3336 3.49261 27.1425 3.38391 26.9522 3.16652C26.7888 2.92213 26.7071 2.65009 26.7071 2.35103C26.7071 1.59019 26.8975 1.22327 27.2789 1.22327C29.0891 1.22327 30.7497 1.30495 32.2747 1.46766C33.7312 1.63103 35.2963 1.71205 36.9438 1.71205C38.5913 1.71205 40.279 1.63037 42.1031 1.46766C43.9679 1.30429 45.8051 1.22327 47.616 1.22327C48.0514 1.22327 48.2695 1.60402 48.2695 2.35103C48.2695 3.09803 48.1331 3.47876 47.8611 3.47876C44.2407 3.72315 42.4298 4.74289 42.4298 6.56363C42.4298 7.37914 42.852 8.62941 43.682 10.3276L49.5626 22.2323L55.4023 11.3335C56.2191 9.79802 56.6137 8.49307 56.6137 7.44699C56.6137 4.96027 54.8028 3.64213 51.1824 3.47876C50.8557 3.47876 50.6923 3.09803 50.6923 2.35103C50.6923 2.07897 50.774 1.82073 50.9373 1.57634C51.1007 1.33195 51.2641 1.20944 51.4268 1.20944C52.7199 1.20944 54.3265 1.29112 56.2184 1.45383C58.0286 1.6172 59.5128 1.69822 60.6833 1.69822C61.5272 1.69822 62.7524 1.63036 64.3723 1.49466C66.4282 1.30428 68.1429 1.20944 69.5315 1.20944C69.8582 1.20944 70.0216 1.5355 70.0216 2.18765C70.0216 3.05718 69.7218 3.47876 69.1231 3.47876C67.0131 3.69615 65.3116 4.28046 64.0047 5.2185C62.7392 6.16971 61.1326 8.31718 59.2137 11.6596L51.4274 26.0372L61.9771 47.5086L77.5634 11.3335C78.1075 10.0154 78.3802 8.79213 78.3802 7.69139C78.3802 5.0413 76.57 3.64147 72.949 3.47876C72.6222 3.47876 72.4595 3.09803 72.4595 2.35103C72.4595 1.60402 72.7046 1.22327 73.1947 1.22327C74.5148 1.22327 76.0938 1.30495 77.904 1.46766C79.5785 1.63103 80.9941 1.71205 82.1238 1.71205C83.2536 1.71205 84.6969 1.63037 86.262 1.46766C87.8818 1.30429 89.3521 1.22327 90.6452 1.22327C91.0266 1.22327 91.217 1.54933 91.217 2.20148H91.1762L91.1735 2.20084ZM105.072 56.6407C105.072 57.1703 104.922 57.4423 104.608 57.4423C103.329 57.4423 101.804 57.3877 100.049 57.2658C98.361 57.1571 96.9454 57.0893 95.7748 57.0893C94.6042 57.0893 93.1886 57.1439 91.5003 57.2658C89.7171 57.3745 88.1789 57.4423 86.8858 57.4423C86.5861 57.4423 86.4234 57.1703 86.4234 56.6407C86.4234 56.1651 86.5729 55.9068 86.8858 55.866C89.2 55.5939 90.7651 55.173 91.5958 54.5749C92.4396 53.9767 92.8612 52.795 92.8612 51.0282V24.0801C92.8612 22.7481 92.6847 21.8107 92.3441 21.2804C92.0174 20.7231 91.4318 20.3022 90.6018 19.9893C89.7579 19.6632 88.5327 19.405 86.899 19.2146C86.5993 19.2146 86.4366 18.9426 86.4366 18.413C86.4366 17.8833 86.5861 17.6113 86.899 17.6113C88.2059 17.6113 89.7441 17.666 91.5135 17.7878C93.2018 17.8965 94.6174 17.9644 95.788 17.9644C96.9586 17.9644 98.3742 17.9097 100.062 17.7878C101.818 17.6791 103.342 17.6113 104.622 17.6113C104.935 17.6113 105.085 17.8833 105.085 18.413C105.085 18.9426 104.935 19.2146 104.622 19.2146C103.016 19.405 101.791 19.6632 100.947 19.9893C100.103 20.2884 99.5177 20.7093 99.191 21.2534C98.8643 21.7837 98.7009 22.7349 98.7009 24.0939V51.0421C98.7009 52.3602 98.8643 53.2982 99.191 53.8417C99.5177 54.3713 100.09 54.8067 100.906 55.1328C101.75 55.4319 102.975 55.6901 104.581 55.8805C104.908 55.9213 105.072 56.1795 105.072 56.6552V56.6413V56.6407ZM155.368 56.6407C155.368 57.1703 155.218 57.4423 154.906 57.4423C153.626 57.4423 152.101 57.3877 150.318 57.2658C148.617 57.1571 147.188 57.0893 146.017 57.0893C144.847 57.0893 143.335 57.1439 141.348 57.2658C139.265 57.3745 137.577 57.4423 136.298 57.4423C135.998 57.4423 135.835 57.1703 135.835 56.6407C135.835 56.1651 135.971 55.9068 136.23 55.866C138.817 55.5669 140.096 54.9418 140.096 54.0044C140.096 53.4748 139.674 52.7811 138.83 51.9386L127.451 40.3739C126.838 39.7626 126.307 39.3686 125.844 39.1782C125.409 38.9879 124.796 38.893 124.007 38.893V51.0282C124.007 52.3464 124.17 53.2844 124.497 53.8279C124.837 54.3575 125.436 54.7929 126.28 55.119C127.138 55.418 128.363 55.6763 129.955 55.8667C130.282 55.9075 130.445 56.1651 130.445 56.6413C130.445 57.1709 130.296 57.443 129.983 57.443C128.703 57.443 127.166 57.3883 125.395 57.2665C123.694 57.1578 122.265 57.0899 121.094 57.0899C119.923 57.0899 118.535 57.1446 116.847 57.2665C115.064 57.3752 113.54 57.443 112.26 57.443C111.961 57.443 111.797 57.1709 111.797 56.6413C111.797 56.1657 111.947 55.9075 112.26 55.8667C114.574 55.5946 116.14 55.1737 116.97 54.5755C117.813 53.9774 118.236 52.7956 118.236 51.0289V24.0807C118.236 22.7488 118.058 21.8114 117.718 21.2811C117.391 20.7238 116.806 20.3029 115.962 19.99C115.119 19.6639 113.893 19.4057 112.26 19.2153C111.961 19.2153 111.797 18.9432 111.797 18.4136C111.797 17.884 111.947 17.6119 112.26 17.6119C113.54 17.6119 115.065 17.6666 116.847 17.7885C118.535 17.8972 119.95 17.965 121.094 17.965C122.238 17.965 123.694 17.9103 125.395 17.7885C127.179 17.6798 128.703 17.6119 129.983 17.6119C130.283 17.6119 130.445 17.884 130.445 18.4136C130.445 18.9432 130.296 19.2153 129.983 19.2153C128.363 19.4057 127.124 19.6639 126.28 19.99C125.436 20.289 124.851 20.7238 124.497 21.2811C124.17 21.8107 124.007 22.7488 124.007 24.0807V37.0453C124.755 37.0453 125.355 36.9504 125.817 36.76C126.28 36.5697 126.824 36.1619 127.451 35.5644L140.042 23.171C141.076 22.1928 141.593 21.486 141.593 21.0512C141.593 20.5347 141.348 20.154 140.845 19.9096C140.369 19.6376 139.388 19.407 137.918 19.2166C137.605 19.2166 137.456 18.9446 137.456 18.4149C137.456 17.8853 137.632 17.6132 137.973 17.6132C138.871 17.6132 140.056 17.6679 141.525 17.7898C143.091 17.8985 144.397 17.9663 145.432 17.9663C146.466 17.9663 147.61 17.8985 148.875 17.7628C149.923 17.6679 150.822 17.6132 151.571 17.6132C151.843 17.6132 151.966 17.8853 151.966 18.4149C151.966 18.9446 151.816 19.2166 151.503 19.2166C149.665 19.4478 148.223 19.8147 147.175 20.3312C146.127 20.8476 144.86 21.7988 143.39 23.1987L130.309 35.6198L146.575 52.1171C147.705 53.2996 148.808 54.1559 149.896 54.6994C150.999 55.2158 152.647 55.6097 154.824 55.8686C155.165 55.9095 155.342 56.167 155.342 56.6433H155.369L155.368 56.6407ZM179.148 56.6407C179.148 57.1703 178.999 57.4423 178.685 57.4423C177.406 57.4423 175.881 57.3877 174.125 57.2658C172.438 57.1571 171.022 57.0893 169.852 57.0893C168.681 57.0893 167.265 57.1439 165.577 57.2658C163.794 57.3745 162.256 57.4423 160.963 57.4423C160.663 57.4423 160.5 57.1703 160.5 56.6407C160.5 56.1651 160.65 55.9068 160.963 55.866C163.277 55.5939 164.842 55.173 165.673 54.5749C166.516 53.9767 166.938 52.795 166.938 51.0282V24.0801C166.938 22.7481 166.761 21.8107 166.421 21.2804C166.094 20.7231 165.508 20.3022 164.665 19.9893C163.821 19.6632 162.596 19.405 160.963 19.2146C160.663 19.2146 160.5 18.9426 160.5 18.413C160.5 17.8833 160.65 17.6113 160.963 17.6113C162.27 17.6113 163.808 17.666 165.577 17.7878C167.265 17.8965 168.68 17.9644 169.852 17.9644C171.023 17.9644 172.438 17.9097 174.125 17.7878C175.881 17.6791 177.406 17.6113 178.685 17.6113C178.985 17.6113 179.148 17.8833 179.148 18.413C179.148 18.9426 178.999 19.2146 178.685 19.2146C177.079 19.405 175.854 19.6632 175.01 19.9893C174.166 20.2884 173.581 20.7093 173.255 21.2534C172.928 21.7837 172.764 22.7349 172.764 24.0939V51.0421C172.764 52.3602 172.928 53.2982 173.255 53.8417C173.581 54.3713 174.153 54.8067 174.97 55.1328C175.814 55.4319 177.039 55.6901 178.645 55.8805C178.972 55.9213 179.135 56.1795 179.135 56.6552L179.149 56.6413L179.148 56.6407ZM218.433 29.2847C218.433 32.6416 217.126 35.4676 214.526 37.7646C211.94 40.034 208.741 41.1755 204.917 41.1755C202.616 41.1755 200.37 41.0807 198.151 40.8903V51.0282C198.151 52.3602 198.315 53.2976 198.642 53.8279C198.981 54.3575 199.567 54.7929 200.397 55.119C201.241 55.418 202.466 55.6763 204.072 55.8667C204.386 55.9075 204.535 56.1651 204.535 56.6413C204.535 57.1709 204.386 57.443 204.072 57.443C202.792 57.443 201.268 57.3883 199.512 57.2665C197.824 57.1578 196.409 57.0899 195.238 57.0899C194.067 57.0899 192.638 57.1446 190.937 57.2665C189.154 57.3752 187.629 57.443 186.35 57.443C186.05 57.443 185.886 57.1709 185.886 56.6413C185.886 56.1657 186.037 55.9075 186.35 55.8667C188.664 55.5946 190.229 55.1737 191.059 54.5755C191.903 53.9774 192.325 52.7956 192.325 51.0289V24.0807C192.325 22.7488 192.148 21.8114 191.808 21.2811C191.481 20.7238 190.895 20.3029 190.065 19.99C189.222 19.6639 187.996 19.4057 186.363 19.2153C186.063 19.2153 185.9 18.9432 185.9 18.4136C185.9 17.884 186.05 17.6119 186.363 17.6119C187.643 17.6119 189.167 17.6666 190.95 17.7885C192.652 17.8972 194.08 17.965 195.252 17.965C196.423 17.965 197.838 17.9103 199.526 17.7885C201.281 17.6798 202.806 17.6119 204.085 17.6119C208.795 17.6119 212.348 18.604 214.785 20.5881C217.234 22.5722 218.46 25.4805 218.46 29.2854H218.433L218.433 29.2847ZM212.063 29.2847C212.063 26.2269 211.314 23.8488 209.803 22.1229C208.306 20.4109 206.318 19.5407 203.841 19.5407C202.344 19.5407 201.186 19.6494 200.37 19.8806C199.567 20.1118 198.995 20.4787 198.655 20.9952C198.328 21.5116 198.165 22.5307 198.165 24.053V37.1941C198.165 38.0097 198.424 38.5669 198.941 38.8522C199.458 39.1236 200.574 39.2461 202.303 39.2461C205.42 39.2461 207.829 38.3628 209.53 36.5822C211.232 34.8016 212.09 32.3696 212.09 29.2577L212.062 29.2847H212.063ZM258.575 47.9842C257.023 51.2865 255.77 54.4392 254.791 57.4292C247.576 57.198 242.445 57.0893 239.396 57.0893C236.346 57.0893 231.256 57.198 224.027 57.4292C223.714 57.4292 223.565 57.1571 223.565 56.6275C223.565 56.1519 223.714 55.8937 224.027 55.8528C225.62 55.6631 226.831 55.4181 227.675 55.1052C228.519 54.7791 229.105 54.3575 229.431 53.814C229.771 53.2844 229.949 52.3464 229.949 51.0144V24.0662C229.949 22.7481 229.785 21.8239 229.458 21.2943C229.159 20.737 228.574 20.3022 227.743 19.9761C226.899 19.6501 225.674 19.3918 224.041 19.2015C223.727 19.2015 223.578 18.9294 223.578 18.3998C223.578 17.8701 223.727 17.5981 224.041 17.5981C228.86 17.8293 233.787 17.938 238.837 17.938C243.887 17.938 248.869 17.8293 253.66 17.5981C254.096 20.5604 254.735 23.4826 255.58 26.3632C255.58 26.744 255.239 26.9337 254.573 26.9337C254.246 26.9337 254.042 26.798 253.973 26.5398C252.558 22.0419 249.536 19.7858 244.908 19.7858H239.109C236.89 19.7858 235.788 20.9273 235.788 23.2237V35.9709H243.015C244.921 35.9709 246.214 35.5361 246.881 34.6527C247.576 33.7694 248.052 32.22 248.311 29.9915C248.311 29.6925 248.583 29.5298 249.114 29.5298C249.645 29.5298 249.917 29.6793 249.917 29.9915C249.917 30.9428 249.862 32.1522 249.74 33.5929C249.631 34.9927 249.563 36.1204 249.563 37.0038C249.563 37.8871 249.618 39.0425 249.74 40.4417C249.849 41.9364 249.917 43.1458 249.917 44.1109C249.917 44.4099 249.645 44.5733 249.114 44.5733C248.583 44.5733 248.311 44.4238 248.311 44.1109C248.025 41.7875 247.521 40.1565 246.787 39.2184C246.078 38.2811 244.812 37.8186 243.002 37.8186H235.774V51.9109C235.774 54.1671 236.877 55.2949 239.096 55.2949H245.344C247.617 55.2949 249.877 54.561 252.108 53.0934C254.341 51.5981 255.988 49.7503 257.036 47.535C257.118 47.3584 257.281 47.2767 257.527 47.2767C257.799 47.2767 258.03 47.3584 258.248 47.508C258.452 47.6437 258.561 47.807 258.561 48.0244L258.575 47.9836V47.9842ZM305.741 37.7916C305.741 43.6761 303.766 48.419 299.833 52.0203C295.899 55.621 290.563 57.4292 283.853 57.4292C283.009 57.4292 281.307 57.3883 278.748 57.3198C276.107 57.2388 274.352 57.2111 273.467 57.2111C269.914 57.2111 266.456 57.2928 263.081 57.4423C262.781 57.4423 262.619 57.1703 262.619 56.6407C262.619 56.1651 262.768 55.9068 263.081 55.866C264.674 55.6756 265.885 55.4306 266.729 55.1183C267.573 54.7922 268.158 54.3707 268.471 53.8272C268.812 53.2976 268.988 52.3595 268.988 51.0276V24.2019C268.988 22.8838 268.825 21.9596 268.498 21.43C268.186 20.8727 267.614 20.4379 266.783 20.1118C265.939 19.7857 264.715 19.5275 263.081 19.3372C262.781 19.3372 262.619 19.0651 262.619 18.5355C262.619 18.0059 262.768 17.7338 263.081 17.7338C265.313 17.8833 268.784 17.965 273.467 17.965C274.352 17.965 276.107 17.938 278.748 17.8833C281.307 17.8286 283.009 17.8016 283.853 17.8016C290.386 17.8016 295.668 19.6771 299.684 23.4141C303.712 27.1379 305.741 31.9348 305.741 37.8186V37.7916ZM299.439 37.7916C299.439 32.6001 297.941 28.2927 294.96 24.8547C291.993 21.403 288.277 19.6771 283.799 19.6771H283.622L278.231 19.7858C275.972 19.8674 274.842 20.9682 274.842 23.1018V52.102C274.842 54.2765 275.972 55.3634 278.231 55.3634L283.622 55.5399C288.073 55.5399 291.829 53.8549 294.866 50.4716C297.901 47.0739 299.425 42.8474 299.425 37.7923H299.439L299.439 37.7916ZM332.053 56.6407C332.053 57.1703 331.903 57.4423 331.59 57.4423C330.31 57.4423 328.786 57.3877 327.03 57.2658C325.342 57.1571 323.926 57.0893 322.756 57.0893C321.585 57.0893 320.17 57.1439 318.482 57.2658C316.699 57.3745 315.161 57.4423 313.867 57.4423C313.568 57.4423 313.404 57.1703 313.404 56.6407C313.404 56.1651 313.554 55.9068 313.867 55.866C316.182 55.5939 317.747 55.173 318.577 54.5749C319.421 53.9767 319.843 52.795 319.843 51.0282V24.0801C319.843 22.7481 319.666 21.8107 319.325 21.2804C318.998 20.7231 318.413 20.3022 317.57 19.9893C316.726 19.6632 315.5 19.405 313.867 19.2146C313.568 19.2146 313.404 18.9426 313.404 18.413C313.404 17.8833 313.554 17.6113 313.867 17.6113C315.174 17.6113 316.712 17.666 318.482 17.7878C320.17 17.8965 321.585 17.9644 322.756 17.9644C323.926 17.9644 325.342 17.9097 327.03 17.7878C328.786 17.6791 330.31 17.6113 331.59 17.6113C331.89 17.6113 332.053 17.8833 332.053 18.413C332.053 18.9426 331.903 19.2146 331.59 19.2146C329.983 19.405 328.759 19.6632 327.915 19.9893C327.071 20.2884 326.486 20.7093 326.159 21.2534C325.832 21.7837 325.669 22.7349 325.669 24.0939V51.0421C325.669 52.3602 325.832 53.2982 326.159 53.8417C326.486 54.3713 327.057 54.8067 327.874 55.1328C328.718 55.4319 329.943 55.6901 331.549 55.8805C331.876 55.9213 332.039 56.1795 332.039 56.6552L332.053 56.6413L332.053 56.6407ZM396.628 56.4503C396.628 57.2111 396.412 57.578 395.975 57.578C394.111 57.578 392.002 57.4964 389.646 57.3336C387.619 57.1703 385.889 57.0886 384.446 57.0886C382.799 57.0886 380.757 57.1703 378.32 57.3336C375.747 57.4964 373.556 57.578 371.746 57.578C371.31 57.578 371.092 57.1973 371.092 56.4503C371.092 55.7033 371.256 55.3225 371.582 55.3225C373.992 55.2139 375.72 54.9016 376.782 54.3852C377.843 53.8417 378.361 53.0262 378.361 51.9116C378.361 51.2054 378.089 50.0909 377.544 48.5554L372.957 34.9795H356.241L351.613 47.5363C351.014 49.2075 350.714 50.5125 350.714 51.4228C350.714 53.8009 352.906 55.092 357.289 55.3094C357.616 55.3094 357.779 55.6901 357.779 56.4371C357.779 57.1841 357.561 57.5649 357.126 57.5649C355.506 57.5649 353.71 57.4832 351.722 57.3198C349.857 57.1571 348.196 57.0754 346.727 57.0754C345.57 57.0754 344.099 57.1571 342.343 57.3198C340.506 57.4832 338.94 57.5649 337.634 57.5649C337.226 57.5649 337.021 57.225 337.021 56.5458C337.021 55.785 337.335 55.3911 337.961 55.3364C340.206 55.119 341.976 54.4938 343.283 53.4748C344.604 52.4419 345.979 50.3491 347.381 47.1964L366.369 0.652141C366.533 0.217376 366.914 0 367.499 0C368.152 0 368.56 0.203535 368.71 0.611292L385.467 47.1964C386.419 49.8188 387.685 51.7489 389.279 52.9854C390.899 54.2218 393.062 55.0103 395.77 55.3364C396.315 55.3911 396.586 55.7573 396.586 56.4371L396.629 56.4509L396.628 56.4503ZM372.086 32.3834L364.94 11.6866L357.235 32.3834H372.086Z" fill="black"/>
</svg>
