<svg width="1546" height="278" viewBox="0 0 1546 278" fill="none" xmlns="http://www.w3.org/2000/svg">
<path d="M1504 111H1503.48V125.198C1503.48 126.428 1504.02 127.788 1505 128.796C1505.87 129.69 1507.09 130.307 1508.59 130.307C1508.98 130.307 1509.76 130.275 1510.69 129.886C1511.33 129.615 1512.06 129.173 1512.78 128.449C1512.8 128.428 1512.82 128.414 1512.84 128.408C1516.16 125.353 1520.14 123.572 1524.41 123.572C1535.97 123.572 1545.35 136.579 1545.35 152.6C1545.35 168.621 1535.97 181.628 1524.41 181.628C1520.14 181.628 1516.16 179.847 1512.84 176.792C1512.82 176.786 1512.8 176.772 1512.78 176.751C1511.01 174.984 1509.25 174.894 1508.59 174.894C1505.4 174.894 1503.48 177.681 1503.48 180.002L1503.48 236.2H1447.19C1444.86 236.202 1442.07 238.12 1442.07 241.309C1442.07 241.697 1442.1 242.468 1442.49 243.398C1442.76 244.044 1443.2 244.766 1443.93 245.489C1443.95 245.51 1443.96 245.531 1443.97 245.552C1447.03 248.861 1448.81 252.832 1448.81 257.1C1448.81 268.634 1435.79 278 1419.74 278C1403.69 278 1390.66 268.635 1390.66 257.1C1390.66 252.832 1392.45 248.861 1395.51 245.552C1395.51 245.531 1395.53 245.51 1395.55 245.489C1397.32 243.722 1397.41 241.966 1397.41 241.309C1397.41 238.12 1394.61 236.202 1392.29 236.2H1336L1336 180.002V125.197C1336 124.573 1336 118.716 1336 111L1336 236L1279.87 235.999C1277.55 235.997 1274.77 234.078 1274.77 230.89C1274.77 230.232 1274.86 228.477 1276.62 226.71C1276.64 226.689 1276.66 226.668 1276.66 226.647C1279.71 223.338 1281.49 219.366 1281.49 215.099C1281.49 203.563 1268.5 194.199 1252.5 194.199C1236.5 194.199 1223.51 203.563 1223.51 215.099C1223.51 219.366 1225.28 223.338 1228.34 226.647C1228.34 226.668 1228.36 226.689 1228.38 226.71C1229.1 227.433 1229.54 228.155 1229.81 228.8C1230.2 229.73 1230.23 230.501 1230.23 230.89C1230.23 234.078 1227.45 235.997 1225.13 235.999C1223.18 236.001 1169.03 236 1169 236L1169 179.803C1169 177.482 1170.92 174.693 1174.1 174.693C1174.76 174.693 1176.51 174.785 1178.28 176.552C1178.3 176.573 1178.32 176.586 1178.34 176.592C1181.65 179.647 1185.61 181.428 1189.88 181.428C1201.4 181.428 1210.75 168.421 1210.75 152.4C1210.75 136.38 1201.4 123.373 1189.88 123.373C1185.61 123.373 1181.65 125.154 1178.34 128.209C1178.32 128.215 1178.3 128.229 1178.28 128.25C1177.56 128.974 1176.84 129.416 1176.19 129.687C1175.26 130.076 1174.49 130.107 1174.1 130.107C1170.92 130.107 1169 127.319 1169 124.998V111L1169 69.1992L1112.87 69.2002C1111.64 69.2017 1110.28 69.7405 1109.28 70.7217C1108.38 71.592 1107.77 72.8108 1107.77 74.3096C1107.77 74.6985 1107.8 75.4695 1108.19 76.3994C1108.46 77.0445 1108.9 77.7658 1109.62 78.4893C1109.64 78.5106 1109.66 78.5314 1109.66 78.5518C1112.71 81.8614 1114.49 85.8328 1114.49 90.1006C1114.49 101.636 1101.5 111 1085.5 111C1069.5 111 1056.51 101.636 1056.51 90.1006C1056.51 85.8328 1058.29 81.8614 1061.34 78.5518C1061.34 78.5314 1061.36 78.5106 1061.38 78.4893C1063.14 76.7225 1063.23 74.968 1063.23 74.3096C1063.23 71.1213 1060.45 69.2027 1058.13 69.2002L1002 69.1992L945.869 69.2002C944.641 69.2017 943.282 69.7405 942.275 70.7217C941.382 71.592 940.767 72.8108 940.767 74.3096C940.767 74.6985 940.798 75.4695 941.188 76.3994C941.457 77.0445 941.899 77.7658 942.622 78.4893C942.643 78.5106 942.656 78.5314 942.662 78.5518C945.714 81.8614 947.493 85.8328 947.493 90.1006C947.493 101.636 934.502 111 918.5 111C902.498 111 889.507 101.636 889.507 90.1006C889.507 85.8328 891.286 81.8614 894.338 78.5518C894.344 78.5314 894.357 78.5106 894.378 78.4893C896.143 76.7225 896.233 74.968 896.233 74.3096C896.233 71.1213 893.449 69.2027 891.131 69.2002L835 69.1992V69L778.869 68.999C776.551 68.9965 773.767 67.0779 773.767 63.8896C773.767 63.2315 773.857 61.4771 775.622 59.71C775.643 59.6888 775.656 59.6677 775.662 59.6475C778.714 56.3379 780.493 52.3664 780.493 48.0986C780.493 36.5633 767.502 27.1992 751.5 27.1992C735.498 27.1992 722.507 36.5633 722.507 48.0986C722.507 52.3664 724.285 56.3379 727.337 59.6475C727.343 59.6678 727.357 59.6887 727.378 59.71C728.101 60.4335 728.543 61.1548 728.812 61.7998C729.202 62.73 729.233 63.5009 729.233 63.8896C729.233 67.0779 726.449 68.9965 724.131 68.999C722.175 69.0007 668.026 69 668 69L668.001 25H667.999L668 69.1992L611.869 69.2002C610.641 69.2017 609.282 69.7405 608.275 70.7217C607.382 71.592 606.767 72.8108 606.767 74.3096C606.767 74.6985 606.798 75.4695 607.188 76.3994C607.457 77.0445 607.899 77.7658 608.622 78.4893C608.643 78.5106 608.656 78.5314 608.662 78.5518C611.714 81.8614 613.493 85.8328 613.493 90.1006C613.493 101.636 600.502 111 584.5 111C568.498 111 555.507 101.636 555.507 90.1006C555.507 85.8328 557.286 81.8614 560.338 78.5518C560.344 78.5314 560.357 78.5106 560.378 78.4893C562.143 76.7225 562.233 74.968 562.233 74.3096C562.233 71.1213 559.449 69.2027 557.131 69.2002L501 69.1992L444.869 69.2002C443.641 69.2017 442.282 69.7405 441.275 70.7217C440.382 71.592 439.767 72.8108 439.767 74.3096C439.767 74.6985 439.798 75.4695 440.188 76.3994C440.457 77.0445 440.899 77.7658 441.622 78.4893C441.643 78.5106 441.656 78.5314 441.662 78.5518C444.714 81.8614 446.493 85.8328 446.493 90.1006C446.493 101.636 433.502 111 417.5 111C401.498 111 388.507 101.636 388.507 90.1006C388.507 85.8328 390.286 81.8614 393.338 78.5518C393.344 78.5314 393.357 78.5106 393.378 78.4893C395.143 76.7225 395.233 74.968 395.233 74.3096C395.233 71.1213 392.449 69.2027 390.131 69.2002L334 69.1992V69L277.869 68.999C275.551 68.9965 272.767 67.0779 272.767 63.8896C272.767 63.2315 272.857 61.4771 274.622 59.71C274.643 59.6888 274.656 59.6677 274.662 59.6475C277.714 56.3379 279.493 52.3664 279.493 48.0986C279.493 36.5633 266.502 27.1992 250.5 27.1992C234.498 27.1992 221.507 36.5633 221.507 48.0986C221.507 52.3664 223.285 56.3379 226.337 59.6475C226.343 59.6678 226.357 59.6887 226.378 59.71C227.101 60.4335 227.543 61.1548 227.812 61.7998C228.202 62.73 228.233 63.5009 228.233 63.8896C228.233 67.0779 225.449 68.9965 223.131 68.999C221.175 69.0007 167.026 69 167 69L167.001 25H166.999L167 69.1992L110.869 69.2002C109.641 69.2017 108.282 69.7405 107.275 70.7217C106.382 71.592 105.767 72.8108 105.767 74.3096C105.767 74.6985 105.798 75.4695 106.188 76.3994C106.457 77.0445 106.899 77.7658 107.622 78.4893C107.643 78.5106 107.656 78.5314 107.662 78.5518C110.714 81.8614 112.493 85.8328 112.493 90.1006C112.493 101.636 99.5016 111 83.5 111C67.4984 111 54.5072 101.636 54.5068 90.1006C54.5068 85.8328 56.286 81.8614 59.3379 78.5518C59.3439 78.5314 59.3571 78.5106 59.3779 78.4893C61.1426 76.7225 61.2334 74.968 61.2334 74.3096C61.2334 71.1213 58.4488 69.2027 56.1309 69.2002L0 69.1992V0H1504V111Z" fill="#FF0000"/>
</svg>
