<svg width="100%" height="100%" viewBox="0 0 6267 1159" version="1.1" xmlns="http://www.w3.org/2000/svg" xmlns:xlink="http://www.w3.org/1999/xlink" xml:space="preserve" xmlns:serif="http://www.serif.com/" style="fill-rule:evenodd;clip-rule:evenodd;stroke-linejoin:round;stroke-miterlimit:2;" fill="currentColor"><path d="M6270.833,0l-2.167,984.167l-238.708,0c-9.708,0.008 -21.333,8 -21.333,21.288c0,1.617 0.125,4.829 1.75,8.704c1.125,2.692 2.958,5.7 6,8.712c0.083,0.087 0.125,0.175 0.167,0.262c12.75,13.788 20.167,30.333 20.167,48.117c0,48.058 -54.25,87.083 -121.125,87.083c-66.875,0 -121.167,-39.021 -121.167,-87.083c0,-17.783 7.458,-34.329 20.208,-48.117c0,-0.087 0.083,-0.175 0.167,-0.262c7.375,-7.362 7.75,-14.679 7.75,-17.417c0,-13.288 -11.667,-21.279 -21.333,-21.288l-468.417,-0.837c-9.667,-0.008 -21.25,-8.004 -21.25,-21.288c0,-2.742 0.375,-10.054 7.708,-17.417c0.083,-0.088 0.167,-0.175 0.167,-0.263c12.708,-13.788 20.125,-30.337 20.125,-48.117c0,-48.067 -54.125,-87.083 -120.792,-87.083c-66.667,0 -120.792,39.017 -120.792,87.083c0,17.779 7.375,34.329 20.125,48.117c0,0.087 0.083,0.175 0.167,0.263c3,3.012 4.833,6.021 5.958,8.708c1.625,3.875 1.75,7.087 1.75,8.708c0,13.283 -11.583,21.279 -21.25,21.288c-8.125,0.008 -233.75,0.004 -233.875,0.004l0,-234.154c0,-9.671 8,-21.292 21.25,-21.292c2.75,0 10.042,0.383 17.417,7.746c0.083,0.088 0.167,0.142 0.25,0.167c13.792,12.729 30.292,20.15 48.083,20.15c48,0 86.958,-54.196 86.958,-120.95c0,-66.75 -38.958,-120.946 -86.958,-120.946c-17.792,0 -34.292,7.421 -48.083,20.15c-0.083,0.025 -0.167,0.083 -0.25,0.171c-3,3.017 -6,4.858 -8.708,5.988c-3.875,1.621 -7.083,1.75 -8.708,1.75c-13.25,0 -21.25,-11.617 -21.25,-21.288l0,-232.495l-233.875,0.004c-5.125,0.006 -10.792,2.251 -14.958,6.34c-3.75,3.626 -6.292,8.705 -6.292,14.95c0,1.62 0.125,4.833 1.75,8.707c1.125,2.688 2.958,5.693 5.958,8.708c0.083,0.089 0.167,0.175 0.167,0.26c12.708,13.79 20.125,30.338 20.125,48.12c0,48.064 -54.125,87.081 -120.792,87.081c-66.667,0 -120.792,-39.017 -120.792,-87.081c0,-17.782 7.417,-34.33 20.125,-48.12c0,-0.085 0.083,-0.172 0.167,-0.26c7.333,-7.362 7.708,-14.672 7.708,-17.415c0,-13.285 -11.583,-21.279 -21.25,-21.289l-467.754,0c-5.117,0.006 -10.779,2.251 -14.975,6.34c-3.721,3.626 -6.283,8.705 -6.283,14.95c0,1.62 0.129,4.833 1.754,8.707c1.121,2.688 2.963,5.693 5.975,8.708c0.088,0.089 0.142,0.175 0.167,0.26c12.717,13.79 20.129,30.338 20.129,48.12c0,48.064 -54.129,87.081 -120.804,87.081c-66.675,0 -120.804,-39.017 -120.804,-87.081c0,-17.782 7.412,-34.33 20.129,-48.12c0.025,-0.085 0.079,-0.172 0.167,-0.26c7.354,-7.362 7.729,-14.672 7.729,-17.415c0,-13.285 -11.6,-21.279 -21.258,-21.289l-467.758,-0.838c-9.658,-0.01 -21.258,-8.005 -21.258,-21.289c0,-2.742 0.375,-10.052 7.729,-17.415c0.088,-0.088 0.142,-0.176 0.167,-0.26c12.717,-13.79 20.129,-30.338 20.129,-48.12c0,-48.064 -54.129,-87.081 -120.804,-87.081c-66.675,0 -120.804,39.017 -120.804,87.081c0,17.783 7.408,34.33 20.125,48.12c0.025,0.085 0.083,0.172 0.171,0.26c3.012,3.015 4.854,6.02 5.975,8.707c1.625,3.876 1.754,7.088 1.754,8.708c0,13.285 -11.6,21.279 -21.258,21.289c-8.15,0.007 -467.758,0.838 -467.758,0.838c-5.117,0.006 -10.779,2.251 -14.975,6.34c-3.721,3.626 -6.283,8.705 -6.283,14.95c0,1.62 0.129,4.833 1.754,8.707c1.121,2.688 2.963,5.693 5.975,8.708c0.088,0.089 0.142,0.175 0.167,0.26c12.717,13.79 20.129,30.338 20.129,48.12c0,48.064 -54.129,87.081 -120.804,87.081c-66.675,0 -120.804,-39.017 -120.804,-87.081c0,-17.782 7.413,-34.33 20.129,-48.12c0.025,-0.085 0.079,-0.172 0.167,-0.26c7.354,-7.362 7.729,-14.672 7.729,-17.415c0,-13.285 -11.6,-21.279 -21.258,-21.289l-233.879,-0.004l-233.879,0.004c-5.117,0.006 -10.779,2.251 -14.975,6.34c-3.721,3.626 -6.283,8.705 -6.283,14.95c0,1.62 0.129,4.833 1.754,8.707c1.121,2.688 2.963,5.693 5.975,8.708c0.087,0.089 0.142,0.175 0.167,0.26c12.717,13.79 20.129,30.338 20.129,48.12c0,48.064 -54.129,87.081 -120.804,87.081c-66.675,0 -120.804,-39.017 -120.804,-87.081c0,-17.782 7.413,-34.33 20.129,-48.12c0.025,-0.085 0.079,-0.172 0.167,-0.26c7.354,-7.362 7.729,-14.672 7.729,-17.415c0,-13.285 -11.6,-21.279 -21.258,-21.289l-233.879,-0.004l0,-0.83l-233.879,-0.004c-9.658,-0.01 -21.258,-8.005 -21.258,-21.289c0,-2.742 0.375,-10.052 7.729,-17.415c0.087,-0.088 0.142,-0.176 0.167,-0.26c12.717,-13.79 20.129,-30.338 20.129,-48.12c0,-48.064 -54.129,-87.081 -120.804,-87.081c-66.675,0 -120.804,39.017 -120.804,87.081c0,17.783 7.408,34.33 20.125,48.12c0.025,0.085 0.083,0.172 0.171,0.26c3.013,3.015 4.854,6.02 5.975,8.707c1.625,3.876 1.754,7.088 1.754,8.708c0,13.285 -11.6,21.279 -21.258,21.289c-8.15,0.007 -467.758,0.838 -467.758,0.838c-5.117,0.006 -10.779,2.251 -14.975,6.34c-3.721,3.626 -6.283,8.705 -6.283,14.95c0,1.62 0.129,4.833 1.754,8.707c1.121,2.688 2.962,5.693 5.975,8.708c0.088,0.089 0.142,0.175 0.167,0.26c12.717,13.79 20.129,30.338 20.129,48.12c0,48.064 -54.131,87.081 -120.804,87.081c-66.673,0 -120.803,-39.017 -120.805,-87.081c0,-17.782 7.413,-34.33 20.13,-48.12c0.025,-0.085 0.08,-0.172 0.167,-0.26c7.353,-7.362 7.731,-14.672 7.731,-17.415c0,-13.285 -11.603,-21.279 -21.26,-21.289l-233.879,-0.004l0,-288.33l6270.833,0Z" style="fill-rule:nonzero;"/></svg>