<svg width="1442" height="405" viewBox="0 0 1442 405" fill="none" xmlns="http://www.w3.org/2000/svg">
<path fill-rule="evenodd" clip-rule="evenodd" d="M1361.13 0C1376.46 0 1388.92 8.95279 1388.92 19.9795C1388.91 24.0594 1387.21 27.8553 1384.29 31.0186C1384.28 31.0385 1384.27 31.0591 1384.25 31.0791C1382.56 32.7682 1382.47 34.4454 1382.47 35.0742C1382.47 38.1221 1385.14 39.9562 1387.36 39.958H1441.15L1441.15 146.069C1441.15 144.149 1441.15 196.032 1441.15 199.599L1441.15 305.71C1441.15 303.789 1441.15 355.711 1441.15 359.243L1441.15 400.354C1441.15 398.368 1441.15 380 1441.15 404.076L1387.36 404.075C1387.1 404.075 1386.84 404.049 1386.57 404H1335.69C1335.42 404.049 1335.16 404.075 1334.9 404.075H1281.23L1281.23 404.076L1281.17 404.075L1281.11 404.076L1281.11 404.075H1227.44C1227.19 404.075 1226.92 404.049 1226.66 404H1175.77C1175.51 404.049 1175.24 404.075 1174.99 404.075H1121.32L1121.32 404.076L1121.26 404.075L1121.2 404.076L1121.19 404.075H1067.53C1067.27 404.075 1067.01 404.049 1066.74 404H1015.86C1015.59 404.049 1015.33 404.075 1015.07 404.075H961.402L961.403 404.076L961.341 404.075L961.279 404.076L961.278 404.075H907.612C907.355 404.075 907.091 404.049 906.826 404H855.941C855.677 404.049 855.413 404.075 855.155 404.075H801.487L801.488 404.076L801.426 404.075L801.364 404.076L801.363 404.075H747.697C747.44 404.075 747.176 404.049 746.911 404H696.026C695.761 404.049 695.498 404.075 695.24 404.075H641.572L641.573 404.076L641.511 404.075L641.449 404.076L641.448 404.075H587.782C587.524 404.075 587.26 404.049 586.995 404H536.11C535.846 404.049 535.582 404.075 535.324 404.075H481.656L481.657 404.076L481.595 404.075L481.533 404.076L481.532 404.075H427.866C427.608 404.075 427.345 404.049 427.08 404H376.195C375.93 404.049 375.667 404.075 375.409 404.075H321.741L321.742 404.076L321.68 404.075L321.618 404.076L321.617 404.075H267.951C267.694 404.075 267.43 404.049 267.165 404H216.28C216.015 404.049 215.751 404.075 215.493 404.075H161.825L161.826 404.076L161.764 404.075L161.702 404.076L161.701 404.075H108.035C107.777 404.075 107.514 404.049 107.249 404H56.3643C62.2591 382 55.8358 404.075 55.5781 404.075L1.78711 404.076V404H0V403H1.78613L1.78711 359.243H55.5781C57.7996 359.241 60.4688 357.407 60.4688 354.359C60.4687 353.988 60.4383 353.25 60.0654 352.361C59.8067 351.745 59.3827 351.056 58.6904 350.364C58.6704 350.344 58.6571 350.324 58.6514 350.304C55.7268 347.14 54.0226 343.345 54.0225 339.265C54.0225 328.238 66.4719 319.285 81.8066 319.285C97.1415 319.285 109.592 328.238 109.592 339.265C109.592 343.345 107.887 347.141 104.963 350.304C104.957 350.324 104.944 350.344 104.924 350.364C103.233 352.053 103.146 353.731 103.146 354.359C103.146 357.407 105.814 359.241 108.035 359.243H161.702L161.701 305.71C161.7 304.534 161.184 303.234 160.245 302.271C159.412 301.416 158.246 300.826 156.812 300.826C156.439 300.826 155.701 300.857 154.811 301.229C154.193 301.488 153.503 301.911 152.811 302.603C152.79 302.623 152.77 302.635 152.75 302.641C149.582 305.562 145.781 307.264 141.696 307.264C130.655 307.264 121.692 294.831 121.691 279.516C121.691 264.201 130.655 251.767 141.696 251.767C145.781 251.767 149.582 253.469 152.75 256.39C152.77 256.395 152.79 256.409 152.811 256.429C154.502 258.118 156.182 258.204 156.812 258.204C159.863 258.204 161.699 255.539 161.701 253.32L161.702 199.599H215.493C217.715 199.597 220.384 197.763 220.384 194.715C220.384 194.344 220.353 193.606 219.98 192.717C219.722 192.1 219.298 191.411 218.605 190.72C218.585 190.7 218.572 190.679 218.566 190.659C215.642 187.496 213.938 183.7 213.938 179.62C213.938 168.593 226.388 159.641 241.723 159.641C257.057 159.641 269.507 168.594 269.507 179.62C269.507 183.7 267.802 187.496 264.878 190.659C264.872 190.679 264.859 190.7 264.839 190.72C263.148 192.409 263.061 194.086 263.061 194.715C263.061 197.763 265.73 199.597 267.951 199.599H321.618L321.617 146.069C321.616 144.894 321.099 143.593 320.16 142.63C319.327 141.775 318.161 141.186 316.727 141.186C316.354 141.186 315.617 141.216 314.727 141.589C314.109 141.847 313.418 142.27 312.726 142.962C312.705 142.982 312.685 142.994 312.666 143C309.498 145.921 305.697 147.623 301.612 147.623C290.571 147.623 281.608 135.19 281.607 119.875C281.607 104.56 290.571 92.126 301.612 92.126C305.697 92.1261 309.498 93.8282 312.666 96.749C312.685 96.7548 312.705 96.7682 312.726 96.7881C314.417 98.4772 316.097 98.5635 316.727 98.5635C319.778 98.5635 321.615 95.8983 321.617 93.6797L321.618 39.958H375.409C377.631 39.9562 380.299 38.1221 380.299 35.0742C380.299 34.703 380.269 33.9653 379.896 33.0762C379.638 32.4597 379.214 31.7706 378.521 31.0791C378.501 31.0591 378.488 31.0385 378.482 31.0186C375.558 27.8553 373.854 24.0595 373.854 19.9795C373.854 8.95282 386.303 4.19894e-05 401.638 0C416.973 0 429.423 8.9528 429.423 19.9795C429.423 24.0595 427.718 27.8553 424.793 31.0186C424.787 31.0385 424.775 31.0591 424.755 31.0791C423.064 32.7682 422.977 34.4454 422.977 35.0742C422.977 38.122 425.645 39.9561 427.866 39.958H481.657L481.656 93.6797C481.654 95.8983 479.817 98.5635 476.766 98.5635C476.135 98.5634 474.456 98.477 472.765 96.7881C472.744 96.7681 472.725 96.7548 472.705 96.749C469.537 93.8281 465.736 92.126 461.651 92.126C450.61 92.126 441.646 104.56 441.646 119.875C441.647 135.19 450.61 147.623 461.651 147.623C465.736 147.623 469.537 145.921 472.705 143C472.725 142.994 472.744 142.982 472.765 142.962C473.457 142.27 474.148 141.847 474.766 141.589C475.656 141.217 476.393 141.186 476.766 141.186C479.817 141.186 481.654 143.851 481.656 146.069C481.658 144.148 481.657 196.033 481.657 199.599H535.324C537.546 199.597 540.215 197.763 540.215 194.715C540.215 194.344 540.184 193.606 539.812 192.717C539.553 192.1 539.129 191.411 538.437 190.72C538.417 190.7 538.403 190.679 538.397 190.659C535.473 187.496 533.769 183.7 533.769 179.62C533.769 168.594 546.218 159.641 561.553 159.641C576.888 159.641 589.338 168.593 589.338 179.62C589.338 183.7 587.633 187.496 584.709 190.659C584.703 190.679 584.69 190.7 584.67 190.72C582.979 192.409 582.892 194.086 582.892 194.715C582.892 197.763 585.561 199.597 587.782 199.599H695.24C697.462 199.597 700.13 197.763 700.13 194.715C700.13 194.344 700.099 193.606 699.727 192.717C699.468 192.1 699.044 191.411 698.352 190.72C698.332 190.7 698.319 190.679 698.313 190.659C695.389 187.496 693.684 183.7 693.684 179.62C693.684 168.593 706.134 159.641 721.469 159.641C736.804 159.641 749.253 168.593 749.253 179.62C749.253 183.7 747.549 187.496 744.624 190.659C744.618 190.679 744.605 190.7 744.585 190.72C742.894 192.409 742.808 194.086 742.808 194.715C742.808 197.763 745.476 199.597 747.697 199.599H801.488L801.487 253.32C801.485 255.539 799.649 258.204 796.597 258.204C795.967 258.204 794.287 258.118 792.596 256.429C792.575 256.409 792.556 256.395 792.536 256.39C789.368 253.469 785.567 251.767 781.482 251.767C770.441 251.767 761.478 264.201 761.478 279.516C761.478 294.831 770.441 307.264 781.482 307.264C785.567 307.264 789.368 305.561 792.536 302.641C792.556 302.635 792.575 302.622 792.596 302.603C793.288 301.911 793.979 301.488 794.597 301.229C795.487 300.857 796.225 300.826 796.597 300.826C799.648 300.826 801.485 303.491 801.487 305.71C801.489 307.518 801.488 355.84 801.488 359.243H855.155C857.377 359.241 860.045 357.407 860.045 354.359C860.045 353.988 860.015 353.25 859.643 352.361C859.384 351.745 858.96 351.056 858.268 350.364C858.248 350.344 858.234 350.324 858.229 350.304C855.304 347.14 853.6 343.345 853.6 339.265C853.6 328.238 866.049 319.285 881.384 319.285C896.719 319.285 909.169 328.238 909.169 339.265C909.169 343.345 907.464 347.14 904.539 350.304C904.533 350.324 904.521 350.344 904.501 350.364C902.81 352.053 902.723 353.731 902.723 354.359C902.723 357.407 905.391 359.241 907.612 359.243H961.279L961.278 305.71C961.277 304.534 960.761 303.234 959.822 302.271C958.989 301.416 957.823 300.826 956.389 300.826C956.017 300.826 955.278 300.857 954.388 301.229C953.77 301.488 953.08 301.911 952.388 302.603C952.367 302.623 952.347 302.635 952.327 302.641C949.159 305.562 945.358 307.264 941.273 307.264C930.232 307.264 921.269 294.831 921.269 279.516C921.269 264.201 930.232 251.767 941.273 251.767C945.358 251.767 949.159 253.469 952.327 256.39C952.347 256.395 952.367 256.409 952.388 256.429C954.079 258.118 955.759 258.204 956.389 258.204C959.44 258.204 961.276 255.539 961.278 253.32L961.279 199.599H1015.07C1017.29 199.597 1019.96 197.763 1019.96 194.715C1019.96 194.344 1019.93 193.606 1019.56 192.717C1019.3 192.1 1018.87 191.411 1018.18 190.72C1018.16 190.7 1018.15 190.679 1018.14 190.659C1015.22 187.496 1013.51 183.7 1013.51 179.62C1013.51 168.593 1025.96 159.641 1041.3 159.641C1056.63 159.641 1069.08 168.594 1069.08 179.62C1069.08 183.7 1067.38 187.496 1064.46 190.659C1064.45 190.679 1064.44 190.7 1064.42 190.72C1062.73 192.409 1062.64 194.086 1062.64 194.715C1062.64 197.763 1065.31 199.597 1067.53 199.599H1174.99C1177.21 199.597 1179.88 197.763 1179.88 194.715C1179.88 194.344 1179.85 193.606 1179.47 192.717C1179.21 192.1 1178.79 191.411 1178.1 190.72C1178.08 190.7 1178.07 190.679 1178.06 190.659C1175.13 187.496 1173.43 183.7 1173.43 179.62C1173.43 168.593 1185.88 159.641 1201.21 159.641C1216.55 159.641 1229 168.593 1229 179.62C1229 183.7 1227.29 187.496 1224.37 190.659C1224.36 190.679 1224.35 190.7 1224.33 190.72C1222.64 192.409 1222.55 194.086 1222.55 194.715C1222.55 197.763 1225.22 199.597 1227.44 199.599H1281.11L1281.11 146.069C1281.11 144.894 1280.59 143.593 1279.65 142.63C1278.82 141.775 1277.65 141.186 1276.22 141.186C1275.85 141.186 1275.11 141.216 1274.22 141.589C1273.6 141.847 1272.91 142.27 1272.22 142.962C1272.2 142.982 1272.18 142.994 1272.16 143C1268.99 145.921 1265.19 147.623 1261.1 147.623C1250.06 147.623 1241.1 135.19 1241.1 119.875C1241.1 104.56 1250.06 92.126 1261.1 92.126C1265.19 92.126 1268.99 93.8281 1272.16 96.749C1272.18 96.7548 1272.2 96.7681 1272.22 96.7881C1273.91 98.4771 1275.59 98.5634 1276.22 98.5635C1279.27 98.5635 1281.11 95.8983 1281.11 93.6797L1281.11 39.958H1334.9C1337.12 39.9562 1339.79 38.1221 1339.79 35.0742C1339.79 34.703 1339.76 33.9653 1339.39 33.0762C1339.13 32.4596 1338.71 31.7706 1338.01 31.0791C1337.99 31.0591 1337.98 31.0385 1337.97 31.0186C1335.05 27.8553 1333.35 24.0595 1333.35 19.9795C1333.35 8.95288 1345.8 0.000133627 1361.13 0ZM401.638 159.832C386.303 159.832 373.854 168.784 373.854 179.811C373.854 183.89 375.558 187.687 378.482 190.851C378.488 190.87 378.502 190.89 378.521 190.91C379.214 191.602 379.638 192.292 379.896 192.908C380.269 193.797 380.299 194.535 380.299 194.906C380.299 197.954 377.631 199.788 375.409 199.79H321.741L321.74 253.32C321.738 255.539 319.902 258.204 316.851 258.204C316.221 258.204 314.541 258.118 312.85 256.429C312.829 256.409 312.809 256.395 312.789 256.39C309.621 253.469 305.82 251.767 301.735 251.767C290.694 251.767 281.73 264.201 281.73 279.516C281.731 294.83 290.694 307.263 301.735 307.264C305.82 307.264 309.621 305.562 312.789 302.641C312.809 302.635 312.829 302.622 312.85 302.603C313.542 301.911 314.232 301.488 314.85 301.229C315.74 300.857 316.478 300.826 316.851 300.826C319.902 300.826 321.738 303.491 321.74 305.71C321.742 303.788 321.742 355.711 321.742 359.243H375.409C377.631 359.241 380.299 357.407 380.299 354.359C380.299 353.988 380.269 353.25 379.896 352.361C379.638 351.745 379.214 351.056 378.521 350.364C378.501 350.344 378.488 350.324 378.482 350.304C375.558 347.14 373.854 343.345 373.854 339.265C373.854 328.238 386.303 319.285 401.638 319.285C416.973 319.285 429.423 328.238 429.423 339.265C429.423 343.345 427.718 347.14 424.793 350.304C424.787 350.324 424.775 350.344 424.755 350.364C423.064 352.053 422.977 353.731 422.977 354.359C422.977 357.407 425.645 359.241 427.866 359.243H481.533L481.532 305.71C481.531 304.535 481.015 303.234 480.076 302.271C479.243 301.416 478.076 300.826 476.642 300.826C476.269 300.826 475.532 300.857 474.642 301.229C474.024 301.488 473.333 301.911 472.641 302.603C472.62 302.622 472.6 302.635 472.581 302.641C469.413 305.562 465.612 307.264 461.527 307.264C450.486 307.264 441.523 294.831 441.522 279.516C441.522 264.201 450.486 251.767 461.527 251.767C465.612 251.767 469.413 253.469 472.581 256.39C472.601 256.395 472.62 256.409 472.641 256.429C474.332 258.118 476.011 258.204 476.642 258.204C479.693 258.204 481.53 255.539 481.532 253.32V199.79H427.866C425.645 199.788 422.977 197.954 422.977 194.906C422.977 194.277 423.063 192.6 424.755 190.91C424.775 190.89 424.787 190.87 424.793 190.851C427.718 187.687 429.423 183.89 429.423 179.811C429.423 168.783 416.972 159.832 401.638 159.832ZM213.938 339.451C213.938 343.531 215.642 347.327 218.566 350.491C218.572 350.511 218.586 350.53 218.605 350.551C219.298 351.243 219.722 351.932 219.98 352.549C220.326 353.372 220.375 354.065 220.381 354.458C220.381 354.425 220.384 354.392 220.384 354.359C220.384 353.988 220.353 353.25 219.98 352.361C219.722 351.745 219.298 351.056 218.605 350.364C218.585 350.344 218.572 350.324 218.566 350.304C215.667 347.168 213.968 343.411 213.938 339.371C213.938 339.398 213.938 339.424 213.938 339.451ZM269.505 339.371C269.475 343.411 267.777 347.168 264.878 350.304C264.872 350.324 264.859 350.344 264.839 350.364C263.148 352.053 263.061 353.731 263.061 354.359C263.061 354.39 263.062 354.421 263.062 354.452C263.073 353.761 263.226 352.161 264.839 350.551C264.859 350.53 264.872 350.511 264.878 350.491C267.803 347.327 269.507 343.531 269.507 339.451C269.507 339.424 269.505 339.398 269.505 339.371ZM533.769 339.451C533.769 343.531 535.473 347.327 538.397 350.491C538.403 350.511 538.417 350.53 538.437 350.551C539.129 351.242 539.553 351.932 539.812 352.549C540.155 353.368 540.206 354.058 540.212 354.452C540.212 354.421 540.215 354.39 540.215 354.359C540.215 353.988 540.184 353.25 539.812 352.361C539.553 351.745 539.129 351.056 538.437 350.364C538.417 350.344 538.403 350.324 538.397 350.304C535.498 347.168 533.799 343.411 533.77 339.371C533.769 339.398 533.769 339.424 533.769 339.451ZM693.684 339.451C693.684 343.531 695.389 347.327 698.313 350.491C698.319 350.511 698.332 350.531 698.352 350.551C699.044 351.242 699.468 351.932 699.727 352.549C700.07 353.368 700.121 354.058 700.127 354.452C700.128 354.421 700.13 354.39 700.13 354.359C700.13 353.988 700.099 353.25 699.727 352.361C699.468 351.745 699.044 351.056 698.352 350.364C698.332 350.344 698.319 350.324 698.313 350.304C695.413 347.167 693.713 343.408 693.685 339.367C693.684 339.395 693.684 339.423 693.684 339.451ZM1013.51 339.451C1013.51 343.531 1015.22 347.327 1018.14 350.491C1018.15 350.511 1018.16 350.53 1018.18 350.551C1018.88 351.243 1019.3 351.932 1019.56 352.549C1019.9 353.368 1019.95 354.058 1019.96 354.452C1019.96 354.421 1019.96 354.39 1019.96 354.359C1019.96 353.988 1019.93 353.25 1019.56 352.361C1019.3 351.745 1018.87 351.056 1018.18 350.364C1018.16 350.344 1018.15 350.324 1018.14 350.304C1015.24 347.167 1013.54 343.408 1013.52 339.367C1013.52 339.395 1013.51 339.423 1013.51 339.451ZM1069.08 339.367C1069.05 343.408 1067.36 347.167 1064.46 350.304C1064.45 350.324 1064.44 350.344 1064.42 350.364C1062.73 352.053 1062.64 353.731 1062.64 354.359C1062.64 354.39 1062.64 354.421 1062.64 354.452C1062.65 353.761 1062.8 352.161 1064.42 350.551C1064.44 350.53 1064.45 350.511 1064.46 350.491C1067.38 347.327 1069.08 343.531 1069.08 339.451C1069.08 339.423 1069.08 339.395 1069.08 339.367ZM1173.43 339.451C1173.43 343.531 1175.13 347.327 1178.06 350.491C1178.07 350.511 1178.08 350.53 1178.1 350.551C1178.79 351.242 1179.21 351.932 1179.47 352.549C1179.82 353.368 1179.87 354.058 1179.87 354.452C1179.87 354.421 1179.88 354.39 1179.88 354.359C1179.88 353.988 1179.85 353.25 1179.47 352.361C1179.21 351.745 1178.79 351.056 1178.1 350.364C1178.08 350.344 1178.07 350.324 1178.06 350.304C1175.16 347.167 1173.46 343.408 1173.43 339.367C1173.43 339.395 1173.43 339.423 1173.43 339.451ZM1333.35 339.451C1333.35 343.531 1335.05 347.327 1337.97 350.491C1337.98 350.511 1337.99 350.53 1338.01 350.551C1338.71 351.242 1339.13 351.932 1339.39 352.549C1339.73 353.368 1339.78 354.058 1339.79 354.452C1339.79 354.421 1339.79 354.39 1339.79 354.359C1339.79 353.988 1339.76 353.25 1339.39 352.361C1339.13 351.745 1338.71 351.056 1338.01 350.364C1337.99 350.344 1337.98 350.324 1337.97 350.304C1335.07 347.167 1333.38 343.408 1333.35 339.367C1333.35 339.395 1333.35 339.423 1333.35 339.451ZM589.336 339.371C589.306 343.411 587.608 347.168 584.709 350.304C584.703 350.324 584.69 350.344 584.67 350.364C582.979 352.053 582.892 353.731 582.892 354.359C582.892 354.388 582.893 354.417 582.894 354.446C582.905 353.752 583.062 352.157 584.67 350.551C584.69 350.53 584.703 350.511 584.709 350.491C587.634 347.327 589.338 343.531 589.338 339.451C589.338 339.424 589.336 339.398 589.336 339.371ZM749.251 339.371C749.222 343.411 747.523 347.168 744.624 350.304C744.618 350.324 744.605 350.344 744.585 350.364C742.894 352.053 742.808 353.731 742.808 354.359C742.808 354.388 742.809 354.417 742.81 354.446C742.821 353.752 742.977 352.157 744.585 350.551C744.605 350.53 744.618 350.511 744.624 350.491C747.549 347.327 749.253 343.531 749.253 339.451C749.253 339.424 749.251 339.398 749.251 339.371ZM1229 339.367C1228.97 343.408 1227.27 347.167 1224.37 350.304C1224.36 350.324 1224.35 350.344 1224.33 350.364C1222.64 352.053 1222.55 353.731 1222.55 354.359C1222.55 354.388 1222.56 354.417 1222.56 354.446C1222.57 353.752 1222.72 352.157 1224.33 350.551C1224.35 350.531 1224.36 350.511 1224.37 350.491C1227.29 347.327 1229 343.531 1229 339.451C1229 339.423 1229 339.395 1229 339.367ZM1388.91 339.375C1388.88 343.413 1387.18 347.169 1384.29 350.304C1384.28 350.324 1384.27 350.344 1384.25 350.364C1382.56 352.053 1382.47 353.731 1382.47 354.359C1382.47 354.388 1382.47 354.418 1382.47 354.446C1382.48 353.752 1382.64 352.157 1384.25 350.551C1384.27 350.53 1384.28 350.511 1384.29 350.491C1387.21 347.327 1388.92 343.531 1388.92 339.451C1388.92 339.426 1388.91 339.4 1388.91 339.375ZM636.558 300.826C636.186 300.826 635.447 300.857 634.557 301.229C633.939 301.488 633.249 301.911 632.557 302.603C632.536 302.622 632.516 302.635 632.496 302.641C629.346 305.545 625.571 307.243 621.513 307.263C621.531 307.263 621.548 307.264 621.566 307.264C625.651 307.264 629.452 305.562 632.62 302.641C632.64 302.635 632.66 302.623 632.681 302.603C633.373 301.911 634.063 301.488 634.681 301.229C635.528 300.875 636.238 300.831 636.625 300.827C636.603 300.827 636.58 300.826 636.558 300.826ZM1116.3 300.826C1115.93 300.826 1115.19 300.857 1114.3 301.229C1113.69 301.488 1113 301.911 1112.3 302.603C1112.28 302.622 1112.26 302.635 1112.24 302.641C1109.09 305.545 1105.32 307.243 1101.26 307.263C1101.28 307.263 1101.29 307.264 1101.31 307.264C1105.4 307.264 1109.2 305.562 1112.37 302.641C1112.39 302.635 1112.41 302.622 1112.43 302.603C1113.12 301.911 1113.81 301.488 1114.43 301.229C1115.27 300.875 1115.98 300.831 1116.37 300.827C1116.35 300.827 1116.33 300.826 1116.3 300.826ZM1276.22 300.826C1275.85 300.826 1275.11 300.857 1274.22 301.229C1273.6 301.488 1272.91 301.911 1272.22 302.603C1272.2 302.622 1272.18 302.635 1272.16 302.641C1269.01 305.545 1265.23 307.243 1261.17 307.263C1261.19 307.263 1261.21 307.264 1261.23 307.264C1265.31 307.264 1269.11 305.562 1272.28 302.641C1272.3 302.635 1272.32 302.622 1272.34 302.603C1273.03 301.911 1273.73 301.488 1274.34 301.229C1275.19 300.875 1275.9 300.831 1276.29 300.827C1276.26 300.827 1276.24 300.826 1276.22 300.826ZM621.513 251.767C625.571 251.786 629.346 253.486 632.496 256.39C632.516 256.395 632.536 256.409 632.557 256.429C634.248 258.118 635.928 258.204 636.558 258.204C636.577 258.204 636.596 258.202 636.615 258.202C635.94 258.195 634.316 258.062 632.681 256.429C632.66 256.409 632.64 256.395 632.62 256.39C629.452 253.469 625.651 251.767 621.566 251.767C621.548 251.767 621.531 251.767 621.513 251.767ZM1101.26 251.767C1105.32 251.786 1109.09 253.485 1112.24 256.39C1112.26 256.395 1112.28 256.409 1112.3 256.429C1113.99 258.118 1115.67 258.204 1116.3 258.204C1116.32 258.204 1116.34 258.202 1116.36 258.202C1115.69 258.195 1114.06 258.062 1112.43 256.429C1112.41 256.409 1112.39 256.395 1112.37 256.39C1109.2 253.469 1105.4 251.767 1101.31 251.767C1101.29 251.767 1101.28 251.767 1101.26 251.767ZM1261.17 251.767C1265.23 251.786 1269.01 253.486 1272.16 256.39C1272.18 256.395 1272.2 256.409 1272.22 256.429C1273.91 258.118 1275.59 258.204 1276.22 258.204C1276.24 258.204 1276.26 258.202 1276.28 258.202C1275.6 258.195 1273.98 258.061 1272.34 256.429C1272.32 256.409 1272.3 256.395 1272.28 256.39C1269.11 253.469 1265.31 251.767 1261.23 251.767C1261.21 251.767 1261.19 251.767 1261.17 251.767ZM1333.35 179.811C1333.35 183.89 1335.05 187.687 1337.97 190.851C1337.98 190.87 1337.99 190.89 1338.01 190.91C1338.71 191.602 1339.13 192.292 1339.39 192.908C1339.73 193.73 1339.78 194.422 1339.79 194.815C1339.79 194.782 1339.79 194.748 1339.79 194.715C1339.79 194.344 1339.76 193.606 1339.39 192.717C1339.13 192.1 1338.71 191.411 1338.01 190.72C1337.99 190.7 1337.98 190.679 1337.97 190.659C1335.08 187.524 1333.38 183.767 1333.35 179.729C1333.35 179.756 1333.35 179.783 1333.35 179.811ZM1388.91 179.733C1388.88 183.77 1387.18 187.525 1384.29 190.659C1384.28 190.679 1384.27 190.7 1384.25 190.72C1382.56 192.409 1382.47 194.086 1382.47 194.715C1382.47 194.745 1382.47 194.774 1382.47 194.804C1382.48 194.109 1382.64 192.515 1384.25 190.91C1384.27 190.89 1384.28 190.87 1384.29 190.851C1387.21 187.687 1388.92 183.89 1388.92 179.811C1388.92 179.785 1388.91 179.759 1388.91 179.733Z" fill="#FBEEBF"/>
</svg>
