<?xml version="1.0" encoding="UTF-8" standalone="no"?>
<!DOCTYPE svg PUBLIC "-//W3C//DTD SVG 1.1//EN" "http://www.w3.org/Graphics/SVG/1.1/DTD/svg11.dtd">
<svg width="100%" height="100%" viewBox="0 0 453 453" version="1.1" xmlns="http://www.w3.org/2000/svg" xmlns:xlink="http://www.w3.org/1999/xlink" xml:space="preserve" xmlns:serif="http://www.serif.com/" style="fill-rule:evenodd;clip-rule:evenodd;stroke-linecap:round;stroke-linejoin:round;stroke-miterlimit:1.5;">
    <g transform="matrix(1,0,0,1,-240.746649,-112.75)">
        <path d="M331.997,443C331.994,440.352 330.834,437.422 328.721,435.252C326.847,433.327 324.224,432 320.997,432C320.16,432 318.5,432.068 316.497,432.907C315.108,433.489 313.555,434.442 311.997,436C311.951,436.045 311.906,436.074 311.862,436.087C304.736,442.666 296.186,446.5 286.997,446.5C262.16,446.5 241.997,418.495 241.997,384C241.997,349.505 262.16,321.5 286.997,321.5C296.186,321.5 304.736,325.334 311.862,331.913C311.906,331.926 311.951,331.955 311.997,332C315.802,335.805 319.58,336 320.997,336C327.862,336 331.992,329.997 331.997,325L332,204L453,204C457.997,203.996 464,199.865 464,193C464,192.164 463.932,190.503 463.093,188.5C462.511,187.111 461.558,185.558 460,184C459.955,183.955 459.926,183.91 459.913,183.865C453.334,176.74 449.5,168.19 449.5,159C449.5,134.164 477.505,114 512,114C546.495,114 574.5,134.164 574.5,159C574.5,168.19 570.666,176.74 564.087,183.865C564.074,183.91 564.045,183.955 564,184C560.195,187.805 560,191.584 560,193C560,199.865 566.003,203.996 571,204L692,204L691.997,325C691.992,329.997 687.862,336 680.997,336C679.58,336 675.802,335.805 671.997,332C671.951,331.955 671.906,331.926 671.862,331.913C664.736,325.334 656.186,321.5 646.997,321.5C622.16,321.5 601.997,349.505 601.997,384C601.997,418.495 622.16,446.5 646.997,446.5C656.186,446.5 664.736,442.666 671.862,436.087C671.906,436.074 671.951,436.045 671.997,436C673.555,434.442 675.108,433.489 676.497,432.907C678.5,432.068 680.16,432 680.997,432C687.862,432 691.992,438.003 691.997,443C692.001,438.51 692,564 692,564L571,563.997C566.003,563.992 560,559.862 560,552.997C560,551.58 560.195,547.802 564,543.997C564.045,543.951 564.074,543.906 564.087,543.862C570.666,536.736 574.5,528.186 574.5,518.997C574.5,494.16 546.495,473.997 512,473.997C477.505,473.997 449.5,494.16 449.5,518.997C449.5,528.186 453.334,536.736 459.913,543.862C459.926,543.906 459.955,543.951 460,543.997C461.558,545.555 462.511,547.108 463.093,548.497C463.932,550.5 464,552.16 464,552.997C464,559.862 457.997,563.992 453,563.997L332,564L331.997,443" style="fill:rgb(14,101,192);stroke:white;stroke-width:2.5px;"/>
    </g>
</svg>
