<svg width="1441" height="520" viewBox="0 0 1441 520" fill="none" xmlns="http://www.w3.org/2000/svg">
<path d="M1040.36 519.078C1025.03 519.078 1012.58 510.125 1012.58 499.099C1012.58 495.019 1014.28 491.223 1017.21 488.06C1017.21 488.04 1017.23 488.02 1017.25 488C1018.94 486.311 1019.02 484.633 1019.02 484.004C1019.02 480.956 1016.36 479.122 1014.13 479.12L960.343 479.12L960.344 425.398C960.346 423.18 962.183 420.515 965.234 420.515C965.865 420.515 967.544 420.601 969.235 422.29C969.256 422.31 969.275 422.323 969.295 422.329C972.463 425.25 976.264 426.952 980.349 426.952C991.39 426.952 1000.35 414.518 1000.35 399.203C1000.35 383.888 991.39 371.455 980.349 371.455C976.264 371.455 972.463 373.157 969.295 376.078C969.276 376.084 969.256 376.096 969.235 376.116C968.543 376.808 967.852 377.231 967.234 377.489C966.344 377.862 965.607 377.893 965.234 377.893C962.183 377.893 960.346 375.227 960.344 373.009C960.342 374.93 960.343 323.045 960.343 319.479L906.676 319.479C904.454 319.481 901.785 321.315 901.785 324.363C901.785 324.734 901.816 325.472 902.188 326.361C902.447 326.978 902.871 327.668 903.563 328.359C903.583 328.379 903.597 328.399 903.603 328.419C906.527 331.582 908.231 335.378 908.231 339.458C908.231 350.485 895.782 359.437 880.447 359.437C865.112 359.437 852.662 350.485 852.662 339.458C852.662 335.378 854.367 331.582 857.291 328.419C857.297 328.399 857.31 328.379 857.33 328.359C859.021 326.67 859.108 324.992 859.108 324.363C859.108 321.315 856.439 319.481 854.218 319.479L800.427 319.479L800.429 265.758C800.431 263.539 802.267 260.874 805.318 260.874C805.948 260.874 807.628 260.96 809.319 262.649C809.34 262.669 809.36 262.683 809.38 262.688C812.548 265.609 816.349 267.311 820.434 267.311C831.475 267.311 840.438 254.877 840.439 239.562C840.438 224.248 831.475 211.814 820.434 211.814C816.349 211.814 812.548 213.516 809.38 216.437C809.36 216.443 809.34 216.456 809.319 216.476C808.627 217.167 807.937 217.59 807.319 217.849C806.429 218.221 805.69 218.252 805.318 218.252C802.267 218.252 800.431 215.587 800.429 213.368C800.427 215.291 800.427 163.366 800.427 159.835L746.76 159.835C744.538 159.837 741.87 161.671 741.87 164.719C741.87 165.09 741.901 165.828 742.273 166.717C742.532 167.333 742.956 168.023 743.648 168.715C743.668 168.735 743.681 168.754 743.687 168.774C746.611 171.938 748.316 175.733 748.316 179.813C748.316 190.84 735.866 199.793 720.531 199.793C705.196 199.793 692.747 190.84 692.747 179.813C692.747 175.733 694.451 171.938 697.376 168.774C697.382 168.754 697.395 168.735 697.415 168.715C699.106 167.026 699.192 165.347 699.192 164.719C699.192 161.671 696.524 159.837 694.303 159.835L586.845 159.835C584.623 159.837 581.955 161.671 581.955 164.719C581.955 165.09 581.985 165.828 582.357 166.717C582.616 167.333 583.04 168.023 583.732 168.715C583.752 168.735 583.766 168.754 583.772 168.774C586.696 171.938 588.4 175.733 588.4 179.813C588.4 190.84 575.951 199.793 560.616 199.793C545.281 199.793 532.831 190.84 532.831 179.813C532.831 175.733 534.536 171.938 537.461 168.774C537.467 168.754 537.479 168.735 537.499 168.715C539.19 167.026 539.277 165.347 539.277 164.719C539.277 161.671 536.609 159.837 534.388 159.835L480.721 159.835L480.722 213.368C480.723 214.544 481.239 215.844 482.178 216.808C483.011 217.662 484.177 218.252 485.611 218.252C485.983 218.252 486.722 218.221 487.612 217.849C488.23 217.59 488.92 217.167 489.612 216.476C489.633 216.456 489.653 216.443 489.673 216.437C492.841 213.516 496.642 211.814 500.727 211.814C511.768 211.814 520.731 224.248 520.731 239.562C520.731 254.878 511.768 267.311 500.727 267.311C496.642 267.311 492.841 265.609 489.673 262.688C489.653 262.683 489.633 262.669 489.612 262.649C487.921 260.96 486.241 260.874 485.611 260.874C482.56 260.874 480.724 263.539 480.722 265.758L480.721 319.479L426.93 319.479C424.708 319.481 422.039 321.315 422.039 324.363C422.039 324.734 422.069 325.472 422.442 326.361C422.701 326.978 423.125 327.668 423.817 328.359C423.837 328.379 423.851 328.399 423.856 328.419C426.781 331.582 428.485 335.378 428.485 339.458C428.485 350.485 416.035 359.437 400.7 359.437C385.365 359.437 372.916 350.485 372.916 339.458C372.916 335.378 374.62 331.582 377.545 328.419C377.551 328.399 377.564 328.379 377.584 328.359C379.275 326.67 379.362 324.992 379.362 324.363C379.362 321.315 376.693 319.481 374.472 319.479L267.014 319.479C264.792 319.481 262.124 321.315 262.124 324.363C262.124 324.734 262.154 325.472 262.527 326.361C262.786 326.978 263.21 327.668 263.902 328.359C263.922 328.379 263.935 328.399 263.94 328.419C266.865 331.582 268.57 335.378 268.57 339.458C268.57 350.485 256.12 359.437 240.785 359.437C225.45 359.437 213.001 350.485 213.001 339.458C213.001 335.378 214.705 331.582 217.63 328.419C217.636 328.399 217.649 328.379 217.669 328.359C219.36 326.67 219.446 324.992 219.446 324.363C219.446 321.315 216.778 319.481 214.557 319.479L160.766 319.479L160.767 265.758C160.769 263.539 162.605 260.874 165.657 260.874C166.287 260.874 167.967 260.96 169.658 262.649C169.679 262.669 169.698 262.683 169.718 262.688C172.886 265.609 176.687 267.311 180.772 267.311C191.813 267.311 200.776 254.877 200.776 239.562C200.776 224.247 191.813 211.814 180.772 211.814C176.687 211.814 172.886 213.517 169.718 216.437C169.698 216.443 169.678 216.456 169.658 216.475C168.966 217.167 168.275 217.591 167.657 217.849C166.767 218.222 166.029 218.252 165.657 218.252C162.605 218.252 160.769 215.587 160.767 213.368C160.765 211.559 160.766 163.237 160.766 159.835L107.099 159.835C104.877 159.837 102.208 161.671 102.208 164.719C102.208 165.09 102.238 165.827 102.611 166.717C102.87 167.333 103.294 168.023 103.986 168.715C104.006 168.735 104.02 168.754 104.025 168.774C106.95 171.938 108.654 175.734 108.654 179.814C108.654 190.841 96.2046 199.793 80.8701 199.793C65.5355 199.793 53.0854 190.841 53.085 179.814C53.085 175.734 54.7893 171.938 57.7139 168.774C57.7196 168.754 57.7331 168.735 57.753 168.715C59.4444 167.025 59.5313 165.347 59.5313 164.719C59.5313 161.671 56.8621 159.837 54.6407 159.835L0.849641 159.835L0.851599 107.078L3.60182e-05 107.078L4.53724e-05 0.0779991L0.849655 0.0779992C0.849655 0.0287911 0.849655 0.00305082 0.849655 0.00182729L54.6407 0.00280856C54.8984 0.00306527 55.1619 0.029401 55.4268 0.0780039L106.313 0.0780084C106.577 0.0294055 106.841 0.00306981 107.099 0.00281314L160.767 0.00281783L160.766 0.00184127L160.828 0.00281784L160.89 0.00184128L160.891 0.00281785L214.557 0.00282254C214.814 0.00308172 215.078 0.0294093 215.343 0.0780179L266.228 0.0780224C266.492 0.0294006 266.756 0.0031032 267.014 0.00282712L320.682 0.00283181L320.681 0.00185525L320.743 0.00283182L320.805 0.00185526L320.806 0.00283183L374.472 0.00283652C374.729 0.00309409 374.993 0.0294288 375.258 0.0780319L426.144 0.0780363C426.409 0.0294333 426.672 0.00309863 426.93 0.0028411L480.598 0.0028458L480.597 0.00186923L480.659 0.0028458L480.721 0.00186924L480.722 0.00284581L534.388 0.0028505C534.645 0.00312524 534.909 0.0294258 535.174 0.0780459L586.059 0.0780503C586.324 0.0294414 586.587 0.0031156 586.845 0.00285508L640.513 0.00285978L640.512 0.00188321L640.574 0.00285978L640.636 0.00188322L640.637 0.00285979L694.303 0.00286448C694.561 0.00312366 694.824 0.029452 695.089 0.0780599L745.974 0.0780643C746.239 0.0294432 746.502 0.00314514 746.76 0.00286906L800.428 0.00287376L800.427 0.00189719L800.489 0.00287376L800.551 0.0018972L800.552 0.00287377L854.218 0.00287846C854.476 0.00313603 854.739 0.0294721 855.004 0.0780738L905.89 0.0780783C906.155 0.0294766 906.418 0.00314057 906.676 0.00288304L960.344 0.00288774L960.343 0.00191117L960.405 0.00288774L960.467 0.00191118L960.468 0.00288775L1014.13 0.00289244C1014.39 0.00316913 1014.66 0.029467 1014.92 0.0780878L1065.8 0.0780923C1066.07 0.0294856 1066.33 0.0031556 1066.59 0.00289702L1120.26 0.00290172L1120.26 0.00192515L1120.32 0.00290172L1120.38 0.00192516L1120.38 0.00290173L1174.05 0.00290642C1174.31 0.00316399 1174.57 0.0295008 1174.84 0.0781018L1225.72 0.0781062C1225.99 0.0295053 1226.25 0.00316853 1226.51 0.002911L1280.17 0.0029157L1280.17 0.00193913L1280.24 0.0029157L1280.3 0.00193914L1280.3 0.00291571L1333.96 0.0029204C1334.22 0.00317711 1334.49 0.0295157 1334.75 0.0781158L1385.64 0.0781202C1385.9 0.0295202 1386.16 0.00318166 1386.42 0.00292498L1440.21 0.00195312L1440.21 53.7236L1440.21 106.113L1440.21 159.835L1386.42 159.835C1384.2 159.837 1381.53 161.671 1381.53 164.719C1381.53 165.09 1381.56 165.828 1381.93 166.717C1382.19 167.333 1382.62 168.022 1383.31 168.714C1383.33 168.734 1383.34 168.754 1383.35 168.774C1386.27 171.938 1387.98 175.733 1387.98 179.813C1387.98 190.84 1375.53 199.793 1360.19 199.793C1344.86 199.793 1332.41 190.84 1332.41 179.813C1332.41 175.734 1334.11 171.938 1337.04 168.774C1337.04 168.754 1337.06 168.734 1337.08 168.714C1338.77 167.025 1338.85 165.348 1338.85 164.719C1338.85 161.671 1336.19 159.837 1333.96 159.835L1226.51 159.835C1224.29 159.837 1221.62 161.671 1221.62 164.719C1221.62 165.09 1221.65 165.828 1222.02 166.717C1222.28 167.333 1222.7 168.022 1223.39 168.714C1223.41 168.734 1223.43 168.754 1223.43 168.774C1226.36 171.938 1228.06 175.734 1228.06 179.813C1228.06 190.84 1215.61 199.793 1200.28 199.793C1184.94 199.793 1172.49 190.84 1172.49 179.813C1172.49 175.733 1174.2 171.938 1177.12 168.774C1177.13 168.754 1177.14 168.734 1177.16 168.714C1178.85 167.025 1178.94 165.348 1178.94 164.719C1178.94 161.671 1176.27 159.837 1174.05 159.835L1066.59 159.835C1064.37 159.837 1061.7 161.671 1061.7 164.719C1061.7 165.09 1061.73 165.828 1062.1 166.717C1062.36 167.333 1062.79 168.023 1063.48 168.715C1063.5 168.735 1063.51 168.754 1063.52 168.774C1066.44 171.938 1068.15 175.733 1068.15 179.813C1068.15 190.84 1055.7 199.793 1040.36 199.793C1025.03 199.793 1012.58 190.84 1012.58 179.813C1012.58 175.733 1014.28 171.938 1017.21 168.774C1017.21 168.755 1017.23 168.735 1017.25 168.715C1018.94 167.026 1019.02 165.348 1019.02 164.719C1019.02 161.671 1016.36 159.837 1014.13 159.835L960.467 159.835L960.468 213.368C960.469 214.544 960.985 215.844 961.924 216.808C962.757 217.662 963.924 218.252 965.358 218.252C965.731 218.252 966.468 218.221 967.358 217.849C967.976 217.59 968.667 217.167 969.359 216.476C969.38 216.456 969.4 216.443 969.419 216.437C972.587 213.517 976.388 211.814 980.473 211.814C991.514 211.814 1000.48 224.248 1000.48 239.562C1000.48 254.878 991.514 267.311 980.473 267.311C976.388 267.311 972.587 265.609 969.419 262.688C969.399 262.683 969.38 262.669 969.359 262.649C967.668 260.96 965.989 260.874 965.358 260.874C962.307 260.874 960.47 263.539 960.468 265.758L960.468 319.288L1014.13 319.288C1016.36 319.29 1019.02 321.124 1019.02 324.172C1019.02 324.801 1018.94 326.479 1017.25 328.168C1017.23 328.188 1017.21 328.208 1017.21 328.228C1014.28 331.391 1012.58 335.188 1012.58 339.268C1012.58 350.295 1025.03 359.246 1040.36 359.246C1055.7 359.246 1068.15 350.295 1068.15 339.268C1068.15 335.188 1066.44 331.391 1063.52 328.228C1063.51 328.208 1063.5 328.188 1063.48 328.168C1062.79 327.476 1062.36 326.787 1062.1 326.17C1061.73 325.281 1061.7 324.543 1061.7 324.172C1061.7 321.124 1064.37 319.29 1066.59 319.288L1120.38 319.287L1120.38 373.009C1120.38 374.184 1120.9 375.485 1121.84 376.448C1122.67 377.303 1123.84 377.893 1125.27 377.893C1125.65 377.893 1126.38 377.862 1127.27 377.489C1127.89 377.231 1128.58 376.808 1129.27 376.116C1129.29 376.096 1129.31 376.084 1129.33 376.078C1132.5 373.157 1136.3 371.455 1140.39 371.455C1151.43 371.455 1160.39 383.888 1160.39 399.203C1160.39 414.518 1151.43 426.952 1140.39 426.952C1136.3 426.952 1132.5 425.25 1129.33 422.329C1129.31 422.323 1129.29 422.31 1129.27 422.29C1127.58 420.601 1125.9 420.515 1125.27 420.515C1122.22 420.515 1120.39 423.18 1120.38 425.398L1120.38 479.12L1066.59 479.12C1064.37 479.122 1061.7 480.956 1061.7 484.004C1061.7 484.375 1061.73 485.113 1062.1 486.002C1062.36 486.619 1062.79 487.308 1063.48 488C1063.5 488.02 1063.51 488.04 1063.52 488.06C1066.44 491.223 1068.15 495.019 1068.15 499.099C1068.15 510.125 1055.7 519.078 1040.36 519.078ZM1300.23 107.667C1298.85 107.66 1297.5 107.457 1296.19 107.078L1296.07 107.078C1297.39 107.464 1298.77 107.667 1300.18 107.667C1300.2 107.667 1300.22 107.667 1300.23 107.667ZM1140.32 107.667C1138.93 107.66 1137.58 107.458 1136.27 107.078L1136.15 107.078C1137.48 107.464 1138.85 107.667 1140.26 107.667C1140.28 107.667 1140.3 107.667 1140.32 107.667ZM980.402 107.667C979.017 107.66 977.665 107.457 976.359 107.078L976.234 107.078C977.562 107.464 978.939 107.667 980.349 107.667C980.367 107.667 980.385 107.667 980.402 107.667ZM820.487 107.667C819.102 107.66 817.75 107.457 816.444 107.078L816.319 107.078C817.647 107.464 819.024 107.667 820.434 107.667C820.452 107.667 820.469 107.667 820.487 107.667ZM660.571 107.667C659.186 107.66 657.834 107.457 656.528 107.078L656.403 107.078C657.731 107.464 659.108 107.667 660.518 107.667C660.535 107.667 660.554 107.667 660.571 107.667ZM500.656 107.667C499.271 107.66 497.919 107.457 496.613 107.078L496.488 107.078C497.816 107.464 499.192 107.667 500.603 107.667C500.62 107.667 500.638 107.667 500.656 107.667ZM340.741 107.667C339.356 107.66 338.004 107.457 336.698 107.078L336.573 107.078C337.901 107.464 339.277 107.667 340.688 107.667C340.705 107.667 340.723 107.667 340.741 107.667ZM180.825 107.667C179.44 107.66 178.088 107.457 176.782 107.078L176.657 107.078C177.985 107.464 179.361 107.667 180.772 107.667C180.789 107.667 180.807 107.667 180.825 107.667ZM908.231 179.627C908.231 175.547 906.527 171.751 903.603 168.587C903.597 168.567 903.583 168.548 903.564 168.527C902.871 167.836 902.447 167.146 902.189 166.529C901.843 165.706 901.794 165.013 901.788 164.62C901.787 164.653 901.785 164.686 901.785 164.719C901.785 165.09 901.816 165.828 902.189 166.717C902.447 167.333 902.871 168.023 903.564 168.715C903.583 168.735 903.597 168.754 903.603 168.774C906.502 171.91 908.201 175.667 908.23 179.707C908.231 179.68 908.231 179.654 908.231 179.627ZM428.485 179.627C428.485 175.547 426.781 171.751 423.856 168.587C423.851 168.567 423.837 168.548 423.817 168.527C423.125 167.836 422.701 167.146 422.442 166.529C422.097 165.706 422.048 165.013 422.042 164.62C422.041 164.653 422.039 164.686 422.039 164.719C422.039 165.09 422.069 165.828 422.442 166.717C422.701 167.333 423.125 168.023 423.817 168.715C423.837 168.735 423.851 168.754 423.856 168.774C426.756 171.91 428.455 175.667 428.484 179.707C428.485 179.68 428.485 179.654 428.485 179.627ZM372.918 179.707C372.947 175.667 374.646 171.91 377.545 168.774C377.551 168.754 377.564 168.735 377.584 168.715C379.275 167.026 379.362 165.347 379.362 164.719C379.362 164.688 379.361 164.657 379.36 164.626C379.35 165.317 379.197 166.917 377.584 168.527C377.564 168.548 377.551 168.567 377.545 168.587C374.62 171.751 372.916 175.547 372.916 179.627C372.916 179.654 372.918 179.68 372.918 179.707ZM268.57 179.627C268.57 175.547 266.865 171.751 263.94 168.587C263.935 168.567 263.922 168.547 263.902 168.527C263.21 167.836 262.786 167.146 262.527 166.529C262.184 165.71 262.133 165.02 262.127 164.626C262.126 164.657 262.124 164.688 262.124 164.719C262.124 165.09 262.154 165.828 262.527 166.717C262.786 167.333 263.21 168.023 263.902 168.715C263.922 168.735 263.935 168.754 263.94 168.774C266.841 171.911 268.541 175.67 268.569 179.711C268.57 179.683 268.57 179.655 268.57 179.627ZM852.664 179.707C852.694 175.668 854.392 171.91 857.291 168.774C857.297 168.754 857.31 168.735 857.33 168.715C859.021 167.026 859.108 165.348 859.108 164.719C859.108 164.69 859.107 164.661 859.106 164.632C859.095 165.326 858.938 166.921 857.33 168.527C857.31 168.548 857.297 168.567 857.291 168.587C854.366 171.751 852.662 175.547 852.662 179.627C852.662 179.654 852.664 179.68 852.664 179.707ZM213.003 179.707C213.032 175.667 214.731 171.91 217.63 168.774C217.636 168.754 217.649 168.735 217.669 168.715C219.36 167.026 219.446 165.347 219.446 164.719C219.446 164.69 219.445 164.661 219.444 164.632C219.433 165.326 219.277 166.921 217.669 168.527C217.649 168.548 217.636 168.567 217.63 168.587C214.705 171.751 213.001 175.547 213.001 179.627C213.001 179.654 213.003 179.68 213.003 179.707ZM325.696 218.252C326.068 218.252 326.807 218.222 327.697 217.85C328.315 217.591 329.005 217.167 329.697 216.475C329.718 216.456 329.738 216.443 329.758 216.437C332.908 213.533 336.683 211.835 340.741 211.815C340.723 211.815 340.705 211.814 340.688 211.814C336.603 211.814 332.802 213.517 329.634 216.437C329.614 216.443 329.594 216.456 329.573 216.475C328.881 217.167 328.191 217.59 327.573 217.849C326.726 218.203 326.016 218.247 325.629 218.251C325.651 218.251 325.674 218.252 325.696 218.252ZM340.741 267.311C336.683 267.292 332.908 265.593 329.758 262.688C329.738 262.683 329.718 262.669 329.697 262.649C328.006 260.96 326.326 260.874 325.696 260.874C325.677 260.874 325.658 260.876 325.639 260.876C326.314 260.883 327.938 261.016 329.573 262.649C329.594 262.669 329.614 262.683 329.634 262.688C332.802 265.609 336.603 267.311 340.688 267.311C340.705 267.311 340.723 267.311 340.741 267.311Z" fill="#FBEEBF"/>
</svg>
