<svg width="451" height="450" viewBox="0 0 451 450" fill="none" xmlns="http://www.w3.org/2000/svg">
<g clip-path="url(#clip0_1294_17933)">
<path fill-rule="evenodd" clip-rule="evenodd" d="M90.0004 329C89.9974 326.352 88.8374 323.422 86.7244 321.252C84.8504 319.327 82.2274 318 79.0004 318C78.1634 318 76.5034 318.068 74.5004 318.907C73.1114 319.489 71.5584 320.442 70.0004 322C69.9544 322.045 69.9094 322.074 69.8654 322.087C62.7394 328.666 54.1894 332.5 45.0004 332.5C20.1634 332.5 0.000366211 304.495 0.000366211 270C0.000366211 235.505 20.1634 207.5 45.0004 207.5C54.1894 207.5 62.7394 211.334 69.8654 217.913C69.9094 217.926 69.9544 217.955 70.0004 218C73.8054 221.805 77.5834 222 79.0004 222C85.8654 222 89.9954 215.997 90.0004 211L90.0034 90H211.003C216 89.996 222.003 85.865 222.003 79C222.003 78.164 221.935 76.503 221.096 74.5C220.514 73.111 219.561 71.558 218.003 70C217.958 69.955 217.929 69.91 217.916 69.865C211.337 62.74 207.503 54.19 207.503 45C207.503 20.164 235.508 0 270.003 0C304.498 0 332.503 20.164 332.503 45C332.503 54.19 328.669 62.74 322.09 69.865C322.077 69.91 322.048 69.955 322.003 70C318.198 73.805 318.003 77.584 318.003 79C318.003 85.865 324.006 89.996 329.003 90H450.003L450 211C449.995 215.997 445.865 222 439 222C437.583 222 433.805 221.805 430 218C429.954 217.955 429.909 217.926 429.865 217.913C422.739 211.334 414.189 207.5 405 207.5C380.163 207.5 360 235.505 360 270C360 304.495 380.163 332.5 405 332.5C414.189 332.5 422.739 328.666 429.865 322.087C429.909 322.074 429.954 322.045 430 322C431.558 320.442 433.111 319.489 434.5 318.907C436.503 318.068 438.163 318 439 318C445.865 318 449.995 324.003 450 329C450.004 324.51 450.003 450 450.003 450L329.003 449.997C324.006 449.992 318.003 445.862 318.003 438.997C318.003 437.58 318.198 433.802 322.003 429.997C322.048 429.951 322.077 429.906 322.09 429.862C328.669 422.736 332.503 414.186 332.503 404.997C332.503 380.16 304.498 359.997 270.003 359.997C235.508 359.997 207.503 380.16 207.503 404.997C207.503 414.186 211.337 422.736 217.916 429.862C217.929 429.906 217.958 429.951 218.003 429.997C219.561 431.555 220.514 433.108 221.096 434.497C221.935 436.5 222.003 438.16 222.003 438.997C222.003 445.862 216 449.992 211.003 449.997L90.0034 450L90.0004 329Z" fill="#A4A9B0"/>
</g>
<defs>
<clipPath id="clip0_1294_17933">
<rect width="451" height="450" fill="white"/>
</clipPath>
</defs>
</svg>
