<svg width="482" height="153" viewBox="0 0 482 153" fill="none" xmlns="http://www.w3.org/2000/svg">
<path d="M72.0036 11.8776C72.1777 11.3555 72.2647 10.8914 72.2647 10.4854C72.2647 10.0503 72.2067 9.68773 72.0906 9.39769C71.9746 9.07864 71.7281 8.8176 71.351 8.61457C71.003 8.41153 70.6839 8.25201 70.3939 8.13599C70.1038 8.01997 69.6688 7.91846 69.0887 7.83144C68.5376 7.74443 68.059 7.68642 67.653 7.65742C67.2759 7.62841 66.7683 7.58491 66.1302 7.5269C65.8982 7.29486 65.7822 6.81629 65.7822 6.09118C65.7822 5.36606 65.8982 4.85849 66.1302 4.56844C70.887 4.68446 74.15 4.74247 75.9192 4.74247C77.6305 4.74247 80.2119 4.68446 83.6634 4.56844C83.9535 4.85849 84.0985 5.36606 84.0985 6.09118C84.0985 6.78728 83.9535 7.26586 83.6634 7.5269C81.4011 7.64292 79.7188 8.15049 78.6167 9.04963C77.5435 9.91977 76.6734 11.2105 76.0063 12.9217L58.0815 60.9531C57.5594 62.4904 56.8778 63.259 56.0367 63.259C55.2245 63.288 54.5429 62.4904 53.9919 60.8661L43.7678 31.2816C43.1877 29.6283 42.7671 28.8017 42.5061 28.8017C42.158 28.8017 41.6504 29.5413 40.9833 31.0205L27.7138 60.8661C26.9887 62.4614 26.2201 63.2735 25.4079 63.3025C24.6248 63.3025 23.9722 62.4904 23.4501 60.8661L6.70005 12.6607C5.91693 10.3403 5.17732 8.93362 4.48121 8.44054C3.8141 7.94746 2.43639 7.64292 0.348069 7.5269C0.116034 7.29486 1.56462e-05 6.81629 1.56462e-05 6.09118C1.56462e-05 5.36606 0.116034 4.85849 0.348069 4.56844C3.7996 4.68446 6.56953 4.74247 8.65785 4.74247C11.6163 4.74247 15.0533 4.68446 18.9689 4.56844C19.259 4.85849 19.404 5.36606 19.404 6.09118C19.433 6.78728 19.288 7.26586 18.9689 7.5269C17.1417 7.64292 15.822 7.93296 15.0098 8.39703C14.2267 8.8611 14.0672 9.81825 14.5313 11.2685L27.5398 50.6421L27.9313 50.7291L39.4606 24.625C39.9827 23.4359 40.2582 22.3917 40.2872 21.4926C40.2872 20.9705 40.0697 20.0568 39.6346 18.7516L37.5898 12.8347C36.4006 9.4992 33.9063 7.72993 30.1067 7.5269C29.8746 7.29486 29.7586 6.81629 29.7586 6.09118C29.7586 5.36606 29.8746 4.85849 30.1067 4.56844C33.9063 4.68446 36.8792 4.74247 39.0255 4.74247C41.5779 4.74247 45.2905 4.68446 50.1633 4.56844C50.4533 4.85849 50.5983 5.36606 50.5983 6.09118C50.5983 6.78728 50.4533 7.26586 50.1633 7.5269C49.3221 7.58491 48.713 7.64292 48.336 7.70092C47.9589 7.75893 47.4368 7.90396 46.7697 8.13599C46.1316 8.36803 45.7546 8.65807 45.6386 9.00613C45.5225 9.32518 45.3485 9.81825 45.1165 10.4854C44.9135 11.1235 45.0585 11.9066 45.5516 12.8347L57.7769 50.468L58.0815 50.555L72.0036 11.8776ZM92.5823 8.8321C92.5823 7.75893 93.0899 6.78728 94.1051 5.91715C95.1202 5.01801 96.1644 4.56844 97.2375 4.56844C98.3687 4.56844 99.3549 5.06152 100.196 6.04767C101.066 7.03382 101.501 8.07798 101.501 9.18015C101.501 10.1953 101.023 11.167 100.065 12.0951C99.1373 13.0232 98.0787 13.4873 96.8895 13.4873C95.8163 13.4873 94.8302 12.9942 93.931 12.0081C93.0319 11.0219 92.5823 9.96327 92.5823 8.8321ZM100.718 51.3382C100.718 54.9057 101.066 57.1101 101.762 57.9512C102.487 58.7633 104.271 59.2709 107.114 59.4739C107.404 59.764 107.549 60.2715 107.549 60.9967C107.549 61.6928 107.404 62.1568 107.114 62.3889C103.198 62.2729 99.9059 62.2148 97.2375 62.2148C94.5111 62.2148 91.1756 62.2729 87.231 62.3889C86.999 62.1568 86.8829 61.6928 86.8829 60.9967C86.8829 60.2715 86.999 59.764 87.231 59.4739C90.0734 59.2419 91.8572 58.7198 92.5823 57.9077C93.3074 57.0956 93.67 54.9057 93.67 51.3382V33.979C93.67 31.4846 93.3219 29.9184 92.6258 29.2803C91.9587 28.6132 90.378 28.1636 87.8836 27.9315C87.5355 26.9164 87.4775 26.0753 87.7096 25.4082C93.2204 24.683 97.281 23.8274 99.8914 22.8413C100.675 22.8413 101.066 23.0443 101.066 23.4504C100.834 27.2499 100.718 30.629 100.718 33.5874V51.3382ZM124.429 30.3244C124.429 30.6145 124.516 30.8175 124.69 30.9335C124.893 31.0495 125.14 30.9045 125.43 30.4984C126.619 28.4681 128.084 26.7279 129.824 25.2776C131.593 23.8274 133.421 23.1023 135.306 23.1023C137.017 23.1023 138.337 23.5664 139.265 24.4945C140.193 25.3937 140.657 26.3508 140.657 27.366C140.657 28.4971 140.222 29.5268 139.352 30.4549C138.511 31.3831 137.554 31.8472 136.481 31.8472C135.378 31.8472 134.305 31.151 133.261 29.7588C132.681 29.0047 131.912 28.6277 130.955 28.6277C130.23 28.6277 128.867 30.0779 126.866 32.9783C125.444 35.1247 124.734 37.1115 124.734 38.9387V51.3382C124.734 54.9057 125.125 57.0956 125.908 57.9077C126.721 58.6908 128.765 59.2129 132.043 59.4739C132.333 59.764 132.478 60.2715 132.478 60.9967C132.478 61.6928 132.333 62.1568 132.043 62.3889C127.895 62.2729 124.299 62.2148 121.253 62.2148C118.643 62.2148 115.249 62.2729 111.073 62.3889C110.841 62.1568 110.725 61.6928 110.725 60.9967C110.725 60.2715 110.841 59.764 111.073 59.4739C113.973 59.2999 115.8 58.7923 116.555 57.9512C117.309 57.1101 117.686 54.9057 117.686 51.3382V33.979C117.686 31.4846 117.338 29.9184 116.642 29.2803C115.974 28.6132 114.394 28.1636 111.899 27.9315C111.551 26.9164 111.493 26.0753 111.725 25.4082C116.134 24.8281 119.774 23.9724 122.645 22.8413C123.11 22.8413 123.472 23.0733 123.733 23.5374C124.023 24.2625 124.255 26.5248 124.429 30.3244ZM179.77 51.3382C179.77 55.0217 180.147 57.2551 180.901 58.0382C181.655 58.7923 183.772 59.2709 187.253 59.4739C187.543 59.764 187.688 60.2715 187.688 60.9967C187.717 61.6928 187.572 62.1568 187.253 62.3889C183.105 62.2729 179.465 62.2148 176.333 62.2148C173.954 62.2148 170.677 62.2729 166.5 62.3889C166.268 62.1568 166.152 61.6928 166.152 60.9967C166.152 60.2715 166.268 59.764 166.5 59.4739C169.111 59.2999 170.807 58.7778 171.591 57.9077C172.374 57.0375 172.765 54.8477 172.765 51.3382V27.453H166.587C166.297 27.453 166.152 27.2789 166.152 26.9309V25.7562C166.152 24.567 166.834 23.9724 168.197 23.9724H172.765V20.4049C172.765 13.9369 174.346 8.91911 177.507 5.35156C180.698 1.78401 184.367 0.000235334 188.515 0.000235334C192.082 0.000235334 194.751 0.638334 196.52 1.91453C198.434 3.33575 199.391 4.84398 199.391 6.43923C199.391 7.33837 198.971 8.1795 198.13 8.96262C197.317 9.71674 196.52 10.0938 195.737 10.0938C194.2 10.0938 193.01 9.13665 192.169 7.22235C191.589 5.68511 190.893 4.61195 190.081 4.00285C189.269 3.36475 188.181 3.04571 186.818 3.04571C182.119 3.04571 179.77 8.33902 179.77 18.9257V23.9724H189.428C189.892 23.9724 190.124 24.161 190.124 24.538V26.3218C190.124 27.1049 189.443 27.482 188.08 27.453H179.77V51.3382ZM207.44 30.3244C207.44 30.6145 207.527 30.8175 207.701 30.9335C207.904 31.0495 208.151 30.9045 208.441 30.4984C209.63 28.4681 211.095 26.7279 212.835 25.2776C214.604 23.8274 216.431 23.1023 218.317 23.1023C220.028 23.1023 221.348 23.5664 222.276 24.4945C223.204 25.3937 223.668 26.3508 223.668 27.366C223.668 28.4971 223.233 29.5268 222.363 30.4549C221.522 31.3831 220.565 31.8472 219.491 31.8472C218.389 31.8472 217.316 31.151 216.272 29.7588C215.692 29.0047 214.923 28.6277 213.966 28.6277C213.241 28.6277 211.878 30.0779 209.876 32.9783C208.455 35.1247 207.745 37.1115 207.745 38.9387V51.3382C207.745 54.9057 208.136 57.0956 208.919 57.9077C209.731 58.6908 211.776 59.2129 215.054 59.4739C215.344 59.764 215.489 60.2715 215.489 60.9967C215.489 61.6928 215.344 62.1568 215.054 62.3889C210.906 62.2729 207.31 62.2148 204.264 62.2148C201.654 62.2148 198.26 62.2729 194.083 62.3889C193.851 62.1568 193.735 61.6928 193.735 60.9967C193.735 60.2715 193.851 59.764 194.083 59.4739C196.984 59.2999 198.811 58.7923 199.565 57.9512C200.319 57.1101 200.697 54.9057 200.697 51.3382V33.979C200.697 31.4846 200.348 29.9184 199.652 29.2803C198.985 28.6132 197.405 28.1636 194.91 27.9315C194.562 26.9164 194.504 26.0753 194.736 25.4082C199.145 24.8281 202.785 23.9724 205.656 22.8413C206.12 22.8413 206.483 23.0733 206.744 23.5374C207.034 24.2625 207.266 26.5248 207.44 30.3244ZM235.284 37.068L251.425 36.8069C252.324 36.8069 252.76 36.4009 252.731 35.5887C252.731 32.1952 252.005 29.7878 250.555 28.3666C249.105 26.9454 247.365 26.2348 245.334 26.2348C244.551 26.2348 243.783 26.3363 243.029 26.5393C242.274 26.7424 241.346 27.1774 240.244 27.8445C239.142 28.4826 238.141 29.5993 237.242 31.1946C236.343 32.7898 235.69 34.7476 235.284 37.068ZM258.647 53.9486C259.663 54.0066 260.286 54.4706 260.518 55.3408C256.545 60.5036 251.483 63.085 245.334 63.085C239.446 63.085 234.907 61.1852 231.717 57.3856C228.932 54.1661 227.54 49.7719 227.54 44.2031C227.54 37.9091 229.425 32.8478 233.196 29.0192C236.967 25.1906 241.013 23.2763 245.334 23.2763C255.37 23.2763 260.388 28.4391 260.388 38.7647C260.388 39.7799 259.837 40.2875 258.734 40.2875L235.023 40.1134C235.023 45.1022 235.966 49.1773 237.851 52.3388C240.462 56.6025 243.71 58.7343 247.597 58.7343C250.091 58.7343 252.121 58.3863 253.688 57.6901C255.283 56.965 256.936 55.7178 258.647 53.9486ZM283.403 63.085C279.313 63.085 276.369 61.9538 274.571 59.6915C272.802 57.4001 271.917 54.4997 271.917 50.9901V33.892C271.917 31.1075 271.54 29.2658 270.786 28.3666C270.061 27.4675 268.596 26.9309 266.392 26.7569C266.16 26.5248 266.044 26.0608 266.044 25.3647C266.044 24.6395 266.16 24.1175 266.392 23.7984C270.423 23.9144 273.454 23.9724 275.485 23.9724C276.964 23.9724 278.008 23.9144 278.617 23.7984C279.081 23.7984 279.313 23.9869 279.313 24.364C279.081 28.7147 278.965 31.7746 278.965 33.5439V49.7284C278.965 53.238 279.69 55.6453 281.14 56.9505C282.591 58.2557 284.244 58.9083 286.1 58.9083C288.769 58.9083 291.742 57.4871 295.019 54.6447C295.976 53.8035 296.44 52.6434 296.411 51.1641V33.979C296.411 31.1365 296.049 29.2513 295.324 28.3231C294.628 27.395 293.148 26.8729 290.886 26.7569C290.596 26.5248 290.451 26.0608 290.451 25.3647C290.451 24.6395 290.596 24.1175 290.886 23.7984C294.918 23.9144 297.949 23.9724 299.979 23.9724C301.458 23.9724 302.502 23.9144 303.111 23.7984C303.575 23.7984 303.807 23.9869 303.807 24.364C303.575 28.7147 303.459 31.7746 303.459 33.5439V50.6421C303.459 52.9624 303.865 54.5722 304.678 55.4713C305.49 56.3414 307.259 56.8925 309.985 57.1246C310.275 57.4146 310.42 57.8352 310.42 58.3863C310.42 58.9083 310.275 59.2999 309.985 59.5609C305.229 60.083 301.719 61.2577 299.457 63.085C298.935 63.317 298.369 63.317 297.76 63.085C297.238 61.0547 296.919 59.3144 296.803 57.8642C296.745 57.5741 296.556 57.4436 296.237 57.4726C295.947 57.4726 295.686 57.5741 295.454 57.7772C291.045 61.3157 287.028 63.085 283.403 63.085ZM322.472 37.068L338.613 36.8069C339.512 36.8069 339.947 36.4009 339.918 35.5887C339.918 32.1952 339.193 29.7878 337.743 28.3666C336.292 26.9454 334.552 26.2348 332.522 26.2348C331.739 26.2348 330.97 26.3363 330.216 26.5393C329.462 26.7424 328.534 27.1774 327.432 27.8445C326.329 28.4826 325.329 29.5993 324.43 31.1946C323.53 32.7898 322.878 34.7476 322.472 37.068ZM345.835 53.9486C346.85 54.0066 347.474 54.4706 347.706 55.3408C343.732 60.5036 338.671 63.085 332.522 63.085C326.634 63.085 322.095 61.1852 318.904 57.3856C316.12 54.1661 314.728 49.7719 314.728 44.2031C314.728 37.9091 316.613 32.8478 320.383 29.0192C324.154 25.1906 328.2 23.2763 332.522 23.2763C342.557 23.2763 347.575 28.4391 347.575 38.7647C347.575 39.7799 347.024 40.2875 345.922 40.2875L322.211 40.1134C322.211 45.1022 323.153 49.1773 325.039 52.3388C327.649 56.6025 330.898 58.7343 334.784 58.7343C337.279 58.7343 339.309 58.3863 340.875 57.6901C342.47 56.965 344.124 55.7178 345.835 53.9486ZM367.675 30.3244C371.881 25.5097 376.754 23.1023 382.294 23.1023C385.687 23.1023 388.152 24.1175 389.69 26.1478C391.285 28.2941 392.083 32.2677 392.083 38.0686V51.3382C392.083 54.8477 392.416 57.023 393.083 57.8642C393.779 58.6763 395.433 59.2129 398.043 59.4739C398.275 59.764 398.391 60.2715 398.391 60.9967C398.391 61.6928 398.275 62.1568 398.043 62.3889C394.475 62.2729 391.328 62.2148 388.602 62.2148C386.108 62.2148 383.077 62.2729 379.509 62.3889C379.277 62.0988 379.161 61.6057 379.161 60.9096C379.161 60.1845 379.277 59.706 379.509 59.4739C381.945 59.2419 383.468 58.7053 384.077 57.8642C384.715 57.023 385.034 54.8477 385.034 51.3382V37.8076C385.034 34.6461 384.686 32.3547 383.99 30.9335C382.859 28.7872 381.278 27.714 379.248 27.714C375.623 27.714 371.997 29.4688 368.371 32.9783C367.356 34.1095 366.849 35.3567 366.849 36.7199V51.3382C366.849 54.8477 367.153 57.023 367.762 57.8642C368.4 58.6763 369.909 59.2129 372.287 59.4739C372.519 59.764 372.635 60.2715 372.635 60.9967C372.664 61.6928 372.548 62.1568 372.287 62.3889C368.719 62.2729 365.761 62.2148 363.412 62.2148C360.453 62.2148 357.176 62.2729 353.579 62.3889C353.347 62.1568 353.231 61.6928 353.231 60.9967C353.231 60.2715 353.347 59.764 353.579 59.4739C356.364 59.2419 358.104 58.7198 358.8 57.9077C359.496 57.0956 359.844 54.9057 359.844 51.3382V33.979C359.844 31.4846 359.496 29.9184 358.8 29.2803C358.133 28.6132 356.538 28.1636 354.014 27.9315C353.666 26.9164 353.608 26.0753 353.84 25.4082C358.249 24.8281 361.903 23.9724 364.804 22.8413C365.268 22.8413 365.63 23.0733 365.892 23.5374C366.24 24.2625 366.472 26.5248 366.588 30.3244C366.588 31.1075 366.95 31.1075 367.675 30.3244ZM19.143 152.085C15.0533 152.085 12.1094 150.954 10.3111 148.691C8.54183 146.4 7.6572 143.5 7.6572 139.99V122.892C7.6572 120.108 7.28014 118.266 6.52602 117.367C5.80091 116.467 4.33619 115.931 2.13184 115.757C1.89981 115.525 1.78379 115.061 1.78379 114.365C1.78379 113.64 1.89981 113.117 2.13184 112.798C6.16347 112.914 9.19444 112.972 11.2247 112.972C12.704 112.972 13.7481 112.914 14.3572 112.798C14.8213 112.798 15.0533 112.987 15.0533 113.364C14.8213 117.715 14.7053 120.775 14.7053 122.544V138.728C14.7053 142.238 15.4304 144.645 16.8806 145.951C18.3308 147.256 19.9841 147.908 21.8404 147.908C24.5088 147.908 27.4818 146.487 30.7593 143.645C31.7164 142.804 32.1805 141.643 32.1515 140.164V122.979C32.1515 120.137 31.7889 118.251 31.0638 117.323C30.3677 116.395 28.8885 115.873 26.6261 115.757C26.3361 115.525 26.1911 115.061 26.1911 114.365C26.1911 113.64 26.3361 113.117 26.6261 112.798C30.6578 112.914 33.6887 112.972 35.719 112.972C37.1983 112.972 38.2424 112.914 38.8515 112.798C39.3156 112.798 39.5476 112.987 39.5476 113.364C39.3156 117.715 39.1996 120.775 39.1996 122.544V139.642C39.1996 141.962 39.6056 143.572 40.4178 144.471C41.2299 145.341 42.9992 145.893 45.7256 146.125C46.0156 146.415 46.1606 146.835 46.1606 147.386C46.1606 147.908 46.0156 148.3 45.7256 148.561C40.9688 149.083 37.4593 150.258 35.197 152.085C34.6749 152.317 34.1093 152.317 33.5002 152.085C32.9781 150.055 32.6591 148.314 32.543 146.864C32.485 146.574 32.2965 146.444 31.9775 146.473C31.6874 146.473 31.4264 146.574 31.1943 146.777C26.7857 150.316 22.7685 152.085 19.143 152.085ZM63.5633 119.324C67.769 114.51 72.6417 112.102 78.1816 112.102C81.5751 112.102 84.0405 113.117 85.5777 115.148C87.173 117.294 87.9706 121.268 87.9706 127.069V140.338C87.9706 143.848 88.3042 146.023 88.9713 146.864C89.6674 147.676 91.3206 148.213 93.931 148.474C94.1631 148.764 94.2791 149.272 94.2791 149.997C94.2791 150.693 94.1631 151.157 93.931 151.389C90.3635 151.273 87.2165 151.215 84.4901 151.215C81.9957 151.215 78.9647 151.273 75.3972 151.389C75.1651 151.099 75.0491 150.606 75.0491 149.91C75.0491 149.185 75.1651 148.706 75.3972 148.474C77.8335 148.242 79.3563 147.705 79.9654 146.864C80.6035 146.023 80.9225 143.848 80.9225 140.338V126.808C80.9225 123.646 80.5745 121.355 79.8784 119.934C78.7472 117.787 77.1664 116.714 75.1361 116.714C71.5106 116.714 67.885 118.469 64.2594 121.978C63.2443 123.11 62.7367 124.357 62.7367 125.72V140.338C62.7367 143.848 63.0413 146.023 63.6503 146.864C64.2884 147.676 65.7967 148.213 68.175 148.474C68.4071 148.764 68.5231 149.272 68.5231 149.997C68.5521 150.693 68.4361 151.157 68.175 151.389C64.6075 151.273 61.649 151.215 59.2997 151.215C56.3412 151.215 53.0637 151.273 49.4672 151.389C49.2351 151.157 49.1191 150.693 49.1191 149.997C49.1191 149.272 49.2351 148.764 49.4672 148.474C52.2516 148.242 53.9919 147.72 54.688 146.908C55.3841 146.096 55.7321 143.906 55.7321 140.338V122.979C55.7321 120.485 55.3841 118.918 54.688 118.28C54.0209 117.613 52.4256 117.164 49.9022 116.932C49.5542 115.916 49.4962 115.075 49.7282 114.408C54.1369 113.828 57.7914 112.972 60.6919 111.841C61.156 111.841 61.5185 112.073 61.7796 112.537C62.1276 113.262 62.3596 115.525 62.4757 119.324C62.4757 120.108 62.8382 120.108 63.5633 119.324ZM99.7174 138.902C100.007 138.612 100.472 138.467 101.11 138.467C101.748 138.467 102.212 138.583 102.502 138.815C103.459 142.847 104.619 145.588 105.982 147.038C107.346 148.459 109.448 149.17 112.291 149.17C114.205 149.17 115.945 148.633 117.512 147.56C119.078 146.487 119.861 144.95 119.861 142.949C119.861 140.976 119.252 139.396 118.034 138.206C116.816 137.017 114.394 135.683 110.768 134.204C107.201 132.724 104.677 131.129 103.198 129.418C101.719 127.678 100.979 125.227 100.979 122.065C100.979 119.281 102.226 116.932 104.721 115.017C107.215 113.074 110.159 112.102 113.553 112.102C114.916 112.102 116.308 112.204 117.729 112.407C119.15 112.61 120.644 112.885 122.21 113.233C123.806 113.553 124.806 113.741 125.212 113.799C125.096 116.961 124.922 120.108 124.69 123.24C124.4 123.53 123.922 123.675 123.255 123.675C122.587 123.675 122.109 123.559 121.819 123.327C121.529 121.558 121.036 120.079 120.34 118.889C119.672 117.7 118.875 116.859 117.947 116.366C117.019 115.844 116.206 115.496 115.51 115.322C114.843 115.148 114.191 115.061 113.553 115.061C111.957 115.061 110.507 115.583 109.202 116.627C107.926 117.642 107.288 119.02 107.288 120.76C107.288 122.993 107.955 124.632 109.289 125.676C110.652 126.692 112.958 127.808 116.206 129.026C123.168 131.608 126.648 135.552 126.648 140.86C126.648 142.949 126.155 144.776 125.169 146.342C124.183 147.879 122.921 149.054 121.384 149.866C119.847 150.649 118.324 151.215 116.816 151.563C115.336 151.911 113.886 152.085 112.465 152.085C109.564 152.085 106.867 151.766 104.373 151.128C103.967 151.012 103.372 150.954 102.589 150.954C102.009 150.954 101.269 151.041 100.37 151.215C100.341 148.111 100.123 144.007 99.7174 138.902ZM178.552 130.462L171.503 132.333C165.848 133.754 163.034 137.017 163.063 142.122C163.063 143.717 163.6 145.182 164.673 146.516C165.775 147.821 167.37 148.474 169.459 148.474C171.489 148.474 174.099 147.154 177.29 144.515C178.131 143.848 178.552 143.079 178.552 142.209V130.462ZM178.552 146.951H178.378L176.594 148.343C173.374 150.838 170.14 152.085 166.892 152.085C159.409 152.085 155.667 148.88 155.667 142.47C155.667 139.512 157.016 136.901 159.713 134.639C162.411 132.376 165.964 130.68 170.372 129.548L178.03 127.678C178.378 127.562 178.552 127.214 178.552 126.634C178.552 118.918 176.144 115.061 171.329 115.061C169.357 115.061 167.675 115.38 166.283 116.018C164.89 116.627 164.194 117.555 164.194 118.802C164.194 119.643 164.252 120.224 164.368 120.543C164.542 120.891 164.644 121.427 164.673 122.152C164.673 122.819 164.267 123.501 163.455 124.197C162.643 124.864 161.642 125.198 160.453 125.198C158.364 125.198 157.335 124.125 157.364 121.978C157.364 119.484 158.887 117.222 161.932 115.191C165.006 113.132 168.386 112.102 172.069 112.102C181.031 112.102 185.513 117.12 185.513 127.156V140.251C185.513 141.498 185.527 142.484 185.556 143.21C185.585 143.906 185.687 144.674 185.861 145.515C186.035 146.357 186.31 146.951 186.687 147.299C187.093 147.647 187.586 147.821 188.167 147.821C189.24 147.821 190.342 147.343 191.473 146.386C192.314 146.85 192.822 147.662 192.996 148.822C190.733 151.026 187.906 152.114 184.512 152.085C182.482 152.085 181.046 151.65 180.205 150.78C179.393 149.881 178.842 148.604 178.552 146.951ZM212.487 152.085C208.397 152.085 205.453 150.954 203.655 148.691C201.886 146.4 201.001 143.5 201.001 139.99V122.892C201.001 120.108 200.624 118.266 199.87 117.367C199.145 116.467 197.68 115.931 195.476 115.757C195.244 115.525 195.128 115.061 195.128 114.365C195.128 113.64 195.244 113.117 195.476 112.798C199.507 112.914 202.538 112.972 204.569 112.972C206.048 112.972 207.092 112.914 207.701 112.798C208.165 112.798 208.397 112.987 208.397 113.364C208.165 117.715 208.049 120.775 208.049 122.544V138.728C208.049 142.238 208.774 144.645 210.224 145.951C211.675 147.256 213.328 147.908 215.184 147.908C217.853 147.908 220.826 146.487 224.103 143.645C225.06 142.804 225.524 141.643 225.495 140.164V122.979C225.495 120.137 225.133 118.251 224.408 117.323C223.712 116.395 222.232 115.873 219.97 115.757C219.68 115.525 219.535 115.061 219.535 114.365C219.535 113.64 219.68 113.117 219.97 112.798C224.002 112.914 227.033 112.972 229.063 112.972C230.542 112.972 231.586 112.914 232.195 112.798C232.659 112.798 232.891 112.987 232.891 113.364C232.659 117.715 232.543 120.775 232.543 122.544V139.642C232.543 141.962 232.949 143.572 233.762 144.471C234.574 145.341 236.343 145.893 239.069 146.125C239.359 146.415 239.505 146.835 239.505 147.386C239.505 147.908 239.359 148.3 239.069 148.561C234.313 149.083 230.803 150.258 228.541 152.085C228.019 152.317 227.453 152.317 226.844 152.085C226.322 150.055 226.003 148.314 225.887 146.864C225.829 146.574 225.64 146.444 225.321 146.473C225.031 146.473 224.77 146.574 224.538 146.777C220.13 150.316 216.112 152.085 212.487 152.085ZM256.081 140.338C256.081 144.022 256.458 146.255 257.212 147.038C257.966 147.792 260.083 148.271 263.564 148.474C263.854 148.764 263.999 149.272 263.999 149.997C264.028 150.693 263.883 151.157 263.564 151.389C259.416 151.273 255.776 151.215 252.644 151.215C250.265 151.215 246.988 151.273 242.811 151.389C242.579 151.157 242.463 150.693 242.463 149.997C242.463 149.272 242.579 148.764 242.811 148.474C245.421 148.3 247.118 147.778 247.901 146.908C248.684 146.038 249.076 143.848 249.076 140.338V116.453H242.898C242.608 116.453 242.463 116.279 242.463 115.931V114.756C242.463 113.567 243.145 112.972 244.508 112.972H249.076V109.405C249.076 102.937 250.657 97.9191 253.818 94.3516C257.009 90.784 260.678 89.0002 264.825 89.0002C268.393 89.0002 271.061 89.6383 272.831 90.9145C274.745 92.3358 275.702 93.844 275.702 95.4392C275.702 96.3384 275.282 97.1795 274.44 97.9626C273.628 98.7167 272.831 99.0938 272.048 99.0938C270.51 99.0938 269.321 98.1366 268.48 96.2224C267.9 94.6851 267.204 93.6119 266.392 93.0029C265.58 92.3648 264.492 92.0457 263.129 92.0457C258.43 92.0457 256.081 97.339 256.081 107.926V112.972H265.739C266.203 112.972 266.435 113.161 266.435 113.538V115.322C266.435 116.105 265.754 116.482 264.39 116.453H256.081V140.338ZM301.415 126.068L317.556 125.807C318.455 125.807 318.89 125.401 318.861 124.589C318.861 121.195 318.136 118.788 316.685 117.367C315.235 115.945 313.495 115.235 311.465 115.235C310.681 115.235 309.913 115.336 309.159 115.539C308.405 115.742 307.477 116.177 306.374 116.845C305.272 117.483 304.272 118.599 303.372 120.195C302.473 121.79 301.821 123.748 301.415 126.068ZM324.778 142.949C325.793 143.007 326.416 143.471 326.648 144.341C322.675 149.504 317.614 152.085 311.465 152.085C305.577 152.085 301.038 150.185 297.847 146.386C295.063 143.166 293.67 138.772 293.67 133.203C293.67 126.909 295.556 121.848 299.326 118.019C303.097 114.191 307.143 112.276 311.465 112.276C321.5 112.276 326.518 117.439 326.518 127.765C326.518 128.78 325.967 129.287 324.865 129.287L301.154 129.113C301.154 134.102 302.096 138.177 303.981 141.339C306.592 145.602 309.84 147.734 313.727 147.734C316.221 147.734 318.252 147.386 319.818 146.69C321.413 145.965 323.066 144.718 324.778 142.949ZM349.533 152.085C345.443 152.085 342.499 150.954 340.701 148.691C338.932 146.4 338.047 143.5 338.047 139.99V122.892C338.047 120.108 337.67 118.266 336.916 117.367C336.191 116.467 334.726 115.931 332.522 115.757C332.29 115.525 332.174 115.061 332.174 114.365C332.174 113.64 332.29 113.117 332.522 112.798C336.553 112.914 339.584 112.972 341.615 112.972C343.094 112.972 344.138 112.914 344.747 112.798C345.211 112.798 345.443 112.987 345.443 113.364C345.211 117.715 345.095 120.775 345.095 122.544V138.728C345.095 142.238 345.82 144.645 347.271 145.951C348.721 147.256 350.374 147.908 352.23 147.908C354.899 147.908 357.872 146.487 361.149 143.645C362.106 142.804 362.571 141.643 362.541 140.164V122.979C362.541 120.137 362.179 118.251 361.454 117.323C360.758 116.395 359.278 115.873 357.016 115.757C356.726 115.525 356.581 115.061 356.581 114.365C356.581 113.64 356.726 113.117 357.016 112.798C361.048 112.914 364.079 112.972 366.109 112.972C367.588 112.972 368.632 112.914 369.242 112.798C369.706 112.798 369.938 112.987 369.938 113.364C369.706 117.715 369.59 120.775 369.59 122.544V139.642C369.59 141.962 369.996 143.572 370.808 144.471C371.62 145.341 373.389 145.893 376.116 146.125C376.406 146.415 376.551 146.835 376.551 147.386C376.551 147.908 376.406 148.3 376.116 148.561C371.359 149.083 367.849 150.258 365.587 152.085C365.065 152.317 364.499 152.317 363.89 152.085C363.368 150.055 363.049 148.314 362.933 146.864C362.875 146.574 362.687 146.444 362.367 146.473C362.077 146.473 361.816 146.574 361.584 146.777C357.176 150.316 353.159 152.085 349.533 152.085ZM413.009 143.123C410.921 146.574 408.717 148.938 406.396 150.214C404.105 151.461 401.466 152.085 398.478 152.085C392.967 152.085 388.646 150.33 385.513 146.821C382.41 143.282 380.858 138.569 380.858 132.681C380.858 126.677 382.729 121.746 386.47 117.889C390.212 114.031 394.432 112.102 399.131 112.102C403.336 112.102 406.657 112.885 409.094 114.452C411.53 116.018 412.748 118.048 412.748 120.543C412.748 121.79 412.284 122.761 411.356 123.458C410.428 124.154 409.442 124.502 408.398 124.502C406.367 124.502 405.236 123.429 405.004 121.282C404.888 119.977 404.685 118.962 404.395 118.237C404.134 117.483 403.525 116.772 402.568 116.105C401.64 115.409 400.334 115.061 398.652 115.061C395.694 115.061 393.257 116.467 391.343 119.281C389.458 122.094 388.515 125.908 388.515 130.723C388.515 135.828 389.675 139.947 391.996 143.079C394.316 146.183 397.129 147.734 400.436 147.734C404.525 147.734 408.093 145.777 411.139 141.861C412.096 141.977 412.719 142.397 413.009 143.123ZM430.543 125.72V140.338C430.543 142.862 430.688 144.66 430.978 145.733C431.297 146.777 431.775 147.459 432.413 147.778C433.051 148.097 434.197 148.329 435.85 148.474C436.111 148.735 436.242 149.228 436.242 149.953C436.271 150.649 436.14 151.128 435.85 151.389C432.515 151.273 429.585 151.215 427.062 151.215C424.452 151.215 421.189 151.273 417.273 151.389C417.012 151.128 416.881 150.649 416.881 149.953C416.881 149.228 417.012 148.735 417.273 148.474C418.752 148.358 419.811 148.227 420.449 148.082C421.116 147.937 421.725 147.589 422.276 147.038C422.827 146.458 423.161 145.675 423.277 144.689C423.422 143.703 423.494 142.252 423.494 140.338V101.4C423.494 99.4854 423.451 98.0641 423.364 97.136C423.277 96.1788 422.9 95.4827 422.233 95.0477C421.595 94.5836 421.087 94.3371 420.71 94.3081C420.362 94.2791 419.39 94.2065 417.795 94.0905C417.128 93.4234 416.954 92.5388 417.273 91.4366C422.552 91.0305 426.714 90.2184 429.759 89.0002C430.543 89.0002 430.92 89.3048 430.891 89.9139C430.659 92.2922 430.543 95.4102 430.543 99.2678L430.455 119.324C430.455 120.05 430.702 120.108 431.195 119.498C431.253 119.411 431.297 119.353 431.326 119.324C435.676 114.51 440.738 112.102 446.509 112.102C449.903 112.102 452.368 113.117 453.906 115.148C455.501 117.236 456.298 121.21 456.298 127.069V140.338C456.298 143.848 456.632 146.023 457.299 146.864C457.995 147.676 459.649 148.213 462.259 148.474C462.491 148.764 462.607 149.272 462.607 149.997C462.607 150.693 462.491 151.157 462.259 151.389C458.343 151.273 455.196 151.215 452.818 151.215C450.092 151.215 447.061 151.273 443.725 151.389C443.493 151.099 443.377 150.606 443.377 149.91C443.377 149.185 443.493 148.706 443.725 148.474C446.161 148.242 447.684 147.705 448.293 146.864C448.931 146.023 449.25 143.848 449.25 140.338V126.808C449.25 123.646 448.902 121.355 448.206 119.934C447.133 117.787 445.552 116.714 443.464 116.714C439.432 116.714 435.633 118.469 432.065 121.978C431.05 123.08 430.543 124.328 430.543 125.72ZM473.136 94.1775C474.093 93.1044 475.195 92.5678 476.442 92.5678C477.689 92.5678 478.777 93.1044 479.705 94.1775C480.662 95.2507 481.141 96.8895 481.141 99.0938C481.141 100.805 481.039 102.487 480.836 104.141C480.633 105.765 480.329 107.723 479.923 110.014C479.546 112.305 479.241 114.394 479.009 116.279C478.661 119.063 478.4 121.732 478.226 124.284C478.052 126.808 477.936 128.751 477.878 130.114C477.82 131.477 477.762 132.275 477.704 132.507C477.588 133.696 477.167 134.291 476.442 134.291C475.717 134.291 475.296 133.899 475.18 133.116C475.122 132.768 475.035 131.651 474.919 129.766C474.803 127.852 474.644 125.633 474.441 123.11C474.238 120.586 474.006 118.309 473.745 116.279C473.571 114.452 473.179 111.725 472.57 108.1C471.99 104.474 471.7 101.472 471.7 99.0938C471.7 96.8895 472.178 95.2507 473.136 94.1775ZM473.092 150.736C472.164 149.808 471.7 148.691 471.7 147.386C471.7 146.081 472.164 144.964 473.092 144.036C474.02 143.108 475.137 142.644 476.442 142.644C477.747 142.644 478.849 143.108 479.749 144.036C480.677 144.964 481.141 146.081 481.141 147.386C481.141 148.691 480.677 149.808 479.749 150.736C478.849 151.635 477.747 152.085 476.442 152.085C475.137 152.085 474.02 151.635 473.092 150.736Z" fill="black"/>
</svg>
