<svg width="26" height="26" viewBox="0 0 26 26" fill="none" xmlns="http://www.w3.org/2000/svg">
<circle cx="13" cy="13" r="13" fill="white"/>
<path d="M9.03064 6.78125C9.875 6.78125 10.5686 7.0786 11.1114 7.6733C11.6843 8.23827 11.9708 8.95191 11.9708 9.81423C11.9708 10.2603 11.9105 10.6914 11.7899 11.1077C11.6994 11.524 11.5034 12.1633 11.2019 13.0256L9.07588 19.2254H6.22617L7.89981 12.5796C7.32685 12.3714 6.85944 12.0295 6.49757 11.5537C6.16586 11.0482 6 10.4684 6 9.81423C6 8.92218 6.28648 8.19367 6.85944 7.6287C7.43239 7.06374 8.15613 6.78125 9.03064 6.78125Z" fill="#000068"/>
<path d="M19.1407 7.6733C18.5979 7.0786 17.9043 6.78125 17.0599 6.78125C16.1854 6.78125 15.4617 7.06374 14.8887 7.6287C14.3158 8.19367 14.0293 8.92218 14.0293 9.81423C14.0293 10.4684 14.1952 11.0482 14.5269 11.5537C14.8887 12.0295 15.3561 12.3714 15.9291 12.5796L14.2555 19.2254H17.1052L19.2311 13.0256C19.5327 12.1633 19.7287 11.524 19.8192 11.1077C19.9398 10.6914 20.0001 10.2603 20.0001 9.81423C20.0001 8.95191 19.7136 8.23827 19.1407 7.6733Z" fill="#000068"/>
</svg>
