<?xml version="1.0" encoding="UTF-8" standalone="no"?>
<!DOCTYPE svg PUBLIC "-//W3C//DTD SVG 1.1//EN" "http://www.w3.org/Graphics/SVG/1.1/DTD/svg11.dtd">
<svg width="100%" height="100%" viewBox="0 0 2741 2740" version="1.1" xmlns="http://www.w3.org/2000/svg" xmlns:xlink="http://www.w3.org/1999/xlink" xml:space="preserve" xmlns:serif="http://www.serif.com/" style="fill-rule:evenodd;clip-rule:evenodd;stroke-linejoin:round;stroke-miterlimit:2;">
    <g transform="matrix(1,0,0,1,0.562908,-0.002676)">
        <g transform="matrix(0,-2.675781,2.675781,0,0,2740)">
            <path d="M199.023,358.617C196.677,350.7 195.878,349.621 195.481,347.504C195.42,347.182 195.111,345.535 194.12,343.644C193.603,342.656 193.766,342.621 193.273,341.593C193.2,341.442 192.861,341.53 192.824,341.367C192.767,341.124 193.103,340.899 193.055,340.654C193.036,340.553 192.739,340.7 192.486,339.504C192.218,338.241 190.016,334.412 189.99,334.309C189.938,334.099 190.142,333.877 190.089,333.667C190.064,333.566 189.881,333.662 189.517,332.494C189.069,331.055 188.346,329.864 188.217,329.65C188.118,329.488 187.839,329.498 187.742,329.334C187.594,329.082 187.723,328.704 187.531,328.483C187.379,328.308 186.954,328.524 186.856,328.314C186.244,327.009 187.073,326.802 186.298,325.61C185.924,325.035 185.795,325.144 185.527,324.484C185.253,323.807 185.098,323.945 184.708,323.359C184.549,323.12 184.601,322.77 184.42,322.547C184.29,322.388 183.972,322.474 183.854,322.306C183.317,321.547 183.813,321.403 183.354,320.575C182.833,319.635 181.124,317.073 180.455,315.527C180.385,315.365 180.115,314.741 179.251,313.673C178.755,313.059 176.923,310.013 176.46,309.531C176.305,309.37 175.989,309.432 175.845,309.259C175.577,308.937 175.924,308.745 173.105,304.791C170.997,301.836 170.777,301.689 170.498,301.502C168.92,300.442 168.446,298.99 168.2,298.79C167.829,298.489 167.288,298.419 166.963,298.07C166.767,297.859 167.014,297.724 164.736,295.248C162.579,292.905 162.73,292.798 160.427,290.568C159.129,289.312 158.769,289.781 157.579,288.44C157.073,287.87 157.254,287.778 156.758,287.246C155.409,285.799 154.814,285.497 154.611,285.394C153.444,284.801 153.858,284.345 153.178,283.938C152.201,283.352 152.158,283.477 151.299,282.766C150.259,281.906 146.583,279.233 146.168,278.931C144.932,278.032 144.794,278.316 143.535,277.428C143.381,277.319 143.38,277.057 143.219,276.958C142.248,276.359 142.195,276.485 141.303,275.785C140.884,275.455 140.667,275.847 135.434,272.622C133.515,271.44 133.272,272.014 131.354,270.799C130.49,270.252 118.301,266.099 116.457,265.811C101.485,263.473 97.12,263.986 95.446,264.183C93.87,264.369 90.915,264.665 90.521,264.704C88.441,264.912 88.458,264.769 86.478,265.338C85.212,265.702 82.107,265.344 77.655,266.955C77.418,267.041 77.442,266.987 74.672,267.988C72.139,268.903 72.027,268.505 69.578,269.661C67.297,270.737 67.529,271.097 67.323,271.166C67.122,271.234 66.912,270.936 66.708,270.997C66.554,271.044 66.625,271.362 66.474,271.421C66.339,271.474 64.762,271.598 62.627,272.727C62.563,272.761 60.256,274.3 59.541,274.58C57.923,275.213 56.644,276.211 56.416,276.389C54.093,278.202 53.672,277.546 51.512,279.516C49.652,281.212 49.418,280.873 47.515,282.519C45.209,284.515 44.465,284.157 43.538,285.537C42.62,286.904 41,287.614 40.815,287.831C40.645,288.031 40.647,288.668 39.384,289.346C39.23,289.428 38.355,289.897 37.64,290.65C35.005,293.421 34.517,292.63 32.619,293.719C32.467,293.806 32.476,294.076 32.317,294.149C32.212,294.197 28.789,295.317 28.482,295.417C27.738,295.66 19.248,295.852 17.598,295.231C7.184,291.309 5.237,287.346 4.438,286.558C2.998,285.137 2.834,283.745 2.206,282.668C1.623,281.67 1.453,281.757 1.291,280.598C1.035,278.759 1.16,278.77 1.099,278.623C0.785,277.87 0.315,278.256 0,277.5L0,0C0.789,-0.473 0.875,0 11.5,0L277.5,0C277.982,0.208 278.144,0.894 278.626,1.102C280.413,1.875 280.672,0.814 282.333,1.789C283.304,2.359 283.238,2.379 284.258,2.955C285.775,3.81 285.889,3.619 287.132,4.825C289.431,7.057 289.486,7.158 289.624,7.411C290.508,9.036 292.297,10.238 294.079,14.677C296.146,19.824 295.693,19.936 295.613,25.504C295.608,25.817 295.567,28.678 295.196,29.386C295.128,29.515 294.877,29.473 294.818,29.607C294.564,30.184 294.548,30.848 294.296,31.427C294.236,31.566 293.954,31.531 293.916,31.678C293.864,31.883 294.146,32.092 294.077,32.292C294.042,32.393 293.925,32.302 293.315,33.392C292.072,35.615 292.404,35.813 290.648,37.633C288.717,39.635 289.18,39.901 289.009,40.063C288.671,40.383 288.187,40.515 287.832,40.817C287.616,41.001 286.902,42.619 285.537,43.538C284.45,44.269 283.015,47.145 282.096,48.19C281.628,48.723 281.683,48.734 281.211,49.289C280.745,49.835 280.753,49.807 280.322,50.369C277.898,53.531 277.884,53.52 277.808,53.676C277.128,55.082 277.254,55.111 276.344,56.392C274.862,58.48 274.035,60.507 273.069,62.246C271.913,64.327 271.909,64.284 271.795,64.608C271.585,65.205 271.62,65.876 271.38,66.462C271.318,66.613 270.988,66.53 270.943,66.688C270.883,66.897 271.211,67.104 271.14,67.309C271.028,67.631 270.049,67.782 268.837,71.604C267.731,75.091 267.845,75.099 266.706,78.576C265.421,82.501 263.598,96.938 263.9,101.466C263.936,102.002 265.697,116.165 266.304,118.563C267.203,122.113 267.723,121.912 268.661,125.466C269.621,129.102 272.486,134.751 273.053,135.765C274.694,138.704 274.435,138.823 276.306,141.637C277.005,142.688 277.102,142.61 277.146,142.71C277.216,142.873 276.918,143.048 276.978,143.215C277.015,143.32 277.137,143.219 277.767,144.359C278.777,146.187 279.162,145.87 280.24,147.659C281.404,149.592 281.244,149.662 282.721,151.322C283.458,152.15 283.328,152.202 283.934,153.164C284.186,153.564 284.88,153.439 285.475,154.527C286.909,157.152 288.856,157.337 289.689,159.371C289.967,160.05 290.13,160.447 296.256,165.78C297.095,166.511 297.272,166.219 298.07,166.963C298.419,167.288 298.489,167.829 298.79,168.199C298.997,168.455 300.44,168.905 301.502,170.498C301.823,170.979 302.005,170.771 307.329,174.784C308.743,175.85 308.854,175.635 310.227,176.766C310.812,177.248 310.68,177.364 311.292,177.8C312.772,178.854 312.981,178.477 314.398,179.63C316.686,181.489 317.026,180.915 319.386,182.661C319.63,182.842 319.479,183.27 321.424,183.707C321.717,183.773 322.06,183.7 322.309,183.866C322.481,183.98 322.373,184.312 322.533,184.443C322.756,184.624 323.112,184.556 323.352,184.716C323.942,185.109 323.793,185.274 324.477,185.541C326.104,186.175 326.593,186.978 326.724,187.001C326.961,187.045 327.169,186.792 327.409,186.773C328.633,186.676 328.305,187.407 328.472,187.551C328.695,187.742 329.074,187.605 329.328,187.751C329.495,187.846 329.489,188.126 329.652,188.228C330.201,188.567 333.34,189.969 333.664,190.113C334.229,190.366 334.87,190.422 335.43,190.687C335.567,190.753 335.532,191.032 335.68,191.071C335.886,191.124 336.097,190.847 336.299,190.914C336.436,190.959 336.088,191.393 337.732,192.002C338.556,192.307 339.355,192.475 339.498,192.506C339.815,192.573 340.168,192.521 340.457,192.667C340.593,192.736 340.495,193.056 340.644,193.083C340.894,193.13 341.117,192.777 341.363,192.835C341.531,192.876 341.422,193.231 341.577,193.306C342.134,193.575 342.794,193.564 343.365,193.802C343.559,193.883 343.457,194.047 345.682,195.043C345.731,195.065 346.855,195.358 347.505,195.479C350.699,196.072 354.075,198.014 356.519,198.41C357.612,198.587 357.521,198.854 358.619,199.014C358.888,199.053 359.135,198.758 359.404,198.797C359.503,198.812 359.372,199.089 360.549,199.31C361.328,199.455 366.474,201.208 368.511,201.423C375.022,202.108 382.19,204.546 388.502,204.443C390.52,204.411 390.483,204.461 392.503,204.478C393.618,204.636 393.588,204.682 395.505,205.171C417.415,205.521 418.611,205.27 420.574,204.859C420.725,204.827 420.717,204.853 422.502,204.78C424.035,204.682 423.996,204.685 425.494,204.461C432.577,204.47 434.688,204.287 443.472,202.366C444.072,202.23 443.99,201.94 447.503,201.522C452.605,201.174 452.425,200.424 457.456,199.34C457.772,199.272 458.118,199.307 458.412,199.17C458.535,199.113 458.478,198.868 458.6,198.809C458.968,198.632 459.092,199.224 463.601,197.78C467.553,196.514 467.39,196.085 471.429,195.28C472.751,195.017 474.135,194.256 474.355,194.135C475.358,193.584 475.398,193.765 476.414,193.278C476.566,193.205 476.463,192.855 476.628,192.82C476.879,192.767 477.1,193.125 477.352,193.079C477.453,193.061 477.284,192.74 478.497,192.492C478.803,192.429 479.131,192.417 479.408,192.272C479.542,192.201 479.504,191.927 479.651,191.885C479.86,191.824 480.08,192.066 480.292,192.014C480.395,191.989 480.362,191.949 481.433,191.35C482.417,190.799 482.523,191.051 483.431,190.363C483.585,190.247 483.483,189.886 483.669,189.835C483.903,189.772 484.102,190.17 484.339,190.117C484.442,190.094 484.228,189.746 485.485,189.45C486.863,189.126 488.157,188.392 488.374,188.268C488.532,188.179 488.524,187.905 488.687,187.824C489.223,187.559 489.858,187.533 490.395,187.267C490.54,187.196 490.495,186.901 490.65,186.854C490.855,186.793 491.067,187.056 491.274,187.004C491.377,186.979 491.32,186.915 492.413,186.325C494.682,185.1 494.413,184.745 494.611,184.646C495.146,184.377 495.802,184.417 496.335,184.147C496.495,184.066 496.406,183.753 496.557,183.658C497.523,183.05 497.669,183.388 498.626,182.72C499.233,182.297 502.221,180.719 502.537,180.552C503.205,180.199 502.999,179.892 510.372,175.284C512.805,173.764 524,164.22 528.477,159.478C528.663,159.282 532.326,155.019 532.66,154.631C532.963,154.279 533.141,154.442 533.539,153.527C534.113,152.208 534.664,152.653 535.42,151.424C538.5,146.423 538.887,146.702 539.138,146.259C540.426,143.985 540.382,144.006 540.669,143.634C542.481,141.279 541.972,141.007 543.66,138.611C545.483,136.024 545.039,135.812 545.612,134.541C545.676,134.399 545.96,134.436 546.004,134.287C546.062,134.09 545.796,133.88 545.864,133.686C545.912,133.546 546.326,133.868 547.028,132.241C547.207,131.825 547.159,131.835 547.361,131.428C547.505,131.138 549.55,125.19 549.788,124.625C550.469,123.003 550.482,123.037 551.004,121.379C550.966,120.914 550.781,120.994 550.745,120.551C550.73,120.377 550.794,120.398 551.413,118.475C551.699,117.628 553.726,111.639 553.546,107.5C553.384,103.758 553.372,103.769 553.39,103.493C553.472,102.16 554.092,101.551 554.129,101.449C554.093,101.118 553.823,100.842 553.786,100.512C553.545,98.353 553.888,98.344 553.445,95.507C553.569,89.925 553.766,89.913 552.603,84.474C552.067,81.967 551.782,82.082 551.335,79.541C551.143,78.451 550.793,78.579 550.684,77.468C550.287,73.432 549.856,73.548 548.781,71.385C548.57,70.961 548.536,69.8 547.534,67.481C547.48,67.355 546.138,65.102 544.995,62.301C543.791,59.346 543.353,59.604 542.122,56.693C541.967,56.328 541.905,56.407 539.389,52.565C539.232,52.325 537.805,50.145 537.347,49.619C537.208,49.46 536.927,49.46 536.809,49.285C536.179,48.35 536.375,48.251 535.608,47.406C532.051,43.484 532.392,43.233 532.074,42.903C531.337,42.136 531.251,42.289 530.521,41.482C530.103,41.018 529.128,39.939 525.698,35.345C524.939,34.329 524.88,34.401 524.838,34.301C524.766,34.128 525.061,33.941 525.001,33.763C524.946,33.597 524.647,33.63 524.561,33.477C524.316,33.039 523.196,28.995 523.087,28.603C522.719,27.271 520.799,20.337 525.495,11.497C526.495,9.614 526.639,9.74 528.02,8.134C528.136,7.999 529.196,6.767 529.428,6.419C530.093,5.421 530.186,5.54 531.445,4.428C533.326,2.768 533.606,3.272 535.761,1.929C535.88,1.855 536.554,1.434 537.396,1.301C538.052,1.197 538.766,1.363 539.379,1.106C539.863,0.903 540.016,0.203 540.5,0L818.5,-0C818.543,0.407 818.762,0.686 818.762,2.5C818.762,268.935 818.766,268.912 818.724,274.483C819.192,276.487 819.257,276.451 819.534,278.495C820.326,281.809 820.538,281.718 822.277,284.627C823.431,286.557 823.422,286.547 823.435,286.556C824.725,287.479 824.406,287.729 824.794,288.21C825.513,289.1 830.838,292.4 831.381,292.736C833.23,293.882 833.429,293.31 834.453,293.683C834.581,293.73 834.498,294.026 834.632,294.051C834.887,294.098 835.129,293.809 835.384,293.856C835.52,293.881 835.446,294.177 835.577,294.223C836.174,294.437 839.245,294.995 839.566,295.053C842.199,295.532 850.515,294.003 855.303,290.237C855.39,290.169 855.93,289.744 856.357,289.34C856.531,289.175 856.53,288.875 856.704,288.71C856.887,288.529 856.8,288.17 856.983,287.988C857.07,287.902 857.088,287.944 858.398,287.389C862.716,283.329 862.98,283.679 863.351,283.326C863.524,283.162 863.514,282.858 863.687,282.694L865.483,281.473C875.188,274.825 875.328,275.064 876.471,274.462C877.105,274.128 876.963,273.982 877.544,273.574C877.789,273.402 878.146,273.447 878.391,273.275C878.534,273.175 878.469,272.862 878.636,272.812C878.85,272.747 879.059,273.062 879.277,273.01C879.435,272.972 879.39,272.668 879.536,272.598C880.601,272.088 880.645,272.283 881.608,271.674C882.682,270.996 882.588,270.878 882.69,270.839C882.878,270.767 883.08,271.068 883.272,271.006C883.432,270.955 883.381,270.655 883.526,270.569C884.225,270.155 887.1,269.364 887.416,269.277C887.66,269.209 889.035,268.831 890.364,268.131C892.212,267.158 892.302,267.455 892.453,267.361C892.602,267.268 892.471,266.931 892.634,266.867C893.225,266.637 893.883,266.65 894.511,266.559C899.093,265.895 898.929,265.25 903.496,264.475C909.035,263.534 909.01,263.373 909.498,263.379C917.51,263.463 917.465,263.492 925.502,263.485C926.811,263.689 926.778,263.749 928.536,264.238C933.892,264.656 939.325,266.823 940.631,267.01C940.891,267.048 941.131,266.749 941.39,266.795C941.537,266.821 941.475,267.115 941.606,267.185C941.887,267.335 942.23,267.313 942.535,267.406C942.848,267.5 944.788,268.087 946.365,268.851C947.818,269.555 947.903,269.195 949.394,269.751C949.553,269.81 949.495,270.104 949.636,270.196C950.416,270.707 950.55,270.303 951.337,270.795C954.42,272.725 954.728,272.125 957.642,274.256C957.852,274.409 959.409,275.291 959.564,275.379C960.391,275.848 960.547,275.327 961.29,275.872C961.462,275.997 961.358,276.33 961.521,276.467C961.734,276.647 962.086,276.576 962.314,276.737C962.488,276.86 962.5,277.135 962.662,277.272C962.871,277.448 963.174,277.481 963.392,277.646C965.768,279.432 965.986,279.03 967.163,279.866C967.357,280.004 967.338,280.325 967.507,280.493C968.269,281.252 969.214,281.635 969.38,281.702C970.722,282.245 970.196,282.888 971.444,283.569C971.651,283.682 973.944,284.933 974.028,284.995C974.372,285.25 973.961,285.871 975.385,286.637C977.111,287.566 976.782,287.923 982.474,293.526C984.506,295.527 984.413,295.567 986.316,297.668C986.721,298.115 992.169,305.253 992.509,305.492C993.335,306.075 996.487,311.579 998.169,313.772C999.597,315.634 1003.24,322.437 1003.347,322.598C1005.145,325.31 1006.65,329.248 1006.73,329.358C1007.428,330.308 1007.292,330.343 1007.831,331.347C1007.907,331.487 1008.169,331.471 1008.225,331.621C1008.782,333.107 1008.56,333.164 1009.255,334.615C1010.838,337.915 1010.829,337.893 1011.881,341.378C1011.961,341.64 1014.381,346.956 1014.491,347.502C1015.83,354.145 1016.963,353.798 1017.533,357.494C1018.633,364.612 1020.031,364.315 1020.663,371.483C1020.931,374.529 1022.626,380.974 1022.718,383.48C1023.091,393.608 1022.749,393.626 1022.97,394.478C1023.091,394.946 1023.878,395.032 1023.999,395.5L1023.999,422.5C1023.877,422.971 1023.106,423.078 1022.983,423.55C1022.79,424.294 1022.702,433.651 1022.694,434.529C1022.687,435.251 1022.675,436.515 1021.2,443.427C1020.801,445.294 1020.242,450.316 1019.332,453.459C1019.262,453.702 1019.223,453.659 1018.387,456.469C1017.597,459.127 1017.408,461.544 1016.312,464.425C1014.956,467.988 1015.032,467.993 1014.494,470.498C1014.425,470.82 1011.889,476.635 1011.887,476.642C1011.068,479.272 1011.316,479.359 1009.848,481.686C1009.58,482.11 1009.842,482.216 1007.461,487.477C1007.166,488.128 1005.19,492.494 1003.331,495.408C1002.716,496.373 1003.025,496.496 1002.424,497.469C1002.332,497.617 1002.043,497.594 1001.988,497.759C1001.93,497.937 1002.223,498.125 1002.151,498.298C1002.109,498.397 1002.052,498.328 1001.297,499.339C999.533,501.7 999.967,501.935 998.263,504.35C994,510.392 992.228,513.576 989.483,516.486C989.252,516.731 987.513,518.575 986.768,519.699C985.38,521.789 985.584,522.01 984.511,522.51C983.741,522.869 983.838,522.966 976.853,529.863C976.078,530.628 976.259,530.746 975.493,531.491C974.697,532.264 974.56,532.05 973.784,532.807C973.614,532.973 973.619,533.275 973.441,533.433C973.24,533.611 972.913,533.591 972.706,533.762C972.536,533.903 972.546,534.206 972.361,534.326C971.9,534.626 971.307,534.678 970.843,534.974C970.708,535.061 970.865,535.164 969.38,536.344C968.813,536.794 968.868,536.809 968.323,537.303L966.47,538.448C965.565,539.111 965.49,538.911 964.58,539.607C964.126,540.912 964.194,540.954 964.091,541.014C963.604,541.299 962.917,541.05 962.43,541.335C962.195,541.416 960.51,541.999 959.649,542.722C959.488,542.857 959.503,543.162 959.316,543.258C958.794,543.527 958.149,543.492 957.628,543.763C957.47,543.845 957.559,544.155 957.408,544.249C957.102,544.441 956.959,544.118 953.386,546.319C953.138,546.472 952.791,546.431 952.56,546.611C952.405,546.732 952.51,547.1 952.319,547.152C952.084,547.216 951.888,546.816 951.647,546.859C951.544,546.878 951.695,547.171 950.486,547.462C949.822,547.621 950.051,548.214 942.475,550.427C941.583,550.687 938.175,552.323 935.518,552.628C921.954,554.18 921.951,555.838 908.425,553.951C901.717,553.015 898.796,552.743 896.394,551.844C888.446,548.87 888.317,549.435 887.637,549.162C887.5,549.107 887.51,548.869 887.377,548.805C887.15,548.695 885.023,547.668 884.493,547.517C884.184,547.428 883.836,547.461 883.549,547.317C883.422,547.254 883.488,546.963 883.348,546.944C883.092,546.909 882.867,547.244 882.615,547.191C882.512,547.17 882.699,546.879 881.499,546.502C881.225,546.416 881.287,546.351 878.412,544.666C877.309,544.019 877.386,543.939 877.28,543.911C877.086,543.858 876.898,544.179 876.709,544.108C876.529,544.041 876.596,543.713 876.443,543.598C876.213,543.425 875.875,543.455 875.632,543.3C872.897,541.55 872.922,541.519 872.559,541.395C871.134,540.908 868.682,538.545 866.525,537.465C865.564,536.984 864.866,536.316 864.739,536.195C864.575,536.038 864.595,535.74 864.424,535.59C863.298,534.609 862.959,535.15 861.899,534.05C861.167,533.291 861.255,533.242 860.481,532.525C859.397,531.52 859.194,531.8 858.314,530.662C858.112,530.401 856.431,528.928 856.263,528.781C853.146,526.051 848.666,523.81 846.483,523.619C845.768,523.556 845.769,523.841 837.503,523.591C834.451,523.498 833.041,524.881 831.481,525.464C831.209,525.565 830.908,525.623 830.677,525.8C830.524,525.917 830.559,526.212 830.389,526.301C829.363,526.835 829.269,526.596 828.355,527.301C828.142,527.464 827.827,527.47 827.632,527.653C827.457,527.817 827.474,528.125 827.3,528.289C827.113,528.465 826.792,528.446 826.603,528.621C826.438,528.774 826.464,529.074 826.293,529.221C826.084,529.4 825.749,529.372 825.532,529.541C825.349,529.684 825.325,529.977 825.142,530.12C824.546,530.586 824.439,530.368 823.875,530.836C823.572,531.088 823.816,531.221 823.49,531.492C823.047,533.079 823.099,533.093 823.012,533.206C822.869,533.39 822.486,533.226 822.344,533.41C821.901,533.974 821.725,533.822 821.492,534.495C821.399,534.763 821.397,535.072 821.242,535.31C821.132,535.478 820.845,535.472 820.742,535.644C819.713,537.366 819.267,541.193 819.004,542.376C818.733,543.591 818.762,543.57 818.762,809.5C818.762,816.139 819.165,818.413 817.573,818.739C817.455,818.764 817.48,818.762 552.5,818.762C550.31,818.762 539.82,818.159 535.655,820.753C535.482,820.861 535.486,821.147 535.318,821.262C535.087,821.421 534.733,821.349 534.523,821.535C534.354,821.685 534.473,822.037 534.292,822.172C533.563,822.72 533.329,822.068 532.583,822.627C532.408,822.759 532.457,823.079 532.286,823.216C532.067,823.39 531.703,823.308 531.496,823.495C531.319,823.655 531.408,823.995 531.238,824.162C530.685,824.706 530.438,824.268 529.893,824.869C529.82,824.949 528.999,825.854 528.983,825.879C528.686,826.332 528.632,826.917 528.335,827.37C528.216,827.552 527.918,827.544 527.781,827.713C527.466,828.1 523.89,833.219 523.61,836.515C523.442,838.499 523.648,838.48 523.369,840.479C523.322,840.816 523.346,841.163 523.273,841.495C523.2,841.826 522.904,842.117 522.935,842.454C522.949,842.608 523.472,843 523.551,844.496C523.783,848.876 523.931,848.902 526.277,852.617C526.336,852.711 527.02,853.794 527.021,853.797C527.075,853.921 526.874,854.072 526.935,854.194C527.273,854.876 528.693,855.347 529.312,856.64C529.386,856.796 529.792,857.643 530.661,858.315C532.801,859.968 532.306,860.417 533.479,861.52C533.654,861.684 533.987,861.641 534.123,861.838C534.432,862.281 534.456,862.878 534.742,863.336C534.853,863.513 535.141,863.509 535.269,863.673C535.437,863.887 535.413,864.218 535.591,864.423C535.741,864.594 536.04,864.572 536.197,864.737C536.471,865.023 536.352,865.105 539.017,868.806C539.184,869.039 539.269,869.321 539.406,869.573C539.838,870.366 540.01,870.198 540.336,870.631C541.68,872.418 541.31,872.612 542.569,874.46C542.673,874.612 542.934,874.629 543.006,874.799C543.068,874.944 542.846,875.117 542.909,875.262C542.984,875.433 543.251,875.445 543.355,875.6C543.514,875.837 543.494,876.171 543.67,876.396C543.791,876.55 544.13,876.479 544.192,876.665C544.26,876.868 543.906,877.057 543.96,877.264C543.997,877.405 544.218,877.229 545.03,878.74C545.31,879.261 545.437,879.859 545.743,880.365C546.109,880.972 546.279,880.836 546.492,881.504C546.586,881.798 546.585,882.131 546.747,882.394C546.831,882.533 547.142,882.464 547.177,882.623C547.232,882.866 546.921,883.092 546.958,883.338C546.974,883.44 547.18,883.32 547.531,884.487C547.86,885.582 548.168,885.404 548.571,886.467C549.144,887.98 549.38,887.872 549.688,889.459C550.42,893.234 552.353,896.119 552.674,899.48C553.843,911.693 556.538,912.094 553.327,930.47C552.384,935.869 552.925,935.977 550.721,941.587C549.729,944.111 550.132,944.216 548.988,946.701C548.107,948.615 548.047,948.553 547.998,948.726C547.943,948.922 548.173,949.135 548.106,949.326C548.051,949.481 547.777,949.453 547.692,949.593C547.178,950.429 547.682,950.577 547.238,951.423C547.165,951.563 546.826,951.457 546.804,951.614C546.769,951.867 547.178,952.068 547.115,952.317C547.078,952.459 546.744,952.182 545.901,953.705C545.78,953.923 544.631,956 544.475,956.488C544.379,956.79 544.425,957.145 544.256,957.413C544.161,957.565 543.843,957.463 543.76,957.622C543.487,958.144 543.529,958.793 543.261,959.317C543.188,959.458 542.929,959.214 541.912,960.763L541.342,962.433C541.055,962.917 541.301,963.606 541.014,964.09L539.607,964.579C538.919,965.483 539.112,965.563 538.452,966.472L537.304,968.324C536.808,968.86 536.805,968.805 536.337,969.369C534.657,971.392 534.645,971.367 534.572,971.552C533.568,974.112 523.191,983.047 522.511,984.511C522.192,985.198 522.024,984.989 521.452,985.434C521.275,985.571 521.317,985.883 521.154,986.038C519.561,987.567 519.174,986.999 517.561,988.564C514.743,991.3 514.607,991.07 511.418,993.369C510.171,994.268 510.08,994.066 508.865,994.972C508.307,995.388 508.729,995.693 508.148,996.071C507.89,996.239 507.749,995.918 504.723,997.824C503.144,998.819 503.264,998.935 501.628,999.76C500.924,1000.116 499.921,1001.146 499.418,1001.398C499.164,1001.526 498.867,1001.572 498.639,1001.741C497.535,1002.558 497.573,1002.567 496.289,1003.007C493.253,1004.047 493.576,1004.633 492.348,1005.204C490.302,1006.155 490.244,1005.966 488.249,1007.076C486.285,1008.168 479.727,1010.852 479.66,1010.889C477.281,1012.2 477.032,1011.534 474.606,1012.753C470.69,1014.72 466.116,1015.566 462.594,1016.824C458.684,1018.22 458.562,1017.625 454.608,1018.862C447.277,1021.155 447.119,1020.306 439.571,1021.885C430.514,1023.781 425.55,1022.445 423.523,1022.97C423.055,1023.092 422.968,1023.878 422.5,1023.999L395.5,1023.999C395.032,1023.876 394.945,1023.092 394.477,1022.97C393.703,1022.767 385.64,1023.597 374.572,1021.194C370.99,1020.416 370.885,1021.032 367.4,1019.899C367.105,1019.803 367.071,1019.965 361.562,1018.313C358.39,1017.362 356.716,1017.554 355.609,1017.184C355.48,1017.141 355.525,1016.882 355.398,1016.836C354.508,1016.515 353.543,1016.438 352.654,1016.116C352.555,1016.08 352.666,1015.898 351.511,1015.472C348.141,1014.229 347.352,1014.631 346.601,1014.249C346.471,1014.184 346.479,1013.955 346.346,1013.896C345.994,1013.738 344.712,1013.547 343.397,1012.717C342.963,1012.443 338.171,1010.965 336.638,1010.229C335.604,1009.732 335.649,1009.71 334.623,1009.226C333.167,1008.54 333.119,1008.74 331.631,1008.178C331.489,1008.124 331.504,1007.878 331.373,1007.8C330.382,1007.211 330.292,1007.414 329.359,1006.729C329.273,1006.665 325.15,1005.066 322.602,1003.345C321.77,1002.782 319.18,1001.58 318.659,1001.234C317.71,1000.604 317.735,1000.644 316.74,1000.065C313.025,997.898 313.292,997.514 309.531,995.458C308.376,994.827 308.133,994.051 306.585,993.348C306.14,993.146 296.187,985.094 295.52,984.478C294.938,983.941 295.045,983.842 288.502,977.498C288.241,977.244 287.42,976.841 286.637,975.385C285.873,973.964 285.262,974.371 284.994,974.024C284.812,973.789 285.157,973.622 283.088,970.834C282.658,970.254 282.312,970.727 281.908,970.14C281.27,969.214 281.522,969.119 280.901,968.222C280.744,967.994 280.703,967.69 280.516,967.487C280.359,967.316 280.042,967.335 279.91,967.144C279.601,966.698 279.533,966.119 279.247,965.658C278.868,965.048 278.743,965.177 278.458,964.525C278.387,964.364 278.052,963.595 277.268,962.668C276.428,961.673 276.515,961.624 276.443,961.538C276.307,961.377 275.99,961.454 275.863,961.286C275.646,961.001 276.191,960.72 273.774,957.327C273.076,956.349 272.571,954.738 272.497,954.501C271.941,952.727 270.886,951.698 270.479,950.51C270.379,950.219 270.365,949.89 270.2,949.631C270.111,949.491 269.825,949.544 269.766,949.389C269.543,948.8 269.545,948.148 269.405,947.534C269.325,947.183 267.771,943.868 267.404,942.535C267.319,942.229 267.333,941.887 267.182,941.607C267.112,941.476 266.818,941.538 266.791,941.391C266.745,941.132 267.045,940.892 267.008,940.632C266.936,940.131 266.629,940.215 265.344,934.536C264.724,931.794 264.539,931.879 264.394,930.516C264.289,929.532 264.355,928.525 264.145,927.558C264.049,927.118 263.328,927.249 263.408,924.499C263.628,916.995 263.528,917.021 263.437,909.496L263.862,906.585C266.41,895.452 266.443,895.494 266.58,894.514C266.668,893.886 266.647,893.227 266.871,892.634C266.933,892.472 267.27,892.602 267.361,892.454C267.454,892.302 267.142,892.227 268.13,890.362C268.874,888.959 269.228,887.667 269.295,887.424C269.382,887.108 269.89,885.26 270.695,883.573C270.762,883.434 271.046,883.471 271.084,883.321C271.137,883.115 270.847,882.906 270.917,882.705C270.964,882.567 271.374,882.884 272.06,881.274C272.297,880.716 272.316,880.077 272.576,879.528C272.648,879.377 272.968,879.434 273.008,879.271C273.061,879.054 272.732,878.849 272.797,878.635C272.85,878.462 273.171,878.532 273.278,878.387C273.453,878.148 273.412,877.793 273.587,877.554C273.707,877.39 273.993,877.411 274.112,877.247C275.684,875.066 275.051,874.737 276.641,872.605C277.699,871.186 277.656,871.18 281.467,865.481L282.693,863.686C282.853,863.512 283.153,863.519 283.312,863.345C283.431,863.216 283.228,863.103 284.531,861.526C285.144,860.785 287.157,858.646 287.389,858.399L287.986,856.983C288.168,856.8 288.528,856.892 288.71,856.709C288.883,856.533 289.196,856.548 289.369,856.373C289.549,856.189 289.544,855.874 289.717,855.684C289.867,855.519 290.158,855.525 290.298,855.352C290.475,855.133 290.444,854.793 290.615,854.569C291.046,854.004 291.197,854.149 291.466,853.476C292.064,851.977 292.63,852.272 292.992,850.705C294.149,845.691 295.956,845.025 294.607,837.48C294.493,836.843 294.44,836.187 294.222,835.577C294.176,835.448 293.884,835.517 293.859,835.382C293.811,835.132 294.093,834.891 294.044,834.641C294.018,834.505 293.721,834.582 293.676,834.451C293.369,833.562 293.32,832.599 293.033,831.703C292.888,831.25 292.434,830.666 292.37,830.583C292.244,830.421 291.944,830.451 291.832,830.278C290.991,828.978 291.23,828.867 290.339,827.615C288.989,825.72 288.744,825.567 288.553,825.448C287.091,824.533 286.467,823.151 286.157,822.962C282.519,820.743 281.155,820.229 280.691,820.055C278.849,819.36 277.697,819.472 277.511,819.436L274.48,818.729C268.911,818.766 268.934,818.762 2.5,818.762C0.686,818.762 0.407,818.543 0,818.5L0,540.5C0.209,540.017 0.9,539.859 1.108,539.377C1.61,538.216 0.673,537.903 2.288,535.38C2.481,535.078 3.585,533.352 4.473,531.482C4.57,531.278 4.999,530.374 6.42,529.429C7.628,528.625 7.354,528.351 8.484,527.475C9.934,526.35 10.102,526.67 11.494,525.492C12.484,524.654 12.595,524.859 17.436,523.3C24.823,520.921 28.422,523.156 31.614,524.165C32.217,524.355 32.87,524.39 33.453,524.636C33.603,524.7 33.554,525.009 33.712,525.053C33.909,525.108 34.108,524.801 34.299,524.873C34.478,524.941 34.422,525.26 34.572,525.379C35.133,525.824 35.16,525.732 35.722,526.195C36.903,527.167 37.104,526.824 38.303,527.781C38.52,527.954 38.346,528.06 40.712,530.276C40.881,530.435 41.059,530.118 43.099,531.942C46.434,534.924 47.476,536 48.547,536.395C49.632,536.795 49.791,536.604 50.353,537.649C51.261,539.338 52.08,538.393 55.554,541.431C55.714,541.571 58.699,543.024 60.218,543.965C62.344,545.283 62.554,544.857 64.627,546.254C64.971,546.486 67.24,547.459 67.47,547.557C69.786,548.551 69.941,548.046 71.38,548.789C73.435,549.85 73.372,550.023 76.485,550.621C78.263,550.793 78.264,550.741 78.404,550.807C78.534,550.868 78.445,551.141 78.575,551.202C81.63,551.72 87.418,553.702 90.499,553.583C91.5,553.544 92.498,553.462 93.498,553.411C96.151,553.275 95.995,553.869 96.57,554.058C99.546,553.657 99.542,553.918 102.502,553.513C106.981,553.233 107.585,554.476 118.476,551.416L122.502,550.507C125.59,549.672 125.418,549.254 128.465,548.374C132.762,547.134 133.393,545.878 134.517,545.546C138.192,544.46 137.851,543.768 141.361,542.197C142.821,541.544 144.135,540.473 144.355,540.293C146.615,538.451 146.87,538.859 149.196,537.096C158.575,529.985 166.974,520.958 167.646,519.621C168.545,517.832 171.768,515.699 172.666,513.596C173.228,512.279 173.81,512.755 174.531,511.526C177.502,506.46 177.888,506.726 178.13,506.278C179.195,504.311 179.128,504.313 180.559,502.543C180.713,502.352 181.664,500.48 182.365,499.423C183.437,497.807 183.628,496.807 183.675,496.56C183.88,495.481 184.25,495.669 184.66,494.625C184.99,493.786 185.533,493.882 186.327,492.415C186.918,491.322 186.98,491.377 187.006,491.274C187.058,491.067 186.799,490.856 186.861,490.653C186.907,490.498 187.199,490.541 187.271,490.397C187.535,489.86 187.561,489.226 187.828,488.689C187.909,488.526 188.023,488.597 188.988,486.733C189.746,485.27 189.236,485.123 189.857,483.682C189.936,483.498 190.292,483.615 190.414,483.456C190.51,483.33 191.887,480.533 192.013,480.278C192.656,478.971 192.029,478.808 192.69,477.55C192.763,477.411 193.097,477.52 193.123,477.365C193.166,477.109 192.785,476.89 192.844,476.636C192.867,476.533 193.213,476.782 193.548,475.52C193.947,474.012 194.921,473.935 195.469,470.494C195.755,468.695 195.743,468.692 195.786,468.606C195.853,468.474 196.106,468.521 196.176,468.39C196.636,467.532 196.2,467.406 196.663,466.554C196.729,466.432 196.98,466.465 197.014,466.331C197.069,466.108 196.823,465.875 196.886,465.654C196.905,465.587 197.795,465.13 198.426,461.486C198.614,460.405 198.874,460.505 199.038,459.391C199.077,459.12 198.778,458.871 198.816,458.599C198.83,458.5 199.1,458.654 199.341,457.456C199.439,456.969 200.627,452.966 200.743,452.577C201.477,450.105 201.345,450.103 201.523,447.503C201.958,443.933 202.243,444.008 202.363,443.472C204.529,434.687 204.477,430.629 204.463,429.499C204.415,425.729 204.376,425.748 204.462,425.494C204.591,425.109 204.998,424.834 205.058,424.433C205.104,424.126 204.536,424.162 204.86,420.558C205.82,409.888 205.19,409.448 205.17,395.507C205.167,393.31 204.342,393.464 204.35,391.503C204.379,383.893 204.409,383.897 202.727,376.463C202.182,374.058 202.561,374.032 202.024,371.599C201.936,371.204 201.59,370.896 201.509,370.499C201.113,368.557 201.527,368.544 201.064,366.606C200.964,366.191 200.888,366.221 199.497,361.501C199.348,361.099 199.014,360.784 198.864,360.382C198.691,359.916 198.726,359.525 198.733,359.45C198.773,359.002 198.98,359.095 199.023,358.617Z" style="fill:rgb(229,120,166);fill-opacity:1;"/>
        </g>
    </g>
</svg>
